<svg width="84" height="84" viewBox="0 0 84 84" fill="none" xmlns="http://www.w3.org/2000/svg">
<path d="M27.0093 1.22725C27.1537 1.22588 27.298 1.22451 27.4468 1.2231C27.9314 1.21932 28.416 1.22025 28.9006 1.22117C29.2477 1.21948 29.5948 1.21751 29.9419 1.21529C30.8857 1.21019 31.8293 1.20933 32.7731 1.20954C33.5608 1.2094 34.3484 1.20739 35.1361 1.20545C36.9947 1.20095 38.8533 1.20008 40.7119 1.20131C42.6291 1.20249 44.5462 1.19701 46.4634 1.18833C48.1092 1.18115 49.7549 1.17841 51.4008 1.17915C52.3838 1.17953 53.3668 1.17817 54.3498 1.17242C55.2747 1.16717 56.1995 1.16747 57.1244 1.172C57.4635 1.17273 57.8027 1.1715 58.1418 1.16817C61.0246 1.14172 61.0246 1.14172 61.8199 1.8185C62.0006 2.02805 62.1755 2.2428 62.3439 2.46234C62.5494 2.66586 62.7575 2.86683 62.9678 3.06537C63.1855 3.28218 63.4029 3.49942 63.6198 3.71704C63.7998 3.89652 63.7998 3.89652 63.9833 4.07963C64.3753 4.47088 64.7666 4.86272 65.158 5.2546C65.4315 5.52807 65.7052 5.80152 65.9788 6.07494C66.5498 6.64572 67.1205 7.21679 67.691 7.78808C68.4235 8.52148 69.1567 9.25414 69.8901 9.98658C70.4541 10.5499 71.0177 11.1137 71.5811 11.6776C71.8515 11.9481 72.122 12.2184 72.3926 12.4887C72.7692 12.8649 73.1453 13.2416 73.5213 13.6185C73.6899 13.7866 73.6899 13.7866 73.8619 13.9581C73.9638 14.0604 74.0656 14.1627 74.1706 14.2682C74.2594 14.3571 74.3483 14.446 74.4399 14.5377C74.8796 15.0209 74.8329 15.4224 74.8324 16.0564C74.8327 16.3636 74.8327 16.3636 74.8331 16.6769C74.8325 16.905 74.8319 17.1332 74.8313 17.3613C74.8312 17.6006 74.8313 17.8399 74.8314 18.0791C74.8314 18.7299 74.8304 19.3807 74.8293 20.0315C74.8283 20.7112 74.8282 21.3908 74.828 22.0705C74.8275 23.3581 74.8261 24.6456 74.8245 25.9332C74.8226 27.3989 74.8217 28.8645 74.8209 30.3301C74.8192 33.3455 74.8163 36.361 74.8127 39.3764C74.9599 39.373 75.107 39.3695 75.2587 39.366C75.8103 39.3547 76.3618 39.3465 76.9135 39.3403C77.1512 39.3371 77.389 39.3326 77.6266 39.3269C79.1631 39.2909 80.3583 39.2854 81.579 40.355C81.6674 40.4618 81.7558 40.5686 81.8468 40.6786C81.9378 40.785 82.0287 40.8914 82.1224 41.001C82.6962 41.8338 82.7353 42.6093 82.7315 43.5973C82.7323 43.7414 82.733 43.8856 82.7338 44.0341C82.7359 44.5171 82.7356 45 82.7353 45.483C82.7363 45.8293 82.7374 46.1756 82.7387 46.522C82.7416 47.463 82.7423 48.404 82.7425 49.3451C82.7428 49.9333 82.7435 50.5215 82.7443 51.1097C82.7474 53.1627 82.7487 55.2157 82.7485 57.2687C82.7483 59.1808 82.7517 61.0928 82.7569 63.0048C82.7612 64.6474 82.763 66.29 82.7628 67.9327C82.7627 68.9132 82.7636 69.8938 82.7671 70.8743C82.7703 71.7973 82.7703 72.7203 82.7679 73.6432C82.7675 73.9811 82.7683 74.319 82.7703 74.6569C82.7837 77.0933 82.6487 79.0346 80.883 80.8842C79.0593 82.6251 77.0972 82.7857 74.6937 82.7722C74.3997 82.773 74.1058 82.774 73.8118 82.7753C73.0075 82.7781 72.2033 82.7767 71.399 82.7747C70.5302 82.7732 69.6615 82.7755 68.7927 82.7773C67.0923 82.7802 65.3918 82.7796 63.6913 82.7777C62.3091 82.7762 60.9268 82.776 59.5446 82.7767C59.3478 82.7768 59.1509 82.7769 58.9481 82.777C58.5482 82.7772 58.1483 82.7774 57.7484 82.7776C53.9998 82.7795 50.2513 82.7774 46.5027 82.7738C43.2874 82.7709 40.0722 82.7714 36.8569 82.7744C33.1216 82.778 29.3863 82.7793 25.651 82.7773C25.2526 82.7771 24.8541 82.7769 24.4557 82.7767C24.1617 82.7766 24.1617 82.7766 23.8617 82.7764C22.4814 82.7758 21.1011 82.7768 19.7208 82.7783C18.0383 82.7802 16.3558 82.7797 14.6733 82.7762C13.8151 82.7745 12.957 82.7738 12.0988 82.7759C11.3127 82.7779 10.5266 82.7768 9.74049 82.7733C9.45667 82.7726 9.17283 82.773 8.88901 82.7746C6.62583 82.7863 4.81443 82.5043 3.11735 80.8842C1.61669 79.3122 1.21275 77.6289 1.22933 75.5013C1.2283 75.297 1.22728 75.0928 1.22623 74.8823C1.22407 74.3202 1.22483 73.7582 1.22687 73.1962C1.22836 72.5881 1.22606 71.9801 1.22426 71.372C1.22135 70.1829 1.22197 68.9939 1.22388 67.8048C1.22536 66.8383 1.22556 65.8718 1.22484 64.9053C1.22474 64.7675 1.22464 64.6297 1.22454 64.4877C1.22433 64.2077 1.22412 63.9278 1.2239 63.6478C1.22203 61.0259 1.22418 58.404 1.22771 55.7822C1.23064 53.5337 1.23013 51.2852 1.2271 49.0367C1.22359 46.4232 1.22221 43.8096 1.22423 41.1961C1.22444 40.9173 1.22464 40.6385 1.22484 40.3598C1.225 40.1541 1.225 40.1541 1.22515 39.9442C1.22572 38.9789 1.22476 38.0135 1.22322 37.0482C1.22138 35.8718 1.22188 34.6954 1.22537 33.519C1.22709 32.9191 1.22777 32.3192 1.2256 31.7192C1.22328 31.0685 1.22605 30.4178 1.22933 29.7671C1.22713 29.4836 1.22713 29.4836 1.22489 29.1943C1.23735 27.9185 1.42703 27.0338 2.29127 26.0476C2.39807 25.9592 2.50487 25.8708 2.61491 25.7797C2.72128 25.6888 2.82766 25.5978 2.93726 25.5041C3.71942 24.9652 4.44327 24.8889 5.37365 24.886C5.5619 24.8836 5.5619 24.8836 5.75395 24.8811C6.16772 24.8763 6.58145 24.8741 6.99525 24.8722C7.28441 24.8704 7.57357 24.8685 7.86274 24.8666C8.46886 24.8631 9.07496 24.8612 9.68109 24.8601C10.4543 24.8583 11.2274 24.8504 12.0006 24.841C12.5981 24.8349 13.1956 24.8332 13.7931 24.8327C14.078 24.8317 14.3628 24.8291 14.6476 24.8248C15.0481 24.8191 15.4481 24.8198 15.8487 24.8219C15.9642 24.8189 16.0797 24.8159 16.1988 24.8128C17.9334 24.8412 19.1804 26.1403 20.3196 27.3114C20.4483 27.4411 20.5771 27.5708 20.7098 27.7044C21.1158 28.1141 21.5194 28.5259 21.923 28.9379C22.1999 29.2181 22.477 29.4982 22.7542 29.7781C23.4291 30.4602 24.1021 31.1441 24.7736 31.8295C24.7738 31.6762 24.7741 31.523 24.7743 31.365C24.7803 27.638 24.7901 23.911 24.8038 20.184C24.8103 18.3816 24.8156 16.5793 24.8181 14.777C24.8202 13.2063 24.8246 11.6357 24.8318 10.065C24.8355 9.23315 24.8381 8.40128 24.8379 7.56937C24.8378 6.7867 24.8407 6.0041 24.846 5.22146C24.8474 4.93389 24.8477 4.64632 24.8467 4.35876C24.8457 3.96664 24.8486 3.57474 24.8525 3.18264C24.8512 3.06837 24.85 2.9541 24.8487 2.83637C24.8577 2.33 24.9159 2.00555 25.1826 1.57166C25.7748 1.20053 26.3318 1.22159 27.0093 1.22725Z" fill="#EFAD41"/>
<path d="M27.5625 3.9375C37.9575 3.9375 48.3525 3.9375 59.0625 3.9375C59.1166 7.94391 59.1708 11.9503 59.2266 16.0781C59.4727 16.7344 59.4727 16.7344 59.8828 16.8984C63.9434 16.9526 68.0039 17.0067 72.1875 17.0625C72.1875 34.3875 72.1875 51.7125 72.1875 69.5625C57.4613 69.5625 42.735 69.5625 27.5625 69.5625C27.5625 47.9062 27.5625 26.25 27.5625 3.9375Z" fill="#F1F1F1"/>
<path d="M54.4688 22.8045C54.5994 22.8425 54.7299 22.8804 54.8644 22.9194C58.3685 23.9546 61.1474 25.5382 63.8204 28.0545C63.9194 28.1429 64.0184 28.2314 64.1203 28.3224C67.3634 31.3382 69.4135 36.2592 69.6203 40.6316C69.7652 46.4217 67.9091 51.6767 63.9298 55.9012C61.3266 58.5731 58.0512 60.2557 54.4688 61.1952C54.2607 61.251 54.0526 61.3068 53.8382 61.3644C48.7226 62.5251 43.4571 61.2789 39.047 58.5702C34.5827 55.583 31.6227 51.0655 30.5106 45.8303C29.5091 40.6054 30.5437 35.284 33.5158 30.8575C36.2962 26.9551 40.2779 24.0098 44.9685 22.8819C45.2512 22.812 45.531 22.7301 45.8101 22.6469C48.5077 21.9182 51.7974 22.0149 54.4688 22.8045Z" fill="#6AC03A"/>
<path d="M27.0093 1.22725C27.1537 1.22588 27.298 1.22451 27.4468 1.2231C27.9314 1.21932 28.416 1.22025 28.9006 1.22117C29.2477 1.21948 29.5948 1.21751 29.9419 1.21529C30.8857 1.21019 31.8293 1.20933 32.7731 1.20954C33.5608 1.2094 34.3484 1.20739 35.1361 1.20545C36.9947 1.20095 38.8533 1.20008 40.7119 1.20131C42.6291 1.20249 44.5462 1.19701 46.4634 1.18833C48.1092 1.18115 49.7549 1.17841 51.4008 1.17915C52.3838 1.17953 53.3668 1.17817 54.3498 1.17242C55.2747 1.16717 56.1995 1.16747 57.1244 1.172C57.4635 1.17273 57.8027 1.1715 58.1418 1.16817C61.0246 1.14172 61.0246 1.14172 61.8199 1.8185C62.0006 2.02805 62.1755 2.2428 62.3439 2.46234C62.5494 2.66586 62.7575 2.86683 62.9678 3.06537C63.1855 3.28218 63.4029 3.49942 63.6198 3.71704C63.7998 3.89652 63.7998 3.89652 63.9833 4.07963C64.3753 4.47088 64.7666 4.86272 65.158 5.2546C65.4315 5.52807 65.7052 5.80152 65.9788 6.07494C66.5498 6.64572 67.1205 7.21679 67.691 7.78808C68.4235 8.52148 69.1567 9.25414 69.8901 9.98658C70.4541 10.5499 71.0177 11.1137 71.5811 11.6776C71.8515 11.9481 72.122 12.2184 72.3926 12.4887C72.7692 12.8649 73.1453 13.2416 73.5213 13.6185C73.6899 13.7866 73.6899 13.7866 73.8619 13.9581C73.9638 14.0604 74.0656 14.1627 74.1706 14.2682C74.2594 14.3571 74.3483 14.446 74.4399 14.5377C74.8796 15.0209 74.8329 15.4224 74.8324 16.0564C74.8327 16.3636 74.8327 16.3636 74.8331 16.6769C74.8325 16.905 74.8319 17.1332 74.8313 17.3613C74.8312 17.6006 74.8313 17.8399 74.8314 18.0791C74.8314 18.7299 74.8304 19.3807 74.8293 20.0315C74.8283 20.7112 74.8282 21.3908 74.828 22.0705C74.8275 23.3581 74.8261 24.6456 74.8245 25.9332C74.8226 27.3989 74.8217 28.8645 74.8209 30.3301C74.8192 33.3455 74.8163 36.361 74.8127 39.3764C74.9599 39.373 75.107 39.3695 75.2587 39.366C75.8103 39.3547 76.3618 39.3465 76.9135 39.3403C77.1512 39.3371 77.389 39.3326 77.6266 39.3269C79.1631 39.2909 80.3583 39.2854 81.579 40.355C81.6674 40.4618 81.7558 40.5686 81.8468 40.6786C81.9378 40.785 82.0287 40.8914 82.1224 41.001C82.6962 41.8338 82.7353 42.6093 82.7315 43.5973C82.7323 43.7414 82.733 43.8856 82.7338 44.0341C82.7359 44.5171 82.7356 45 82.7353 45.483C82.7363 45.8293 82.7374 46.1756 82.7387 46.522C82.7416 47.463 82.7423 48.404 82.7425 49.3451C82.7428 49.9333 82.7435 50.5215 82.7443 51.1097C82.7474 53.1627 82.7487 55.2157 82.7485 57.2687C82.7483 59.1808 82.7517 61.0928 82.7569 63.0048C82.7612 64.6474 82.763 66.29 82.7628 67.9327C82.7627 68.9132 82.7636 69.8938 82.7671 70.8743C82.7703 71.7973 82.7703 72.7203 82.7679 73.6432C82.7675 73.9811 82.7683 74.319 82.7703 74.6569C82.7837 77.0933 82.6487 79.0346 80.883 80.8842C79.0593 82.6251 77.0972 82.7857 74.6937 82.7722C74.3997 82.773 74.1058 82.774 73.8118 82.7753C73.0075 82.7781 72.2033 82.7767 71.399 82.7747C70.5302 82.7732 69.6615 82.7755 68.7927 82.7773C67.0923 82.7802 65.3918 82.7796 63.6913 82.7777C62.3091 82.7762 60.9268 82.776 59.5446 82.7767C59.3478 82.7768 59.1509 82.7769 58.9481 82.777C58.5482 82.7772 58.1483 82.7774 57.7484 82.7776C53.9998 82.7795 50.2513 82.7774 46.5027 82.7738C43.2874 82.7709 40.0722 82.7714 36.8569 82.7744C33.1216 82.778 29.3863 82.7793 25.651 82.7773C25.2526 82.7771 24.8541 82.7769 24.4557 82.7767C24.1617 82.7766 24.1617 82.7766 23.8617 82.7764C22.4814 82.7758 21.1011 82.7768 19.7208 82.7783C18.0383 82.7802 16.3558 82.7797 14.6733 82.7762C13.8151 82.7745 12.957 82.7738 12.0988 82.7759C11.3127 82.7779 10.5266 82.7768 9.74049 82.7733C9.45667 82.7726 9.17283 82.773 8.88901 82.7746C6.62583 82.7863 4.81443 82.5043 3.11735 80.8842C1.61669 79.3122 1.21275 77.6289 1.22933 75.5013C1.2283 75.297 1.22728 75.0928 1.22623 74.8823C1.22407 74.3202 1.22483 73.7582 1.22687 73.1962C1.22836 72.5881 1.22606 71.9801 1.22426 71.372C1.22135 70.1829 1.22197 68.9939 1.22388 67.8048C1.22536 66.8383 1.22556 65.8718 1.22484 64.9053C1.22474 64.7675 1.22464 64.6297 1.22454 64.4877C1.22433 64.2077 1.22412 63.9278 1.2239 63.6478C1.22203 61.0259 1.22418 58.404 1.22771 55.7822C1.23064 53.5337 1.23013 51.2852 1.2271 49.0367C1.22359 46.4232 1.22221 43.8096 1.22423 41.1961C1.22444 40.9173 1.22464 40.6385 1.22484 40.3598C1.225 40.1541 1.225 40.1541 1.22515 39.9442C1.22572 38.9789 1.22476 38.0135 1.22322 37.0482C1.22138 35.8718 1.22188 34.6954 1.22537 33.519C1.22709 32.9191 1.22777 32.3192 1.2256 31.7192C1.22328 31.0685 1.22605 30.4178 1.22933 29.7671C1.22713 29.4836 1.22713 29.4836 1.22489 29.1943C1.23735 27.9185 1.42703 27.0338 2.29127 26.0476C2.39807 25.9592 2.50487 25.8708 2.61491 25.7797C2.72128 25.6888 2.82766 25.5978 2.93726 25.5041C3.71942 24.9652 4.44327 24.8889 5.37365 24.886C5.5619 24.8836 5.5619 24.8836 5.75395 24.8811C6.16772 24.8763 6.58145 24.8741 6.99525 24.8722C7.28441 24.8704 7.57357 24.8685 7.86274 24.8666C8.46886 24.8631 9.07496 24.8612 9.68109 24.8601C10.4543 24.8583 11.2274 24.8504 12.0006 24.841C12.5981 24.8349 13.1956 24.8332 13.7931 24.8327C14.078 24.8317 14.3628 24.8291 14.6476 24.8248C15.0481 24.8191 15.4481 24.8198 15.8487 24.8219C15.9642 24.8189 16.0797 24.8159 16.1988 24.8128C17.9334 24.8412 19.1804 26.1403 20.3196 27.3114C20.4483 27.4411 20.5771 27.5708 20.7098 27.7044C21.1158 28.1141 21.5194 28.5259 21.923 28.9379C22.1999 29.2181 22.477 29.4982 22.7542 29.7781C23.4291 30.4602 24.1021 31.1441 24.7736 31.8295C24.7738 31.6762 24.7741 31.523 24.7743 31.365C24.7803 27.638 24.7901 23.911 24.8038 20.184C24.8103 18.3816 24.8156 16.5793 24.8181 14.777C24.8202 13.2063 24.8246 11.6357 24.8318 10.065C24.8355 9.23315 24.8381 8.40128 24.8379 7.56937C24.8378 6.7867 24.8407 6.0041 24.846 5.22146C24.8474 4.93389 24.8477 4.64632 24.8467 4.35876C24.8457 3.96664 24.8486 3.57474 24.8525 3.18264C24.8512 3.06837 24.85 2.9541 24.8487 2.83637C24.8577 2.33 24.9159 2.00555 25.1826 1.57166C25.7748 1.20053 26.3318 1.22159 27.0093 1.22725ZM27.5627 3.9389C27.5627 25.5951 27.5627 47.2514 27.5627 69.5639C42.2889 69.5639 57.0152 69.5639 72.1877 69.5639C72.1877 52.2389 72.1877 34.9139 72.1877 17.0639C68.1271 17.0098 64.0666 16.9556 59.883 16.8998C59.3908 16.5717 59.3908 16.5717 59.2267 16.0795C59.1726 12.0731 59.1184 8.06671 59.0627 3.9389C48.6677 3.9389 38.2727 3.9389 27.5627 3.9389ZM3.93766 28.3842C3.81445 29.0274 3.82776 29.6633 3.8346 30.3165C3.83343 30.5145 3.83227 30.7125 3.83107 30.9164C3.82868 31.4655 3.82998 32.0143 3.83283 32.5634C3.83502 33.1557 3.83249 33.748 3.83056 34.3403C3.82755 35.5006 3.82895 36.6609 3.83189 37.8212C3.83419 38.7645 3.83483 39.7078 3.83428 40.6511C3.8342 40.7854 3.83412 40.9196 3.83404 41.0579C3.83387 41.3306 3.8337 41.6033 3.83352 41.8761C3.83212 44.2884 3.83485 46.7008 3.83973 49.1131C3.84446 51.4528 3.84562 53.7925 3.84309 56.1322C3.84034 58.6802 3.83968 61.2282 3.84255 63.7762C3.84285 64.0481 3.84316 64.3201 3.84346 64.592C3.84368 64.7926 3.84368 64.7926 3.84391 64.9974C3.84483 65.9389 3.84429 66.8805 3.8432 67.8221C3.84193 68.9705 3.84305 70.1189 3.84717 71.2672C3.84921 71.8529 3.85023 72.4385 3.84839 73.0242C3.84643 73.6598 3.84958 74.2954 3.85322 74.931C3.85187 75.1151 3.85052 75.2992 3.84913 75.4889C3.86291 76.7941 4.09086 77.8338 4.95216 78.843C5.07418 78.9448 5.19621 79.0465 5.32194 79.1513C5.44354 79.256 5.56515 79.3607 5.69044 79.4685C6.4762 80.0211 7.12854 80.1051 8.08167 80.1061C8.25984 80.107 8.25984 80.107 8.44162 80.1078C8.84077 80.1094 9.23989 80.1086 9.63904 80.1078C9.92766 80.1084 10.2163 80.1091 10.5049 80.11C11.2989 80.112 12.0929 80.112 12.887 80.1116C13.743 80.1115 14.599 80.1133 15.455 80.1149C17.1325 80.1176 18.81 80.1185 20.4874 80.1187C21.8508 80.1189 23.2143 80.1195 24.5777 80.1206C28.442 80.1235 32.3063 80.125 36.1706 80.1247C36.379 80.1247 36.5874 80.1247 36.8022 80.1247C37.0108 80.1247 37.2195 80.1247 37.4344 80.1246C40.8161 80.1245 44.1978 80.1277 47.5795 80.1323C51.0506 80.137 54.5217 80.1393 57.9929 80.139C59.9421 80.1389 61.8914 80.1398 63.8406 80.1433C65.5003 80.1463 67.1599 80.147 68.8195 80.1448C69.6664 80.1437 70.5132 80.1437 71.36 80.1465C72.1354 80.1491 72.9108 80.1487 73.6862 80.1458C73.9665 80.1453 74.2468 80.1459 74.5271 80.1477C76.1508 80.1576 77.5415 80.147 78.8418 79.0552C78.9435 78.9346 79.0453 78.8141 79.1501 78.6899C79.2547 78.5702 79.3594 78.4505 79.4673 78.3271C80.0601 77.4486 80.1104 76.5698 80.1054 75.5372C80.1061 75.3975 80.1067 75.2578 80.1073 75.1138C80.109 74.6468 80.1084 74.1798 80.1077 73.7128C80.1084 73.3775 80.1093 73.0422 80.1103 72.7069C80.1125 71.7972 80.1126 70.8874 80.1121 69.9777C80.112 69.2185 80.1128 68.4592 80.1135 67.7C80.1154 65.9096 80.1154 64.1192 80.1144 62.3287C80.1135 60.4803 80.1155 58.6319 80.119 56.7835C80.1219 55.197 80.1228 53.6106 80.1223 52.0242C80.122 51.0764 80.1225 50.1286 80.1247 49.1808C80.1268 48.2902 80.1265 47.3995 80.1243 46.5089C80.1239 46.1816 80.1244 45.8544 80.1257 45.5271C80.1275 45.0812 80.1261 44.6354 80.1241 44.1895C80.1253 44.0593 80.1265 43.9291 80.1277 43.795C80.1225 43.2678 80.0976 42.886 79.8435 42.4183C79.3187 41.9322 78.7764 41.9821 78.0971 41.9854C77.8108 41.9862 77.8108 41.9862 77.5187 41.987C77.2197 41.989 77.2197 41.989 76.9147 41.9911C76.6129 41.9922 76.6129 41.9922 76.3049 41.9934C75.8075 41.9953 75.3101 41.998 74.8127 42.0014C74.8121 42.1513 74.8116 42.3012 74.811 42.4556C74.7977 46.1005 74.7826 49.7454 74.7655 53.3902C74.7573 55.1529 74.7496 56.9155 74.7434 58.6781C74.738 60.2141 74.7315 61.7501 74.7236 63.2862C74.7195 64.0997 74.7159 64.9133 74.7137 65.7268C74.7116 66.4922 74.708 67.2576 74.7032 68.023C74.7017 68.3042 74.7007 68.5855 74.7004 68.8667C74.6999 69.2501 74.6973 69.6335 74.6943 70.0169C74.6934 70.2317 74.6925 70.4464 74.6915 70.6677C74.6514 71.1698 74.6145 71.4562 74.3205 71.8608C73.836 72.0223 73.5234 72.0455 73.0184 72.0459C72.8502 72.0465 72.6821 72.047 72.5089 72.0475C72.3236 72.0473 72.1384 72.047 71.9475 72.0468C71.6529 72.0473 71.6529 72.0473 71.3524 72.0479C70.8064 72.0488 70.2604 72.0489 69.7144 72.0487C69.1259 72.0486 68.5374 72.0496 67.9489 72.0503C66.7957 72.0517 65.6425 72.0521 64.4893 72.0522C63.5523 72.0523 62.6153 72.0527 61.6783 72.0532C59.0236 72.0546 56.3689 72.0554 53.7142 72.0552C53.571 72.0552 53.4279 72.0552 53.2803 72.0552C53.0653 72.0552 53.0653 72.0552 52.8459 72.0552C50.5213 72.0551 48.1967 72.0567 45.872 72.059C43.487 72.0614 41.1019 72.0625 38.7168 72.0624C37.377 72.0623 36.0372 72.0628 34.6974 72.0645C33.557 72.066 32.4165 72.0664 31.2761 72.0653C30.6939 72.0647 30.1117 72.0647 29.5295 72.0662C28.8992 72.0677 28.269 72.0667 27.6388 72.0654C27.3609 72.0667 27.3609 72.0667 27.0774 72.0679C26.9092 72.0672 26.7411 72.0664 26.5679 72.0657C26.4223 72.0657 26.2767 72.0657 26.1268 72.0658C25.758 72.0248 25.758 72.0248 25.2658 71.6967C25.0579 71.0731 25.104 70.5086 25.131 69.8614C25.1413 69.5729 25.1517 69.2844 25.162 68.9959C25.1679 68.8411 25.1738 68.6864 25.1799 68.5269C25.3149 64.9493 25.3924 61.3715 25.4491 57.7919C25.483 55.7244 25.5321 53.6594 25.6176 51.5933C26.4749 41.3454 26.4749 41.3454 22.5382 32.3521C19.6058 29.2278 19.6058 29.2278 15.9303 27.5386C15.7265 27.5365 15.5228 27.5344 15.3129 27.5323C15.2005 27.5309 15.0882 27.5296 14.9725 27.5282C14.6 27.5241 14.2276 27.5214 13.8551 27.519C13.7279 27.5182 13.6007 27.5173 13.4697 27.5164C12.7965 27.512 12.1232 27.5088 11.45 27.5065C10.7548 27.5037 10.0598 27.4964 9.36465 27.488C8.82995 27.4825 8.29528 27.4806 7.76055 27.4797C7.50433 27.4786 7.24811 27.4761 6.99192 27.4721C6.6329 27.467 6.27423 27.4669 5.91518 27.4682C5.71106 27.4668 5.50694 27.4655 5.29663 27.4641C4.56647 27.5994 4.37669 27.7826 3.93766 28.3842Z" fill="black"/>
<path d="M68.25 17.0625C69.5494 17.0625 70.8488 17.0625 72.1875 17.0625C72.1875 34.3875 72.1875 51.7125 72.1875 69.5625C57.4613 69.5625 42.735 69.5625 27.5625 69.5625C27.5625 68.4797 27.5625 67.3969 27.5625 66.2812C28.0426 66.2807 28.5227 66.2801 29.0174 66.2794C33.4217 66.2736 37.8261 66.2646 42.2304 66.2521C42.8078 66.2504 43.3853 66.2488 43.9627 66.2472C44.1352 66.2467 44.1352 66.2467 44.3111 66.2462C46.1716 66.2411 48.0321 66.2384 49.8926 66.2364C51.8021 66.2344 53.7117 66.2298 55.6212 66.2231C56.6936 66.2194 57.7659 66.2168 58.8382 66.217C59.8477 66.2171 60.857 66.2141 61.8665 66.2089C62.2368 66.2075 62.6072 66.2072 62.9775 66.2081C63.4837 66.2092 63.9896 66.2063 64.4957 66.2023C64.6419 66.2036 64.7881 66.2049 64.9387 66.2062C65.8879 66.1932 66.6457 66.0187 67.4297 65.4609C68.1112 64.6718 68.1795 63.888 68.163 62.8771C68.1634 62.7382 68.1638 62.5994 68.1641 62.4563C68.1645 62.0007 68.1602 61.5452 68.1558 61.0896C68.155 60.772 68.1544 60.4544 68.1542 60.1368C68.1529 59.4731 68.1495 58.8094 68.1445 58.1456C68.1379 57.2936 68.135 56.4416 68.1334 55.5896C68.1318 54.7774 68.1285 53.9652 68.125 53.153C68.1245 52.9976 68.1239 52.8422 68.1233 52.682C68.1214 52.2441 68.1184 51.8062 68.115 51.3683C68.1145 51.2379 68.1141 51.1074 68.1136 50.9729C68.121 50.3206 68.121 50.3206 67.9219 49.7109C68.0624 49.2442 68.2138 48.787 68.373 48.3267C69.6906 44.3016 70.0275 39.7437 68.4048 35.7527C68.0552 34.7947 68.0018 33.9616 68.0265 32.9498C68.028 32.7768 68.0295 32.6037 68.0311 32.4253C68.0368 31.8598 68.0472 31.2945 68.0577 30.729C68.0626 30.3344 68.0673 29.9397 68.0716 29.545C68.0837 28.5111 68.0999 27.4774 68.1169 26.4436C68.1336 25.3867 68.1465 24.3298 68.1596 23.2728C68.186 21.2027 68.217 19.1326 68.25 17.0625Z" fill="#E1E6F5"/>
<path d="M50.3671 27.5629C51.5881 28.4184 52.6162 29.624 53.6682 30.6781C53.8572 30.867 54.0462 31.0558 54.2352 31.2447C54.6286 31.6378 55.0217 32.0312 55.4145 32.4249C55.9186 32.9298 56.4234 33.4341 56.9284 33.9381C57.3175 34.3267 57.7063 34.7156 58.095 35.1047C58.2811 35.2909 58.4673 35.477 58.6537 35.663C58.9128 35.9217 59.1714 36.181 59.4299 36.4404C59.6508 36.6614 59.6508 36.6614 59.8761 36.8869C60.2761 37.3118 60.3654 37.4609 60.4159 38.0424C60.3705 38.6106 60.2809 38.8131 59.8827 39.2113C59.3516 39.3884 58.9677 39.3941 58.4094 39.3914C58.2185 39.3909 58.0276 39.3903 57.831 39.3898C57.6316 39.3884 57.4323 39.387 57.227 39.3856C57.0257 39.3849 56.8245 39.3841 56.6172 39.3834C56.1197 39.3814 55.6223 39.3787 55.1249 39.3754C55.1265 39.6748 55.1265 39.6748 55.1282 39.9802C55.1382 41.8608 55.1456 43.7413 55.1504 45.6218C55.153 46.5887 55.1565 47.5555 55.162 48.5223C55.1674 49.4552 55.1703 50.3881 55.1716 51.321C55.1725 51.6771 55.1743 52.0331 55.1769 52.3892C55.1805 52.8876 55.181 53.386 55.1808 53.8844C55.1825 54.0318 55.1843 54.1792 55.1861 54.3311C55.1823 55.1066 55.1573 55.6553 54.6327 56.2738C54.1416 56.4375 53.8101 56.4605 53.2969 56.4643C53.1249 56.4659 52.953 56.4675 52.7759 56.4691C52.5903 56.4698 52.4047 56.4705 52.2134 56.4712C52.0227 56.4721 51.8319 56.4731 51.6354 56.474C51.2317 56.4756 50.8281 56.4766 50.4244 56.4773C49.8062 56.4789 49.188 56.484 48.5698 56.4891C48.1779 56.4902 47.786 56.4911 47.3941 56.4917C47.2088 56.4937 47.0236 56.4957 46.8327 56.4978C46.6602 56.4973 46.4878 56.4968 46.3101 56.4963C46.0828 56.4972 46.0828 56.4972 45.8509 56.4982C45.3634 56.4257 45.1423 56.2852 44.789 55.9457C44.64 55.4988 44.6046 55.2428 44.6052 54.7839C44.6049 54.648 44.6047 54.512 44.6045 54.3719C44.6051 54.2233 44.6057 54.0748 44.6063 53.9217C44.6063 53.7648 44.6062 53.6079 44.6062 53.4463C44.6063 52.9269 44.6076 52.4076 44.6089 51.8883C44.6092 51.5286 44.6094 51.1688 44.6096 50.809C44.6102 49.8615 44.6118 48.914 44.6136 47.9665C44.6153 46.9999 44.6161 46.0332 44.6169 45.0666C44.6187 43.1695 44.6215 41.2724 44.6249 39.3754C44.4942 39.3779 44.3634 39.3805 44.2287 39.3832C43.6362 39.3934 43.0437 39.3998 42.4511 39.4061C42.2453 39.4102 42.0395 39.4144 41.8275 39.4186C41.6298 39.4202 41.432 39.4218 41.2283 39.4234C41.0462 39.426 40.864 39.4286 40.6763 39.4312C40.1352 39.3684 39.918 39.2693 39.539 38.8832C39.3671 38.3495 39.2903 38.1037 39.3749 37.5707C39.56 37.2844 39.56 37.2844 39.8281 36.9945C39.9334 36.8803 40.0388 36.7661 40.1473 36.6484C40.9198 35.8468 41.7022 35.0559 42.4902 34.2696C42.679 34.0806 42.8679 33.8916 43.0567 33.7025C43.4498 33.3092 43.8433 32.9161 44.2369 32.5232C44.7419 32.0192 45.2461 31.5144 45.7501 31.0094C46.1387 30.6202 46.5277 30.2315 46.9167 29.8428C47.103 29.6567 47.2891 29.4705 47.475 29.2841C47.7338 29.025 47.993 28.7663 48.2524 28.5079C48.3998 28.3606 48.5472 28.2134 48.699 28.0617C49.2557 27.5376 49.6061 27.4501 50.3671 27.5629Z" fill="#010101"/>
<path d="M54.4688 22.8045C54.5994 22.8425 54.7299 22.8804 54.8644 22.9194C58.3685 23.9546 61.1474 25.5382 63.8204 28.0545C63.9194 28.1429 64.0184 28.2314 64.1203 28.3224C67.3634 31.3382 69.4135 36.2592 69.6203 40.6316C69.7652 46.4217 67.9091 51.6767 63.9298 55.9012C61.3266 58.5731 58.0512 60.2557 54.4688 61.1952C54.2607 61.251 54.0526 61.3068 53.8382 61.3644C48.7226 62.5251 43.4571 61.2789 39.047 58.5702C34.5827 55.583 31.6227 51.0655 30.5106 45.8303C29.5091 40.6054 30.5437 35.284 33.5158 30.8575C36.2962 26.9551 40.2779 24.0098 44.9685 22.8819C45.2512 22.812 45.531 22.7301 45.8101 22.6469C48.5077 21.9182 51.7974 22.0149 54.4688 22.8045ZM41.836 26.9061C41.5762 27.0403 41.5762 27.0403 41.3112 27.1772C37.319 29.3496 34.5291 33.3257 33.2516 37.6157C32.1947 41.5327 32.7415 45.8062 34.4737 49.4442C34.5376 49.5788 34.6016 49.7135 34.6674 49.8522C35.2366 51.0141 35.9183 51.9984 36.7501 52.992C36.8256 53.0902 36.9011 53.1883 36.9789 53.2894C37.5293 53.9963 38.1928 54.5604 38.8829 55.1249C39.0248 55.242 39.1667 55.3592 39.3129 55.4799C42.8823 58.2986 47.3828 59.5216 51.8986 59.0198C55.2575 58.541 58.4986 57.2463 61.0313 54.9608C61.1214 54.8796 61.2114 54.7983 61.3042 54.7146C63.9533 52.2804 65.7449 49.2771 66.6095 45.7733C66.6463 45.6274 66.6831 45.4814 66.721 45.3311C67.6229 40.9944 66.6438 36.4543 64.2954 32.7553C63.6762 31.817 62.9717 30.9856 62.1798 30.1874C62.0444 30.0452 61.9091 29.9031 61.7696 29.7567C61.6343 29.6281 61.4989 29.4995 61.3595 29.367C61.2126 29.2214 61.2126 29.2214 61.0627 29.0729C57.753 25.9332 53.194 24.817 48.7555 24.8816C46.2841 24.9749 43.9971 25.7413 41.836 26.9061Z" fill="#020302"/>
<path d="M49.7109 30.8438C50.2094 31.0668 50.5538 31.3177 50.9387 31.7035C51.047 31.8114 51.1554 31.9192 51.267 32.0303C51.382 32.1465 51.4971 32.2627 51.6156 32.3825C51.7348 32.5018 51.8541 32.6211 51.9769 32.744C52.2283 32.9959 52.4792 33.2481 52.7298 33.5008C53.1152 33.8891 53.5019 34.2762 53.8888 34.663C54.1326 34.9076 54.3763 35.1523 54.62 35.3971C54.7945 35.5719 54.7945 35.5719 54.9726 35.7503C55.0789 35.8576 55.1852 35.965 55.2947 36.0755C55.3889 36.1704 55.4831 36.2652 55.5801 36.3629C55.7812 36.5859 55.7812 36.5859 55.7812 36.75C55.6112 36.7542 55.4412 36.7585 55.266 36.7628C55.0413 36.7721 54.8165 36.7815 54.5918 36.791C54.4799 36.7933 54.368 36.7957 54.2528 36.7981C53.7482 36.8226 53.3858 36.8711 52.9601 37.1506C52.5112 37.787 52.5703 38.3743 52.5745 39.1358C52.5728 39.2943 52.5711 39.4528 52.5694 39.6161C52.5645 40.1399 52.5643 40.6636 52.5641 41.1874C52.5616 41.5506 52.5589 41.9138 52.5559 42.277C52.5487 43.2329 52.5454 44.1887 52.5429 45.1446C52.5397 46.1201 52.5329 47.0955 52.5263 48.071C52.5139 49.9848 52.506 51.8986 52.5 53.8125C50.7675 53.8125 49.035 53.8125 47.25 53.8125C47.2467 53.3231 47.2435 52.8336 47.2401 52.3293C47.2292 50.7145 47.2164 49.0997 47.2028 47.4848C47.1946 46.5055 47.187 45.5262 47.1808 44.5469C47.1747 43.6022 47.1671 42.6576 47.1584 41.713C47.1554 41.3521 47.1529 40.9912 47.151 40.6303C47.1483 40.1259 47.1435 39.6216 47.1382 39.1172C47.1379 38.9671 47.1375 38.817 47.1372 38.6623C47.1353 38.525 47.1335 38.3876 47.1316 38.2461C47.1307 38.1268 47.1298 38.0075 47.1289 37.8845C47.1019 37.5166 47.1019 37.5166 46.7578 37.0781C46.189 36.8885 45.6846 36.8602 45.0864 36.8218C44.8777 36.808 44.669 36.7943 44.4539 36.7801C44.2938 36.7702 44.1337 36.7602 43.9688 36.75C44.6436 35.9453 45.3445 35.1878 46.09 34.4486C46.1942 34.3447 46.2985 34.2407 46.4058 34.1335C46.7347 33.8056 47.0641 33.4782 47.3936 33.1509C47.6183 32.9269 47.8431 32.703 48.0677 32.4789C48.615 31.9334 49.1628 31.3885 49.7109 30.8438Z" fill="#F1F1F1"/>
<path d="M30.1875 14.4375C38.85 14.4375 47.5125 14.4375 56.4375 14.4375C56.4375 15.3038 56.4375 16.17 56.4375 17.0625C47.775 17.0625 39.1125 17.0625 30.1875 17.0625C30.1875 16.1962 30.1875 15.33 30.1875 14.4375Z" fill="black"/>
<path d="M6.5625 74.8125C12.6262 74.8125 18.69 74.8125 24.9375 74.8125C24.9375 75.6788 24.9375 76.545 24.9375 77.4375C18.8737 77.4375 12.81 77.4375 6.5625 77.4375C6.5625 76.5712 6.5625 75.705 6.5625 74.8125Z" fill="black"/>
<path d="M63.4922 31.8281C65.873 34.0478 66.8222 37.9417 67.0003 41.0919C67.1584 45.9274 65.5078 50.2546 62.2252 53.8093C59.3785 56.811 55.2782 58.9517 51.0858 59.0752C50.0805 59.0892 49.0756 59.081 48.0703 59.0625C48.0703 59.0084 48.0703 58.9542 48.0703 58.8984C48.3742 58.88 48.3742 58.88 48.6843 58.8613C52.5054 58.5838 55.9397 57.2568 58.8984 54.7969C59.0397 54.6806 59.181 54.5642 59.3265 54.4444C61.7417 52.3667 63.477 49.7749 64.4766 46.7578C64.537 46.5804 64.5975 46.4029 64.6599 46.2201C66.1128 41.7607 65.7318 36.8681 63.6428 32.6709C63.4922 32.3203 63.4922 32.3203 63.4922 31.8281Z" fill="#53982C"/>
<path d="M61.6875 5.90625C62.3703 6.49151 63.0134 7.04746 63.644 7.67749C63.8656 7.8983 63.8656 7.8983 64.0917 8.12357C64.2488 8.28102 64.406 8.43849 64.5631 8.59598C64.7269 8.75973 64.8908 8.92345 65.0547 9.08715C65.3957 9.42789 65.7364 9.76891 66.0769 10.1102C66.5142 10.5484 66.9522 10.9859 67.3905 11.4232C67.7278 11.7599 68.0648 12.0971 68.4017 12.4344C68.5632 12.596 68.7248 12.7575 68.8866 12.9189C69.1112 13.1431 69.3352 13.3679 69.5593 13.5927C69.6869 13.7205 69.8146 13.8484 69.9462 13.9801C70.2188 14.2734 70.2188 14.2734 70.2188 14.4375C67.4034 14.4375 64.5881 14.4375 61.6875 14.4375C61.6875 11.6222 61.6875 8.80687 61.6875 5.90625Z" fill="#C7CCEC"/>
<path d="M35.4375 9.1875C39.7687 9.1875 44.1 9.1875 48.5625 9.1875C48.5625 10.0538 48.5625 10.92 48.5625 11.8125C44.2312 11.8125 39.9 11.8125 35.4375 11.8125C35.4375 10.9462 35.4375 10.08 35.4375 9.1875Z" fill="black"/>
<path d="M51.1875 9.1875C52.92 9.1875 54.6525 9.1875 56.4375 9.1875C56.4375 10.0538 56.4375 10.92 56.4375 11.8125C54.705 11.8125 52.9725 11.8125 51.1875 11.8125C51.1875 10.9462 51.1875 10.08 51.1875 9.1875Z" fill="black"/>
<path d="M27.5625 74.8125C28.4288 74.8125 29.295 74.8125 30.1875 74.8125C30.1875 75.6788 30.1875 76.545 30.1875 77.4375C29.3212 77.4375 28.455 77.4375 27.5625 77.4375C27.5625 76.5712 27.5625 75.705 27.5625 74.8125Z" fill="black"/>
</svg>
