<svg width="84" height="84" viewBox="0 0 84 84" fill="none" xmlns="http://www.w3.org/2000/svg">
<g clip-path="url(#clip0_108_234)">
<path d="M4.10237 -0.0610901C4.28947 -0.063312 4.28947 -0.063312 4.48036 -0.0655787C4.74303 -0.0679504 5.00571 -0.0694141 5.26839 -0.0700222C5.66997 -0.0719819 6.07113 -0.0800643 6.47262 -0.088327C6.72843 -0.0898791 6.98425 -0.0910664 7.24006 -0.0918518C7.35971 -0.0950564 7.47935 -0.0982609 7.60262 -0.101562C8.23178 -0.0959744 8.48058 -0.0493665 8.94025 0.395169C9.18766 0.820105 9.18766 0.820105 9.18766 1.14823C10.2163 1.14823 11.245 1.14823 12.3049 1.14823C12.359 0.931668 12.4131 0.715105 12.4689 0.49198C12.6551 0.20877 12.6551 0.20877 12.9611 -0.000207536C13.4583 -0.0620916 13.4583 -0.0620916 14.0839 -0.0626033C14.257 -0.06375 14.257 -0.06375 14.4336 -0.06492C14.8233 -0.0668925 15.2128 -0.0653345 15.6025 -0.0638113C15.8835 -0.0644954 16.1645 -0.0653937 16.4455 -0.0664888C17.22 -0.0688711 17.9945 -0.0681604 18.769 -0.0669536C19.6035 -0.0661803 20.4379 -0.068227 21.2723 -0.0699096C22.9081 -0.0727366 24.5439 -0.0728658 26.1797 -0.0720075C27.5092 -0.0713453 28.8387 -0.07158 30.1681 -0.0724583C30.3571 -0.0725811 30.5461 -0.0727039 30.7408 -0.0728304C31.1246 -0.0730817 31.5085 -0.0733341 31.8924 -0.0735876C35.4957 -0.075842 39.099 -0.0749454 42.7023 -0.073065C45.9998 -0.0714361 49.2972 -0.073557 52.5947 -0.0774839C55.9785 -0.0814833 59.3623 -0.0830623 62.7461 -0.0819705C64.6467 -0.081397 66.5472 -0.0817679 68.4478 -0.0846367C70.0661 -0.0870493 71.6845 -0.08716 73.3028 -0.084297C74.1287 -0.0828979 74.9545 -0.0825551 75.7804 -0.0850601C76.5365 -0.0873251 77.2925 -0.0865591 78.0486 -0.0833802C78.3221 -0.0827612 78.5956 -0.0832489 78.8691 -0.0849572C81.6595 -0.101148 81.6595 -0.101147 82.8915 0.9784C82.9799 1.0852 83.0683 1.192 83.1593 1.30204C83.2503 1.40842 83.3412 1.51479 83.4349 1.6244C83.983 2.41981 84.0482 3.15191 84.0451 4.09724C84.046 4.22809 84.0469 4.35895 84.0477 4.49377C84.0502 4.93178 84.0503 5.36977 84.0504 5.80779C84.0517 6.12206 84.0531 6.43632 84.0546 6.75059C84.0582 7.60415 84.0596 8.45771 84.0604 9.31129C84.0611 9.84487 84.0621 10.3784 84.0632 10.912C84.0673 12.7744 84.0694 14.6368 84.07 16.4993C84.0706 18.2337 84.0755 19.9681 84.0824 21.7025C84.0881 23.1927 84.0906 24.6828 84.0907 26.173C84.0908 27.0625 84.0923 27.952 84.0969 28.8415C84.1012 29.6787 84.1016 30.5159 84.099 31.3531C84.0987 31.6595 84.0997 31.966 84.1024 32.2725C84.1272 35.3716 84.1272 35.3716 83.1798 36.5857C81.756 37.958 80.296 37.946 78.4048 37.9355C78.1702 37.9354 77.9357 37.9354 77.7011 37.9356C77.067 37.9357 76.4329 37.9338 75.7988 37.9315C75.1351 37.9294 74.4714 37.9293 73.8078 37.9289C72.5522 37.9279 71.2966 37.9252 70.041 37.9219C68.611 37.9182 67.1811 37.9164 65.7511 37.9147C62.8107 37.9113 59.8703 37.9053 56.9299 37.8982C56.9299 40.8218 56.9299 43.7454 56.9299 46.7576C57.8232 46.4328 57.8232 46.4328 58.7345 46.1014C60.7407 45.919 62.2246 46.5598 63.8205 47.742C63.8943 47.6785 63.9681 47.6151 64.0441 47.5497C65.2566 46.5681 66.5902 45.9717 68.1726 46.0494C69.9454 46.2763 71.196 47.0673 72.321 48.4399C72.5923 48.8388 72.7302 49.2446 72.8439 49.7107C72.931 49.6653 73.0182 49.6198 73.1079 49.5729C73.2238 49.5135 73.3397 49.4541 73.4591 49.3929C73.5733 49.3339 73.6876 49.2749 73.8052 49.2141C75.061 48.6434 76.7102 48.6813 77.9914 49.1468C79.3352 49.7768 80.3937 50.838 81.047 52.1717C81.3227 53.1113 81.424 53.9488 81.4228 54.9246C81.4239 55.0622 81.425 55.1998 81.4262 55.3416C81.4293 55.7929 81.4299 56.2442 81.4303 56.6956C81.4313 57.0123 81.4324 57.329 81.4336 57.6457C81.4355 58.3086 81.4362 58.9715 81.436 59.6344C81.4359 60.4787 81.4404 61.323 81.4461 62.1673C81.4497 62.8214 81.4504 63.4754 81.4502 64.1295C81.4506 64.4405 81.452 64.7515 81.4546 65.0625C81.4742 67.7004 81.2364 69.798 79.4064 71.8592C78.9918 72.2636 78.5655 72.65 78.1323 73.0345C76.5276 74.4077 76.5276 74.4077 75.8639 76.3237C75.8703 76.8088 75.8974 77.2883 75.9426 77.7713C76.0305 79.3023 75.235 80.7046 74.3205 81.867C73.3137 82.9719 71.8624 83.9327 70.333 84.0218C70.1932 84.0225 70.0534 84.0232 69.9094 84.0239C69.7482 84.0251 69.587 84.0263 69.4209 84.0275C69.1572 84.0282 69.1572 84.0282 68.8881 84.0288C68.6091 84.0305 68.6091 84.0305 68.3244 84.0321C67.7081 84.0353 67.0919 84.0373 66.4756 84.0389C66.1595 84.0399 66.1595 84.0399 65.837 84.0409C64.8362 84.044 63.8354 84.0464 62.8346 84.0477C61.683 84.0493 60.5316 84.0537 59.3801 84.0603C58.3799 84.0659 57.3797 84.0678 56.3795 84.0685C55.9556 84.0693 55.5317 84.0712 55.1078 84.0742C54.5129 84.0782 53.9182 84.078 53.3233 84.0769C53.1498 84.079 52.9763 84.0811 52.7975 84.0833C50.9348 84.0704 49.421 83.4869 48.0705 82.1951C46.7171 80.7533 46.2015 79.2855 46.0929 77.3415C45.9453 75.4409 44.7911 74.2092 43.4808 72.945C43.1993 72.6734 42.9206 72.3993 42.6424 72.1245C42.0512 71.5415 41.4567 70.962 40.862 70.3826C40.1725 69.7103 39.4845 69.0366 38.799 68.3602C38.5265 68.0925 38.252 67.827 37.9773 67.5615C36.4462 66.0648 35.3031 64.5981 35.2121 62.3846C35.2519 60.7047 35.8149 59.4681 36.9918 58.2702C38.3099 57.1375 39.6668 56.9426 41.3497 57.025C42.181 57.1126 42.7821 57.291 43.4767 57.7498C43.5886 57.8232 43.7005 57.8966 43.8157 57.9722C44.3909 58.3793 44.8885 58.8284 45.3852 59.3274C45.4886 59.4313 45.5921 59.5351 45.6987 59.6421C45.7775 59.7215 45.8564 59.8008 45.9377 59.8826C45.9386 59.7118 45.9396 59.5409 45.9406 59.3649C45.95 57.7548 45.9619 56.1447 45.9763 54.5346C45.9837 53.7068 45.9901 52.879 45.9945 52.0512C45.9988 51.2523 46.0054 50.4535 46.0137 49.6546C46.0164 49.3498 46.0183 49.0451 46.0193 48.7403C46.0209 48.3133 46.0255 47.8865 46.0308 47.4596C46.0306 47.3336 46.0303 47.2077 46.0301 47.078C46.0429 46.3495 46.1068 45.839 46.5939 45.281C46.8646 45.2269 47.1353 45.1728 47.4142 45.117C47.4142 44.0883 47.4142 43.0596 47.4142 41.9998C47.1435 41.9457 46.8728 41.8915 46.5939 41.8357C46.2484 41.4959 46.1173 41.2839 46.0458 40.8038C46.0484 40.6697 46.051 40.5357 46.0537 40.3976C46.0552 40.2517 46.0568 40.1058 46.0585 39.9554C46.0626 39.8044 46.0667 39.6534 46.071 39.4978C46.0732 39.3443 46.0754 39.1908 46.0777 39.0326C46.0835 38.6544 46.0916 38.2763 46.1017 37.8982C46.0117 37.8984 45.9216 37.8986 45.8289 37.8988C40.4899 37.9098 35.1509 37.9183 29.812 37.9234C29.1707 37.924 28.5293 37.9246 27.888 37.9253C27.7604 37.9254 27.6327 37.9255 27.5011 37.9257C25.4349 37.9278 23.3688 37.9317 21.3026 37.9362C19.1818 37.9408 17.0611 37.9435 14.9404 37.9445C13.6322 37.9452 12.3241 37.9473 11.0159 37.9513C10.0121 37.9543 9.00834 37.9546 8.00457 37.9539C7.59327 37.954 7.18197 37.955 6.77067 37.9569C6.20862 37.9594 5.64665 37.9588 5.0846 37.9574C4.92229 37.9589 4.75998 37.9603 4.59275 37.9618C3.34902 37.9538 2.32121 37.7437 1.27165 37.0574C-0.179693 35.5401 -0.116865 33.9881 -0.103375 31.9955C-0.104219 31.679 -0.105414 31.3624 -0.106932 31.0459C-0.109963 30.1894 -0.107852 29.3328 -0.104621 28.4763C-0.101927 27.5785 -0.103379 26.6807 -0.104214 25.7829C-0.104955 24.2757 -0.102356 22.7684 -0.0977675 21.2611C-0.0925078 19.52 -0.0925123 17.7789 -0.0953417 16.0377C-0.0979466 14.3606 -0.0968388 12.6836 -0.0940397 11.0065C-0.0929138 10.2937 -0.0930804 9.58089 -0.0942931 8.86808C-0.0955523 8.02844 -0.0935542 7.18886 -0.0890679 6.34923C-0.0879405 6.04157 -0.0879203 5.7339 -0.0891033 5.42624C-0.0905349 5.00534 -0.0879034 4.58464 -0.0842717 4.16376C-0.0856237 4.04283 -0.0869759 3.9219 -0.0883688 3.79731C-0.0716645 2.74403 0.283993 1.90135 0.978772 1.1085C1.08557 1.02009 1.19237 0.931693 1.30241 0.840613C1.40879 0.749674 1.51517 0.658734 1.62477 0.565039C2.41692 0.0192376 3.15985 -0.0541398 4.10237 -0.0610901Z" fill="#020201"/>
<path d="M4.58915 10.5607C4.78631 10.5589 4.78631 10.5589 4.98746 10.5571C5.42975 10.5541 5.8718 10.5569 6.31409 10.5597C6.63362 10.5588 6.95316 10.5575 7.2727 10.5559C8.15219 10.5524 9.03162 10.5541 9.91111 10.5567C10.859 10.5585 11.807 10.5557 12.7549 10.5534C14.6124 10.5497 16.47 10.5505 18.3275 10.5529C19.8368 10.5548 21.3461 10.555 22.8554 10.5541C23.0699 10.554 23.2845 10.5539 23.5056 10.5537C23.9414 10.5535 24.3773 10.5532 24.8131 10.5529C28.7863 10.5506 32.7594 10.553 36.7326 10.5573C40.3607 10.5612 43.9888 10.5609 47.6169 10.557C51.6918 10.5526 55.7667 10.5508 59.8416 10.5534C60.2758 10.5536 60.7101 10.5539 61.1444 10.5541C61.4649 10.5543 61.4649 10.5543 61.7919 10.5545C63.2999 10.5552 64.8079 10.554 66.3159 10.5521C68.1529 10.5498 69.9898 10.5504 71.8268 10.5548C72.7646 10.5569 73.7023 10.5578 74.6401 10.5551C75.4979 10.5526 76.3556 10.554 77.2133 10.5583C77.5243 10.5593 77.8354 10.5588 78.1463 10.5568C78.5679 10.5543 78.9891 10.5568 79.4106 10.5607C79.5325 10.5587 79.6543 10.5568 79.7799 10.5548C80.4216 10.5666 80.6963 10.6461 81.2041 11.0521C81.5995 11.5624 81.6419 11.8031 81.6431 12.442C81.6454 12.6336 81.6477 12.8252 81.6501 13.0226C81.6476 13.3357 81.6476 13.3357 81.6451 13.6551C81.6462 13.8783 81.6477 14.1015 81.6494 14.3247C81.6532 14.9298 81.6517 15.5348 81.6491 16.1399C81.647 16.7738 81.649 17.4076 81.6503 18.0415C81.6518 19.1061 81.6498 20.1706 81.6459 21.2352C81.6414 22.465 81.6429 23.6946 81.6474 24.9243C81.6511 25.981 81.6516 27.0377 81.6495 28.0944C81.6482 28.7252 81.648 29.3558 81.6507 29.9866C81.6531 30.5798 81.6515 31.1729 81.6467 31.7661C81.6451 32.0868 81.6476 32.4076 81.6501 32.7283C81.6312 34.3006 81.6312 34.3006 81.1427 34.9078C80.529 35.4367 80.2351 35.459 79.437 35.467C79.1323 35.4705 79.1323 35.4705 78.8215 35.4742C78.5952 35.4759 78.3689 35.4777 78.1425 35.4794C77.9051 35.4818 77.6677 35.4842 77.4303 35.4867C75.2621 35.508 73.0937 35.5188 70.9254 35.5273C69.3226 35.5337 67.7199 35.5449 66.1172 35.5625C64.9903 35.5745 63.8634 35.5808 62.7364 35.5829C62.0633 35.5844 61.3905 35.5884 60.7174 35.5985C60.0838 35.6079 59.4504 35.6103 58.8167 35.6073C58.5846 35.6075 58.3525 35.6102 58.1205 35.6156C56.3625 35.6544 56.3625 35.6544 55.7322 35.1141C55.4289 34.7185 55.4289 34.7185 55.1934 34.3249C54.7116 33.5706 53.92 33.2502 53.1151 32.9251C51.5562 32.6393 50.1451 32.7223 48.7264 33.4686C48.1317 33.893 47.5914 34.3378 47.1971 34.9583C46.9218 35.2733 46.9218 35.2733 46.5816 35.3555C46.4495 35.3556 46.3175 35.3557 46.1815 35.3559C46.0289 35.3576 45.8763 35.3593 45.7191 35.361C45.5511 35.3596 45.3832 35.3581 45.2102 35.3566C45.0321 35.3576 44.8539 35.3587 44.6703 35.3597C44.0703 35.3623 43.4703 35.3603 42.8702 35.3582C42.4413 35.3591 42.0123 35.3602 41.5833 35.3617C40.5373 35.3646 39.4913 35.364 38.4453 35.3621C37.5953 35.3606 36.7453 35.3604 35.8952 35.3611C35.7139 35.3612 35.7139 35.3612 35.529 35.3614C35.2835 35.3616 35.038 35.3618 34.7924 35.362C32.4887 35.3639 30.185 35.3618 27.8813 35.3582C25.9038 35.3553 23.9264 35.3558 21.9489 35.3588C19.6538 35.3623 17.3587 35.3637 15.0636 35.3617C14.819 35.3615 14.5743 35.3613 14.3296 35.3611C14.2092 35.361 14.0888 35.3609 13.9648 35.3608C13.1157 35.3602 12.2666 35.3612 11.4175 35.3627C10.2749 35.3647 9.13238 35.3633 7.98978 35.3595C7.56967 35.3586 7.14956 35.3589 6.72945 35.3603C6.15741 35.3621 5.58553 35.3599 5.0135 35.3566C4.84595 35.3581 4.67839 35.3595 4.50576 35.361C3.3836 35.3485 3.3836 35.3485 2.85499 34.9604C2.47533 34.3938 2.4393 34.0698 2.43557 33.3892C2.43416 33.1981 2.43275 33.0069 2.43129 32.81C2.4306 32.5992 2.4299 32.3884 2.42918 32.1713C2.42788 31.9479 2.42652 31.7245 2.42511 31.5011C2.42081 30.7665 2.4183 30.0318 2.41596 29.2972C2.41508 29.0444 2.4142 28.7916 2.41331 28.5388C2.40976 27.4873 2.40669 26.4358 2.40484 25.3844C2.40218 23.8769 2.39673 22.3695 2.38739 20.8621C2.38104 19.8025 2.37783 18.7429 2.37696 17.6833C2.37637 17.0502 2.37439 16.4173 2.36907 15.7842C2.36414 15.1886 2.3631 14.5931 2.36503 13.9974C2.36509 13.6749 2.36107 13.3524 2.35693 13.0298C2.3583 12.8373 2.35966 12.6448 2.36107 12.4464C2.36053 12.2794 2.35998 12.1124 2.35942 11.9404C2.62356 10.7521 3.50683 10.5436 4.58915 10.5607Z" fill="#6AC03A"/>
<path d="M52.8589 35.354C53.588 35.7794 53.9752 36.3032 54.3047 37.0766C54.4158 37.7022 54.4132 38.313 54.4051 38.9471C54.406 39.1303 54.4069 39.3135 54.4079 39.5022C54.4101 40.1045 54.4067 40.7066 54.4034 41.3089C54.4043 41.7285 54.4056 42.148 54.4074 42.5676C54.4111 43.6699 54.4104 44.7722 54.4084 45.8746C54.4051 47.6413 54.407 49.408 54.4126 51.1747C54.4136 51.792 54.4114 52.4092 54.409 53.0265C54.4095 53.4037 54.4101 53.781 54.4108 54.1582C54.4093 54.3302 54.4078 54.5022 54.4062 54.6794C54.4071 54.8371 54.408 54.9949 54.4089 55.1574C54.4084 55.3627 54.4084 55.3627 54.4079 55.5721C54.4844 56.0391 54.6308 56.2637 54.9609 56.6C55.709 56.6979 55.709 56.6979 56.3876 56.4217C56.7148 55.9418 56.6621 55.5269 56.6624 54.9517C56.6653 54.7193 56.6682 54.4869 56.6711 54.2545C56.6727 53.8898 56.6733 53.5252 56.6731 53.1605C56.6737 52.8073 56.6782 52.4543 56.683 52.1011C56.6833 51.8903 56.6836 51.6795 56.6839 51.4624C56.7959 50.6338 57.1113 50.0408 57.6898 49.4236C58.6587 48.688 59.3273 48.5828 60.5391 48.725C61.34 49.0203 62.005 49.5316 62.3982 50.3061C62.6085 51.0501 62.6069 51.8242 62.627 52.5927C62.6681 53.1074 62.6957 53.3995 63 53.811C63.5525 54.0032 63.5525 54.0032 64.1484 53.975C64.5355 53.7379 64.5355 53.7379 64.8047 53.3188C64.8576 52.8782 64.8795 52.4868 64.8765 52.0473C64.9163 50.6469 65.2171 49.926 66.2197 48.9711C67.1819 48.5435 68.1402 48.5791 69.1318 48.9096C69.8346 49.4116 70.395 50.0438 70.7109 50.8579C70.7432 51.2553 70.7578 51.6543 70.7616 52.0531C70.7657 52.288 70.7699 52.5228 70.7741 52.7577C70.7788 53.1264 70.7827 53.495 70.7858 53.8637C70.7893 54.2207 70.7958 54.5775 70.8026 54.9344C70.8059 55.2542 70.8059 55.2542 70.8093 55.5805C70.8321 56.0989 70.8321 56.0989 71.0955 56.4228C71.5304 56.7065 71.8466 56.6722 72.3516 56.6C72.7312 56.3575 72.7312 56.3575 73.0078 55.9438C73.0787 55.3872 73.091 54.8653 73.0879 54.3064C73.1083 53.3217 73.4126 52.7621 74.0902 52.0646C74.8922 51.4252 75.4284 51.2661 76.4531 51.35C77.4223 51.6719 77.9973 52.1701 78.5859 52.9907C78.8497 53.5181 78.7771 54.0934 78.779 54.673C78.7801 54.8131 78.7812 54.9532 78.7823 55.0975C78.7855 55.5627 78.7875 56.0278 78.7891 56.493C78.7898 56.652 78.7904 56.8109 78.7911 56.9747C78.7945 57.8168 78.7969 58.6588 78.7984 59.5009C78.8002 60.3689 78.8059 61.2367 78.8124 62.1047C78.8167 62.7734 78.8181 63.4421 78.8187 64.1108C78.8195 64.4306 78.8214 64.7504 78.8244 65.0701C78.8284 65.5193 78.8282 65.9683 78.8271 66.4176C78.8303 66.6136 78.8303 66.6136 78.8335 66.8137C78.8226 67.9972 78.4554 68.9591 77.7009 69.8724C77.5584 70.0065 77.4158 70.1406 77.269 70.2788C77.1917 70.3533 77.1145 70.4278 77.0349 70.5046C76.7916 70.739 76.5458 70.9706 76.2993 71.2016C74.3502 72.9433 74.3502 72.9433 73.4793 75.3212C73.4785 75.4525 73.4777 75.5838 73.4769 75.7191C73.4166 79.1816 73.4166 79.1816 72.1676 80.4006C70.9364 81.4264 69.8588 81.5868 68.2973 81.5878C68.1221 81.5892 67.947 81.5905 67.7666 81.5919C67.1886 81.5959 66.6106 81.5973 66.0326 81.5984C65.6296 81.5999 65.2267 81.6014 64.8237 81.6029C63.9791 81.6056 63.1346 81.6069 62.29 81.6074C61.2102 81.6082 60.1305 81.6144 59.0507 81.6219C58.2183 81.6268 57.386 81.628 56.5536 81.6282C56.1556 81.6288 55.7577 81.6309 55.3597 81.6343C54.8018 81.6387 54.2441 81.6379 53.6861 81.6359C53.4418 81.6395 53.4418 81.6395 53.1926 81.6433C51.9251 81.6301 50.8493 81.294 49.8891 80.4369C48.7827 79.2721 48.6704 77.9206 48.4837 76.3901C48.21 74.4805 47.2202 72.747 45.7017 71.54C45.3212 71.2337 45.042 70.9363 44.7275 70.5659C44.2588 70.0137 43.7639 69.5534 43.1952 69.106C43.1256 69.0396 43.0561 68.9732 42.9844 68.9047C42.9844 68.7965 42.9844 68.6882 42.9844 68.5766C42.8761 68.5766 42.7678 68.5766 42.6563 68.5766C42.6563 68.4683 42.6563 68.36 42.6563 68.2485C42.548 68.2485 42.4397 68.2485 42.3281 68.2485C41.546 67.5426 41.546 67.5426 41.3438 66.936C41.0156 66.7377 41.0156 66.7377 40.6875 66.6079C40.6875 66.4996 40.6875 66.3913 40.6875 66.2797C40.5792 66.2797 40.4709 66.2797 40.3594 66.2797C40.0928 66.0541 40.0928 66.0541 39.8672 65.7875C39.8672 65.6793 39.8672 65.571 39.8672 65.4594C39.7589 65.4594 39.6506 65.4594 39.5391 65.4594C39.2731 65.2011 39.2731 65.2011 38.9751 64.8544C38.8772 64.7421 38.7793 64.6298 38.6784 64.5141C37.9586 63.5956 37.8095 62.9899 37.8408 61.8302C37.9453 60.974 38.3562 60.5526 38.9751 59.9941C39.5105 59.6234 39.9369 59.5254 40.5747 59.5122C40.7565 59.5058 40.7565 59.5058 40.9419 59.4993C42.1158 59.6566 42.8999 60.5084 43.7155 61.2898C43.9945 61.5455 44.2855 61.7816 44.5795 62.0199C46.2723 63.4575 46.2723 63.4575 46.4367 64.6423C46.4749 65.1937 46.4669 65.735 46.4425 66.2868C46.3677 66.9445 46.3677 66.9445 46.7578 67.4282C47.4259 67.5152 47.4259 67.5152 48.0703 67.4282C48.538 66.9299 48.6243 66.5875 48.6261 65.9126C48.6277 65.7387 48.6294 65.5649 48.631 65.3857C48.6303 65.1958 48.6296 65.0059 48.6288 64.8102C48.6299 64.6096 48.631 64.4089 48.6322 64.2021C48.6347 63.6523 48.635 63.1026 48.634 62.5527C48.6335 62.0936 48.6345 61.6345 48.6355 61.1754C48.6378 60.0925 48.6376 59.0095 48.6357 57.9265C48.6338 56.8093 48.6361 55.6921 48.6405 54.5749C48.6441 53.6154 48.6452 52.656 48.6443 51.6965C48.6437 51.1236 48.6441 50.5507 48.6469 49.9777C48.6499 49.339 48.6476 48.7004 48.6448 48.0617C48.6464 47.8718 48.648 47.6819 48.6496 47.4863C48.648 47.3124 48.6464 47.1385 48.6447 46.9593C48.6447 46.8083 48.6447 46.6574 48.6446 46.5018C48.5364 45.9721 48.3222 45.7786 47.9063 45.4438C47.7438 45.3897 47.5814 45.3355 47.4141 45.2797C47.3854 44.7466 47.368 44.2137 47.3525 43.6801C47.3443 43.5291 47.336 43.3781 47.3275 43.2225C47.3182 42.7934 47.3204 42.4177 47.4141 41.9985C47.8998 41.5858 47.8998 41.5858 48.3984 41.3422C48.6111 40.917 48.5805 40.6067 48.5798 40.131C48.5822 39.9529 48.5847 39.7748 48.5872 39.5914C48.5912 39.2176 48.5921 38.8437 48.5897 38.4699C48.611 37.3758 48.7308 36.6903 49.4462 35.8449C50.4143 34.9494 51.6871 34.8584 52.8589 35.354Z" fill="#FECCBD"/>
<path d="M9.1875 1.14844C10.2162 1.14844 11.2448 1.14844 12.3047 1.14844C12.413 1.47328 12.5212 1.79813 12.6328 2.13281C13.1993 2.32163 13.636 2.31775 14.2338 2.31825C14.3477 2.31857 14.4616 2.31889 14.5789 2.31922C14.9634 2.32009 15.3479 2.3198 15.7323 2.31952C16.0096 2.31992 16.2869 2.32039 16.5642 2.32092C17.3285 2.3222 18.0927 2.32246 18.8569 2.32257C19.6803 2.32287 20.5036 2.32412 21.327 2.32528C22.7544 2.32717 24.1819 2.32852 25.6093 2.32956C27.8645 2.33125 30.1197 2.33463 32.3749 2.33828C33.146 2.3395 33.9171 2.34072 34.6882 2.34193C34.8809 2.34224 35.0736 2.34254 35.2722 2.34285C37.4668 2.34629 39.6614 2.34938 41.856 2.35231C42.0567 2.35258 42.2574 2.35285 42.4641 2.35312C45.7174 2.35744 48.9706 2.3605 52.2239 2.36324C55.5615 2.36609 58.8991 2.37082 62.2368 2.37716C64.2968 2.38101 66.3569 2.3833 68.417 2.38361C69.8281 2.38396 71.2392 2.38608 72.6503 2.3896C73.4651 2.39158 74.2799 2.39274 75.0948 2.39178C75.8402 2.39091 76.5856 2.39229 77.331 2.39548C77.6012 2.39623 77.8714 2.39615 78.1415 2.39516C78.5079 2.39394 78.8742 2.39572 79.2405 2.39827C79.4443 2.39849 79.6481 2.39872 79.858 2.39895C80.4422 2.46694 80.7457 2.59917 81.2109 2.95312C82.2138 4.45747 81.5391 6.55919 81.5391 8.36719C55.4433 8.36719 29.3475 8.36719 2.46094 8.36719C2.46094 3.44531 2.46094 3.44531 3.11719 2.625C3.57897 2.39411 3.97918 2.42805 4.49506 2.41479C4.7057 2.40866 4.91634 2.40253 5.13336 2.39621C5.35681 2.39036 5.58026 2.38459 5.80371 2.37891C6.23911 2.36777 6.67444 2.35567 7.1098 2.34302C7.3036 2.33805 7.4974 2.33308 7.69708 2.32796C8.30153 2.31403 8.30153 2.31403 8.85938 2.13281C8.96766 1.80797 9.07594 1.48313 9.1875 1.14844Z" fill="#53992B"/>
<path d="M56.4377 16.407C57.3284 17.0854 57.4577 17.7838 57.6439 18.8301C57.6743 18.9866 57.7047 19.1431 57.7361 19.3043C57.8327 19.8043 57.9248 20.305 58.0168 20.8059C58.0798 21.1357 58.143 21.4654 58.2065 21.7951C58.3586 22.5876 58.5066 23.3807 58.6534 24.1742C58.7296 24.5831 58.8075 24.9916 58.8864 25.4C58.9093 25.5197 58.9323 25.6393 58.956 25.7625C59.0162 26.0759 59.0768 26.3892 59.1374 26.7025C59.4435 28.5256 59.4435 28.5256 58.9602 29.3064C58.4509 29.6012 58.1659 29.6286 57.5862 29.532C56.6118 28.8553 56.5538 27.561 56.3544 26.4667C56.3224 26.2943 56.3224 26.2943 56.2896 26.1185C56.2223 25.7559 56.1557 25.3932 56.0891 25.0305C56.0432 24.7828 55.9973 24.5351 55.9513 24.2874C55.8394 23.6841 55.7282 23.0807 55.6174 22.4773C55.4735 22.9283 55.3301 23.3795 55.1868 23.8308C55.1426 23.9692 55.0984 24.1077 55.0529 24.2503C54.815 25.0004 54.5858 25.7517 54.3716 26.509C54.3294 26.6562 54.2872 26.8035 54.2438 26.9552C54.1629 27.2393 54.0838 27.524 54.0065 27.8092C53.7969 28.5405 53.6304 29.063 52.9924 29.532C52.4285 29.696 52.4285 29.696 51.844 29.696C51.0773 29.226 50.8729 28.7838 50.634 27.9324C50.6022 27.8222 50.5703 27.712 50.5375 27.5985C50.4655 27.3488 50.3947 27.0987 50.3251 26.8483C50.1861 26.3531 50.0415 25.8597 49.8964 25.3663C49.6134 24.404 49.3334 23.4409 49.0549 22.4773C48.6632 24.0348 48.3907 25.5944 48.1582 27.1832C48.1327 27.3475 48.1071 27.5118 48.0808 27.6811C48.059 27.8282 48.0372 27.9753 48.0148 28.1269C47.8901 28.6114 47.7 28.9587 47.4143 29.3679C46.9482 29.6009 46.6178 29.5836 46.1018 29.532C45.7122 29.3166 45.7122 29.3166 45.4456 28.8757C45.3229 27.6387 45.5173 26.4397 45.757 25.2298C45.789 25.0615 45.821 24.8931 45.854 24.7197C45.9555 24.1872 46.0594 23.6553 46.1633 23.1233C46.2318 22.766 46.3002 22.4087 46.3684 22.0514C46.5228 21.2452 46.678 20.4391 46.8364 19.6337C46.8948 19.3356 46.9521 19.0372 47.0085 18.7387C47.0364 18.5934 47.0643 18.4482 47.093 18.2985C47.1296 18.1049 47.1296 18.1049 47.1669 17.9074C47.2838 17.4138 47.4774 17.0017 47.7424 16.571C48.2605 16.312 48.8263 16.2726 49.3831 16.407C50.0919 17.0001 50.3854 17.5676 50.6251 18.4398C50.6762 18.6131 50.6762 18.6131 50.7284 18.7898C50.8361 19.157 50.9403 19.525 51.0442 19.8933C51.1501 20.2589 51.2568 20.6243 51.3635 20.9897C51.4294 21.2162 51.4946 21.4428 51.5591 21.6696C51.7945 22.494 52.06 23.3064 52.3362 24.1179C52.3915 23.9135 52.4469 23.709 52.5039 23.4984C52.7106 22.7378 52.9209 21.9783 53.1323 21.219C53.2231 20.8906 53.313 20.562 53.4019 20.2332C53.5301 19.7596 53.6618 19.2871 53.7942 18.8147C53.833 18.6682 53.8718 18.5217 53.9118 18.3708C54.1572 17.5112 54.4061 16.9862 55.1252 16.407C55.619 16.1601 55.9118 16.2626 56.4377 16.407Z" fill="#020400"/>
<path d="M35.0807 16.1321C35.2631 16.1311 35.4455 16.13 35.6334 16.1289C35.8226 16.1321 36.0118 16.1353 36.2067 16.1385C36.3927 16.1353 36.5787 16.1322 36.7703 16.1289C38.1506 16.1369 39.3231 16.3885 40.3497 17.3638C41.1235 18.2167 41.3899 18.8463 41.3849 20.0145C41.3862 20.314 41.3862 20.314 41.3875 20.6195C41.3466 21.1296 41.2679 21.3872 41.0158 21.8192C41.0392 22.521 41.5702 22.946 42.0002 23.4598C42.5095 24.4855 42.4819 25.7098 42.2405 26.8148C41.8058 28.0617 41.0306 28.8013 39.8673 29.3661C38.7428 29.8024 37.5951 29.7604 36.4015 29.766C36.091 29.774 36.091 29.774 35.7741 29.7823C35.5747 29.7835 35.3752 29.7846 35.1698 29.7858C34.8985 29.7891 34.8985 29.7891 34.6217 29.7925C33.949 29.6593 33.7331 29.4032 33.3048 28.8739C33.2007 28.3323 33.2007 28.3323 33.1987 27.7094C33.1973 27.5954 33.1958 27.4814 33.1943 27.3639C33.1907 26.9887 33.1931 26.6138 33.1959 26.2386C33.1953 25.9769 33.1945 25.7152 33.1935 25.4535C33.1923 24.9057 33.1941 24.358 33.1979 23.8102C33.2026 23.109 33.1999 22.408 33.195 21.7067C33.192 21.1665 33.1929 20.6264 33.1951 20.0862C33.1956 19.8277 33.195 19.5692 33.193 19.3107C33.1909 18.9489 33.1941 18.5876 33.1987 18.2258C33.1994 18.0203 33.2 17.8147 33.2007 17.6029C33.4024 16.5539 34.0565 16.1379 35.0807 16.1321Z" fill="#020300"/>
<path d="M75.3047 51.3506C76.2803 51.2693 76.9537 51.4486 77.7656 52.0069C78.3572 52.5795 78.7396 53.0671 78.7741 53.9032C78.7766 54.16 78.7782 54.4168 78.779 54.6736C78.7807 54.8837 78.7807 54.8837 78.7823 55.0981C78.7855 55.5633 78.7875 56.0284 78.7891 56.4936C78.7898 56.6526 78.7904 56.8115 78.7911 56.9753C78.7945 57.8173 78.7969 58.6594 78.7984 59.5015C78.8002 60.3694 78.8059 61.2373 78.8124 62.1052C78.8167 62.774 78.8181 63.4427 78.8187 64.1114C78.8194 64.4312 78.8213 64.7509 78.8244 65.0707C78.8284 65.5199 78.8282 65.9689 78.8271 66.4181C78.8292 66.5489 78.8313 66.6796 78.8335 66.8142C78.8226 67.9978 78.4554 68.9597 77.7009 69.873C77.5584 70.0071 77.4158 70.1412 77.269 70.2793C77.1917 70.3539 77.1145 70.4284 77.0349 70.5052C76.7916 70.7396 76.5458 70.9712 76.2993 71.2022C74.3502 72.9439 74.3502 72.9439 73.4793 75.3217C73.4781 75.5187 73.4781 75.5187 73.4769 75.7197C73.4166 79.1822 73.4166 79.1822 72.1676 80.4012C71.1246 81.2701 70.2739 81.5928 68.9062 81.5381C68.9716 81.4529 69.0369 81.3677 69.1043 81.2799C70.379 79.6019 70.7466 78.2412 70.7902 76.1576C70.7943 76.0429 70.7984 75.9282 70.8026 75.81C70.8048 75.7086 70.807 75.6072 70.8093 75.5027C70.9907 74.5008 71.4496 73.8293 72.176 73.1415C72.2922 73.029 72.2922 73.029 72.4107 72.9142C72.7379 72.5976 73.0689 72.2851 73.3996 71.9723C74.945 70.5034 76.0869 69.1225 76.17 66.9041C76.1734 66.656 76.1751 66.4078 76.1753 66.1596C76.1766 66.0228 76.178 65.886 76.1794 65.7451C76.1833 65.2967 76.1848 64.8484 76.1859 64.4C76.1874 64.0858 76.1889 63.7716 76.1904 63.4574C76.1931 62.8001 76.1943 62.1429 76.1948 61.4857C76.1957 60.6468 76.2019 59.808 76.2094 58.9692C76.2143 58.3206 76.2154 57.672 76.2156 57.0234C76.2163 56.7143 76.2183 56.4052 76.2218 56.0961C76.239 54.414 76.2331 53.139 75.3047 51.6788C75.3047 51.5705 75.3047 51.4622 75.3047 51.3506Z" fill="#E9AD9C"/>
<path d="M21.8147 16.3203C22.2961 16.446 22.4894 16.6846 22.8048 17.0637C22.8867 17.461 22.8867 17.461 22.8866 17.9083C22.8882 18.0765 22.8899 18.2446 22.8916 18.4178C22.8902 18.5984 22.8889 18.7791 22.8875 18.9652C22.889 19.1517 22.8906 19.3382 22.8922 19.5303C22.8969 20.1266 22.8974 20.7228 22.8971 21.3191C22.8977 21.9148 22.8993 22.5104 22.9038 23.1061C22.9066 23.4768 22.907 23.8475 22.9049 24.2181C22.9061 24.3868 22.9072 24.5554 22.9084 24.7291C22.9081 24.9508 22.9081 24.9508 22.9079 25.1769C22.9832 25.6928 23.156 25.995 23.4611 26.4153C24.2478 26.9751 24.7716 27.21 25.758 27.0715C26.4581 26.8062 27.0702 26.4981 27.5626 25.9231C27.7236 25.4401 27.7489 25.1211 27.7526 24.6174C27.7551 24.3693 27.7551 24.3693 27.7577 24.1163C27.7589 23.9378 27.7601 23.7594 27.7613 23.5756C27.7659 23.1989 27.7706 22.8221 27.7754 22.4454C27.7822 21.8506 27.7882 21.2559 27.7926 20.661C27.7971 20.0876 27.8046 19.5142 27.8126 18.9408C27.8131 18.7627 27.8136 18.5846 27.8142 18.4012C27.8169 18.2353 27.8196 18.0694 27.8224 17.8985C27.8238 17.7528 27.8251 17.6071 27.8265 17.457C27.9051 16.9759 28.0386 16.7505 28.383 16.4075C29.2659 16.2953 29.2659 16.2953 29.6955 16.4075C30.1054 16.7419 30.3256 16.9412 30.4372 17.4657C30.4395 17.6907 30.4395 17.6907 30.4418 17.9202C30.4465 18.1767 30.4465 18.1767 30.4513 18.4383C30.451 18.6225 30.4507 18.8068 30.4504 18.9966C30.4518 19.1876 30.4532 19.3787 30.4547 19.5755C30.4565 19.9804 30.4567 20.3853 30.4553 20.7902C30.4543 21.4046 30.4619 22.0185 30.4703 22.6329C30.471 23.0272 30.4712 23.4216 30.4709 23.8159C30.4739 23.9975 30.4769 24.1791 30.4801 24.3661C30.4628 25.8467 30.0619 27.1878 28.9996 28.2646C28.6452 28.562 28.2887 28.8048 27.8908 29.0403C27.7956 29.0991 27.7004 29.1579 27.6024 29.2184C26.411 29.8008 24.6347 29.7374 23.3688 29.4306C23.0304 29.2771 22.7689 29.1057 22.4767 28.8762C22.3507 28.7825 22.2246 28.6888 22.0947 28.5923C21.0859 27.7771 20.4511 26.9283 20.2832 25.611C20.2603 25.0703 20.2572 24.5333 20.2625 23.9922C20.2623 23.7955 20.262 23.5989 20.2618 23.3963C20.262 22.983 20.2639 22.5698 20.2673 22.1566C20.2721 21.5233 20.2707 20.8902 20.2686 20.2569C20.2696 19.8545 20.271 19.4521 20.2728 19.0498C20.2723 18.8604 20.2718 18.6711 20.2713 18.476C20.2734 18.3001 20.2755 18.1243 20.2776 17.9431C20.2785 17.7887 20.2794 17.6343 20.2803 17.4753C20.4297 16.5084 20.8794 16.3347 21.8147 16.3203Z" fill="#020300"/>
<path d="M12.5817 16.3244C12.712 16.3251 12.8423 16.3258 12.9766 16.3266C14.0964 16.3588 14.9643 16.6187 15.9142 17.2268C16.0223 17.2917 16.1303 17.3566 16.2417 17.4235C16.5192 17.6164 16.5192 17.6164 16.8986 18.0471C17.0152 18.7116 17.008 19.0314 16.632 19.5954C16.1011 19.9447 15.8895 19.957 15.258 19.8518C15.0025 19.7199 14.7498 19.5826 14.4992 19.4416C13.5845 18.9552 12.6692 18.8145 11.6486 19.0315C11.2585 19.3214 11.2585 19.3214 10.9923 19.6877C10.913 20.1125 10.913 20.1125 11.1564 20.508C11.9566 20.9494 12.7755 21.2919 13.6263 21.622C15.0794 22.1925 16.2221 22.7324 17.0889 24.0866C17.4694 25.0776 17.41 26.4962 16.9909 27.4704C16.3357 28.5454 15.2057 29.2912 14.0063 29.6237C12.4022 29.9197 10.8517 29.6542 9.45104 28.7996C9.12955 28.5646 8.82985 28.3182 8.53139 28.0549C8.32836 27.8976 8.32836 27.8976 8.12123 27.737C7.74936 27.2257 7.78742 26.8642 7.87514 26.2502C8.20442 25.7563 8.40492 25.6227 8.98256 25.4914C9.64612 25.619 9.99901 25.9048 10.5117 26.331C11.2116 26.8778 11.7305 26.9585 12.6227 26.968C12.8204 26.9726 13.0182 26.9773 13.2219 26.9821C13.8799 26.8931 14.1449 26.7248 14.6017 26.2502C14.7795 25.6832 14.7795 25.6832 14.6017 25.1018C13.6636 24.2719 12.3715 23.902 11.2112 23.4964C10.1194 23.0877 9.23963 22.5317 8.67619 21.4775C8.31203 20.6297 8.19147 19.8376 8.51729 18.952C9.32964 17.1805 10.6242 16.3086 12.5817 16.3244Z" fill="#030400"/>
<path d="M78.5859 10.666C78.924 10.6438 79.2625 10.6279 79.6011 10.6148C79.7895 10.6053 79.9779 10.5957 80.1721 10.5859C80.7218 10.6665 80.9898 10.7665 81.3686 11.1735C81.7716 11.9131 81.6517 12.8386 81.6452 13.6573C81.6463 13.8805 81.6478 14.1037 81.6496 14.3269C81.6533 14.932 81.6519 15.5369 81.6493 16.142C81.6472 16.7759 81.6491 17.4098 81.6504 18.0437C81.6519 19.1082 81.6499 20.1728 81.646 21.2374C81.6415 22.4671 81.643 23.6967 81.6475 24.9264C81.6512 25.9832 81.6518 27.0399 81.6496 28.0966C81.6483 28.7273 81.6482 29.358 81.6509 29.9887C81.6532 30.5819 81.6516 31.175 81.6469 31.7683C81.6453 32.089 81.6477 32.4097 81.6502 32.7305C81.6313 34.3027 81.6313 34.3027 81.1428 34.91C80.5245 35.4429 80.2337 35.4599 79.4294 35.4592C79.1222 35.4596 79.1222 35.4596 78.8089 35.4599C78.5807 35.4593 78.3526 35.4587 78.1244 35.4581C77.8852 35.4581 77.6459 35.4581 77.4066 35.4582C76.7558 35.4582 76.1051 35.4573 75.4543 35.4561C74.7746 35.4551 74.0949 35.455 73.4153 35.4548C72.1277 35.4543 70.8401 35.4529 69.5525 35.4513C68.0869 35.4495 66.6213 35.4486 65.1557 35.4477C62.1402 35.446 59.1248 35.4431 56.1094 35.4395C56.1094 35.3853 56.1094 35.3312 56.1094 35.2754C63.5266 35.2213 70.9439 35.1671 78.5859 35.1114C78.8768 34.3841 78.9552 34.0752 78.9557 33.3322C78.9567 33.1403 78.9576 32.9485 78.9585 32.7509C78.9579 32.5419 78.9572 32.3329 78.9565 32.1175C78.957 31.8941 78.9576 31.6706 78.9583 31.4471C78.9598 30.8414 78.9592 30.2357 78.9581 29.63C78.9573 28.9956 78.9581 28.3612 78.9586 27.7268C78.9592 26.6615 78.9584 25.5963 78.9568 24.531C78.9551 23.3 78.9556 22.069 78.9574 20.838C78.9589 19.7805 78.9591 18.7229 78.9583 17.6654C78.9578 17.034 78.9577 16.4027 78.9588 15.7714C78.9597 15.1778 78.9591 14.5842 78.9572 13.9906C78.9565 13.6692 78.9575 13.3479 78.9585 13.0265C78.9571 12.7388 78.9571 12.7388 78.9557 12.4452C78.9556 12.2789 78.9555 12.1125 78.9554 11.9412C78.9117 11.4605 78.7871 11.1024 78.5859 10.666Z" fill="#3C6B21"/>
<path d="M70.1008 16.1387C70.247 16.1383 70.3932 16.1379 70.5439 16.1375C70.8522 16.1376 71.1605 16.1398 71.4688 16.1439C71.9399 16.1496 72.4105 16.1473 72.8816 16.1441C73.1817 16.1453 73.4818 16.1468 73.782 16.1489C73.9925 16.1477 73.9925 16.1477 74.2072 16.1465C74.8674 16.1595 75.2261 16.195 75.8042 16.5399C76.125 16.8981 76.125 16.8981 76.2173 17.4723C76.1092 18.145 76.0082 18.3019 75.4688 18.7028C74.9022 18.7669 74.9022 18.7669 74.2793 18.7438C74.072 18.7379 73.8648 18.732 73.6512 18.7259C73.414 18.7144 73.414 18.7144 73.1719 18.7028C73.1726 18.8267 73.1733 18.9506 73.1741 19.0783C73.1807 20.2467 73.1857 21.415 73.1889 22.5834C73.1906 23.184 73.1929 23.7847 73.1966 24.3853C73.2002 24.9651 73.2022 25.5448 73.203 26.1246C73.2039 26.4532 73.2065 26.7818 73.2091 27.1104C73.2091 27.4109 73.2091 27.4109 73.2091 27.7174C73.2099 27.8937 73.2106 28.0701 73.2113 28.2518C73.1716 28.7141 73.0977 28.9818 72.8438 29.3669C72.3485 29.6145 71.913 29.5596 71.3672 29.5309C70.875 29.2028 70.875 29.2028 70.7109 28.7106C70.6964 28.386 70.6916 28.061 70.6923 27.736C70.6923 27.5357 70.6923 27.3354 70.6923 27.129C70.6932 26.9126 70.694 26.6963 70.6949 26.4733C70.6952 26.2497 70.6955 26.026 70.6956 25.8023C70.6962 25.2141 70.6979 24.6258 70.6997 24.0376C70.7014 23.4371 70.7021 22.8367 70.7029 22.2362C70.7047 21.0584 70.7075 19.8806 70.7109 18.7028C70.5527 18.7104 70.3946 18.718 70.2316 18.7259C70.0243 18.7318 69.8171 18.7377 69.6035 18.7438C69.2952 18.7552 69.2952 18.7552 68.9806 18.7669C68.4141 18.7028 68.4141 18.7028 68.0174 18.4022C67.7578 18.0465 67.7578 18.0465 67.6655 17.5646C67.9161 16.2003 68.9364 16.1206 70.1008 16.1387Z" fill="#020300"/>
<path d="M63.8143 16.3086C64.3411 16.4623 64.5078 16.7756 64.8044 17.2263C64.8877 17.7554 64.8877 17.7554 64.8893 18.3607C64.891 18.5269 64.891 18.5269 64.8928 18.6965C64.8957 19.061 64.8938 19.4253 64.8916 19.7898C64.892 20.0441 64.8926 20.2985 64.8935 20.5528C64.8944 21.0852 64.893 21.6175 64.8899 22.1498C64.8862 22.8312 64.8884 23.5123 64.8923 24.1937C64.8947 24.7187 64.8939 25.2437 64.8922 25.7687C64.8918 26.0198 64.8923 26.271 64.8938 26.5222C64.8955 26.8737 64.893 27.2249 64.8893 27.5764C64.8888 27.7761 64.8883 27.9758 64.8877 28.1816C64.7882 28.8132 64.5984 29.0843 64.1481 29.531C63.6662 29.7053 63.6662 29.7053 63.1638 29.6951C62.7285 29.4401 62.7285 29.4401 62.3435 29.0388C62.2415 28.5023 62.2415 28.5023 62.2425 27.8577C62.2416 27.7399 62.2407 27.6222 62.2398 27.5009C62.2378 27.1126 62.2418 26.7246 62.246 26.3363C62.2463 26.0662 62.2463 25.7961 62.246 25.526C62.2463 24.9604 62.2494 24.3949 62.2545 23.8293C62.2611 23.104 62.2618 22.3788 62.2605 21.6534C62.26 21.0959 62.262 20.5385 62.2648 19.981C62.266 19.7135 62.2665 19.446 62.2663 19.1786C62.2666 18.805 62.2701 18.4316 62.2746 18.0581C62.2759 17.8455 62.2773 17.6329 62.2787 17.4139C62.3435 16.8982 62.3435 16.8982 62.5535 16.5847C62.9522 16.3322 63.3515 16.33 63.8143 16.3086Z" fill="#050701"/>
<path d="M78.5859 2.45915C80.5398 2.36676 80.5398 2.36676 81.2109 2.95134C81.6134 3.55497 81.5772 3.84938 81.5711 4.56825C81.5706 4.6768 81.5702 4.78535 81.5697 4.89719C81.5679 5.24323 81.5637 5.5892 81.5596 5.93522C81.5579 6.1701 81.5564 6.40498 81.5551 6.63986C81.5515 7.21506 81.5458 7.79022 81.5391 8.3654C81.3202 8.32765 81.3202 8.32765 81.0969 8.28913C80.6493 8.21666 80.2055 8.15684 79.7549 8.10905C79.6267 8.0953 79.4986 8.08156 79.3665 8.06739C79.2238 8.05248 79.2238 8.05248 79.0781 8.03727C79.0749 7.90327 79.0716 7.76927 79.0683 7.6312C79.0526 7.02139 79.0346 6.41167 79.0166 5.80192C79.0115 5.59107 79.0065 5.38022 79.0012 5.16297C78.9949 4.95889 78.9885 4.7548 78.982 4.54454C78.9768 4.35724 78.9717 4.16994 78.9664 3.97697C78.9126 3.42828 78.7801 2.97348 78.5859 2.45915Z" fill="#3C6B21"/>
<path d="M35.7656 23.7874C36.236 23.7773 36.7063 23.7671 37.1909 23.7567C37.411 23.7499 37.411 23.7499 37.6355 23.7431C38.4053 23.7351 38.9191 23.7711 39.5391 24.2796C39.9429 24.8854 39.9998 25.3813 39.8672 26.0843C39.5445 26.6626 39.1939 27.0197 38.5547 27.2327C38.3356 27.2458 38.116 27.2504 37.8965 27.2488C37.7285 27.2481 37.7285 27.2481 37.5571 27.2475C37.4159 27.246 37.2748 27.2445 37.1294 27.243C36.4543 27.2379 36.4543 27.2379 35.7656 27.2327C35.7656 26.0958 35.7656 24.9588 35.7656 23.7874Z" fill="#6AC03A"/>
<path d="M35.7656 18.7035C37.9289 18.6226 37.9289 18.6226 38.5412 18.9931C38.8981 19.3761 38.9954 19.5038 38.9854 20.016C38.9875 20.1242 38.9896 20.2325 38.9918 20.3441C38.8168 20.871 38.5307 21.0451 38.0625 21.3285C37.2869 21.4138 36.5487 21.3577 35.7656 21.3285C35.7656 20.4622 35.7656 19.596 35.7656 18.7035Z" fill="#6AC03A"/>
</g>
<defs>
<clipPath id="clip0_108_234">
<rect width="84" height="84" fill="white"/>
</clipPath>
</defs>
</svg>
