<svg width="84" height="84" viewBox="0 0 84 84" fill="none" xmlns="http://www.w3.org/2000/svg">
<g clip-path="url(#clip0_107_165)">
<path d="M33.7982 2.30844C33.9684 2.35828 34.1386 2.40812 34.3139 2.45947C36.0875 2.9876 37.8295 3.59892 39.5728 4.21833C47.163 6.90784 54.6285 8.83243 62.7233 8.97657C62.8421 8.97881 62.961 8.98105 63.0834 8.98336C63.4068 8.98912 63.7301 8.99372 64.0535 8.99823C64.6415 9.02415 65.2083 9.0951 65.7891 9.18817C65.7891 8.64677 65.7891 8.10536 65.7891 7.54755C67.4133 7.54755 69.0376 7.54755 70.711 7.54755C70.711 8.35966 70.711 9.17177 70.711 10.0085C69.8989 10.0897 69.8989 10.0897 69.0704 10.1725C69.3072 10.3045 69.5441 10.4365 69.7881 10.5724C70.7521 11.1506 71.5445 11.8561 72.3516 12.6335C72.5232 12.7981 72.5232 12.7981 72.6983 12.9661C73.1304 13.3893 73.491 13.7683 73.8282 14.2741C73.8823 13.9493 73.9365 13.6244 73.9922 13.2897C74.8043 13.2897 75.6165 13.2897 76.4532 13.2897C76.4532 14.914 76.4532 16.5382 76.4532 18.2116C76.2095 18.2928 76.2095 18.2928 75.961 18.3757C75.9882 18.4646 76.0155 18.5535 76.0435 18.6451C78.6678 27.2907 77.7984 36.3534 75.3765 44.9641C75.3313 45.1248 75.3313 45.1248 75.2853 45.2888C74.9036 46.6353 74.4691 47.9522 73.982 49.2633C73.8104 49.6843 73.8104 49.6843 73.8282 50.0397C73.9257 49.9805 74.0232 49.9213 74.1236 49.8603C75.189 49.2638 76.0559 49.0259 77.2735 49.2194C78.4236 49.5571 79.1343 50.3306 79.7581 51.3228C80.1242 52.2554 80.0193 53.4571 79.7037 54.3874C79.1084 55.2085 78.4126 55.9491 77.4376 56.2741C76.1892 56.3783 75.0064 56.4356 73.9922 55.6179C73.087 54.7389 72.886 53.8796 72.6797 52.6647C72.6244 52.7854 72.5691 52.906 72.512 53.0303C72.2572 53.5853 72.0019 54.1402 71.7466 54.695C71.6596 54.8847 71.5726 55.0744 71.4829 55.2699C71.0196 56.276 70.5468 57.2692 70.0177 58.2426C69.8409 58.596 69.8409 58.596 70.0547 59.0632C70.073 59.3136 70.0824 59.5648 70.0864 59.8159C70.089 59.9682 70.0917 60.1206 70.0944 60.2775C70.1017 60.9766 70.1084 61.6756 70.1122 62.3747C70.1149 62.7421 70.1194 63.1095 70.1256 63.4769C70.1347 64.0088 70.1382 64.5406 70.1406 65.0726C70.1462 65.316 70.1462 65.316 70.1519 65.5642C70.148 66.8439 69.8257 67.9327 68.9464 68.8935C67.9805 69.7996 67.0037 70.1197 65.693 70.0816C65.4567 70.0797 65.2205 70.0781 64.9842 70.0768C64.6175 70.0724 64.2514 70.0656 63.8849 70.0526C62.3923 69.9794 62.3923 69.9794 61.0616 70.5585C60.69 70.975 60.3681 71.404 60.0469 71.86C59.8695 72.0493 59.6872 72.234 59.4983 72.4118C59.4139 72.4918 59.3294 72.5718 59.2424 72.6542C59.1559 72.7339 59.0695 72.8136 58.9805 72.8957C58.8847 72.9842 58.7889 73.0726 58.6902 73.1638C51.8996 79.323 43.0459 83.135 33.7969 82.6882C26.0018 82.184 18.8421 78.5041 13.6922 72.672C6.91596 64.5384 4.42475 53.4436 4.39642 43.0581C4.39595 42.9401 4.39549 42.822 4.39501 42.7004C4.39257 42.0731 4.39104 41.4458 4.39033 40.8185C4.38962 40.3131 4.38736 39.8077 4.3836 39.3022C4.30937 29.1159 5.47487 17.3898 12.1407 9.18817C12.2158 9.09467 12.2909 9.00116 12.3683 8.90483C13.4388 7.57951 14.5353 6.43019 15.9141 5.41473C16.0717 5.29398 16.2292 5.17322 16.3916 5.0488C21.5259 1.27756 27.775 0.540186 33.7982 2.30844ZM73.5001 50.2038C73.6641 50.5319 73.6641 50.5319 73.6641 50.5319L73.5001 50.2038ZM75.5713 51.9367C75.2484 52.339 75.2484 52.339 75.315 52.9313C75.4155 53.5269 75.4155 53.5269 75.961 53.8132C76.547 53.7998 76.547 53.7998 77.1094 53.6491C77.4647 53.1162 77.528 52.955 77.4376 52.3366C77.1104 51.8883 76.9187 51.7078 76.3711 51.5983C75.943 51.6573 75.943 51.6573 75.5713 51.9367Z" fill="#EEEEEE"/>
<path d="M19.2284 55.8828C19.5306 55.8815 19.5306 55.8815 19.8389 55.8801C20.3962 55.8782 20.9535 55.8784 21.5108 55.8796C22.1126 55.8804 22.7144 55.8784 23.3162 55.8767C24.4945 55.8739 25.6728 55.8737 26.8511 55.8746C27.8091 55.8752 28.7671 55.875 29.7251 55.8741C29.8615 55.874 29.9979 55.8739 30.1385 55.8738C30.4157 55.8735 30.6928 55.8733 30.97 55.873C33.5687 55.8707 36.1673 55.8716 38.7659 55.8735C41.1418 55.8752 43.5175 55.873 45.8933 55.8691C48.3343 55.8651 50.7752 55.8635 53.2161 55.8646C54.5859 55.8652 55.9557 55.8648 57.3255 55.862C58.4918 55.8595 59.658 55.8594 60.8243 55.8623C61.419 55.8637 62.0136 55.864 62.6082 55.8615C63.2539 55.8588 63.8994 55.8613 64.545 55.8642C64.7316 55.8626 64.9182 55.861 65.1105 55.8594C66.7194 55.8742 67.9939 56.2306 69.1408 57.3947C69.9582 58.5253 70.1546 59.4713 70.1476 60.8567C70.1486 61.0258 70.1496 61.1948 70.1507 61.369C70.1519 61.725 70.1513 62.081 70.1493 62.437C70.147 62.9779 70.1526 63.5183 70.1588 64.0591C70.159 64.4067 70.1587 64.7543 70.1579 65.1018C70.16 65.2615 70.1622 65.4212 70.1645 65.5857C70.1475 66.8518 69.8159 67.9434 68.9464 68.8941C67.73 70.0343 66.5263 70.1279 64.9232 70.1205C64.7204 70.1215 64.5176 70.1225 64.3086 70.1235C63.7476 70.1257 63.1866 70.1258 62.6255 70.1249C62.0197 70.1245 61.4139 70.1269 60.8081 70.1289C59.6219 70.1323 58.4357 70.1331 57.2495 70.1328C56.2851 70.1326 55.3206 70.1332 54.3562 70.1344C54.0782 70.1347 53.8003 70.1351 53.5223 70.1354C53.3147 70.1357 53.3147 70.1357 53.103 70.1359C50.487 70.139 47.871 70.1389 45.2549 70.1378C42.8632 70.1368 40.4715 70.1403 38.0798 70.1457C35.6226 70.1512 33.1653 70.1537 30.7081 70.153C29.3291 70.1526 27.9502 70.1534 26.5712 70.1575C25.3971 70.161 24.2231 70.1616 23.049 70.1585C22.4503 70.157 21.8517 70.1568 21.2531 70.1602C20.6031 70.1638 19.9533 70.1611 19.3033 70.1577C19.1155 70.1598 18.9276 70.1618 18.7341 70.1639C17.189 70.1469 16.0336 69.7316 14.9399 68.6202C13.992 67.5488 13.8687 66.151 13.8684 64.7808C13.8672 64.6265 13.8659 64.4723 13.8646 64.3133C13.8629 63.9892 13.8624 63.6651 13.8631 63.3409C13.8633 62.849 13.8564 62.3576 13.8492 61.8658C13.8284 58.5811 13.8284 58.5811 15.0921 57.2407C16.3573 56.0147 17.5287 55.8738 19.2284 55.8828Z" fill="#060606"/>
<path d="M18.4967 59.5332C18.6661 59.5328 18.8355 59.5324 19.01 59.5319C19.1984 59.5323 19.3868 59.5327 19.5808 59.533C19.8783 59.5327 19.8783 59.5327 20.1818 59.5323C20.7349 59.5317 21.2878 59.5319 21.8409 59.5324C22.4363 59.5328 23.0317 59.5322 23.6271 59.5318C24.7945 59.531 25.9619 59.5312 27.1293 59.5317C28.0777 59.532 29.026 59.5321 29.9744 59.5319C30.1091 59.5319 30.2438 59.5319 30.3826 59.5318C30.6562 59.5318 30.9298 59.5317 31.2034 59.5317C33.7722 59.5312 36.341 59.5318 38.9098 59.5326C41.1164 59.5334 43.323 59.5332 45.5296 59.5325C48.0889 59.5316 50.6481 59.5313 53.2074 59.5318C53.4801 59.5318 53.7527 59.5319 54.0253 59.5319C54.1595 59.5319 54.2937 59.532 54.4319 59.532C55.3797 59.5321 56.3274 59.5319 57.2752 59.5315C58.4294 59.5311 59.5836 59.5312 60.7378 59.5321C61.3273 59.5325 61.9167 59.5326 62.5062 59.5321C63.1438 59.5315 63.7813 59.5322 64.4189 59.533C64.6072 59.5327 64.7956 59.5323 64.9897 59.5319C65.2437 59.5326 65.2437 59.5326 65.503 59.5332C65.6503 59.5333 65.7977 59.5333 65.9495 59.5333C66.2811 59.5539 66.2811 59.5539 66.4452 59.7179C66.4617 60.2012 66.4681 60.6805 66.4669 61.1637C66.4672 61.3813 66.4672 61.3813 66.4674 61.6033C66.4675 61.9105 66.4672 62.2178 66.4666 62.5251C66.4657 62.9972 66.4665 63.4692 66.4676 63.9413C66.4675 64.2391 66.4673 64.5368 66.4669 64.8346C66.4673 64.9768 66.4676 65.119 66.468 65.2655C66.464 66.2616 66.464 66.2616 66.2811 66.4445C66.0221 66.4606 65.7624 66.4651 65.503 66.4651C65.3336 66.4656 65.1642 66.466 64.9897 66.4664C64.8013 66.4661 64.6129 66.4657 64.4189 66.4653C64.1214 66.4657 64.1214 66.4657 63.8178 66.4661C63.2648 66.4667 62.7118 66.4665 62.1588 66.4659C61.5634 66.4656 60.968 66.4661 60.3726 66.4666C59.2052 66.4673 58.0378 66.4672 56.8704 66.4667C55.922 66.4663 54.9737 66.4663 54.0253 66.4665C53.8906 66.4665 53.7559 66.4665 53.6171 66.4665C53.3435 66.4666 53.0699 66.4666 52.7963 66.4667C50.2275 66.4672 47.6587 66.4666 45.0899 66.4657C42.8833 66.465 40.6767 66.4651 38.4701 66.4659C35.9108 66.4668 33.3516 66.4671 30.7923 66.4666C30.5196 66.4666 30.247 66.4665 29.9744 66.4665C29.8402 66.4664 29.706 66.4664 29.5678 66.4664C28.62 66.4662 27.6723 66.4665 26.7245 66.4669C25.5703 66.4673 24.4161 66.4672 23.2619 66.4663C22.6724 66.4659 22.083 66.4657 21.4935 66.4663C20.8559 66.4668 20.2184 66.4662 19.5808 66.4653C19.2983 66.4659 19.2983 66.4659 19.01 66.4664C18.756 66.4658 18.756 66.4658 18.4967 66.4651C18.3494 66.4651 18.202 66.4651 18.0502 66.4651C17.7186 66.4445 17.7186 66.4445 17.5545 66.2804C17.5379 65.7972 17.5316 65.3179 17.5327 64.8346C17.5326 64.6896 17.5324 64.5446 17.5323 64.3951C17.5322 64.0878 17.5325 63.7806 17.5331 63.4733C17.534 63.0012 17.5332 62.5292 17.5321 62.0571C17.5322 61.7593 17.5324 61.4615 17.5327 61.1637C17.5324 61.0216 17.5321 60.8794 17.5317 60.7329C17.5365 59.5334 17.5365 59.5334 18.4967 59.5332Z" fill="#F2F2F0"/>
<path d="M66.407 35.8132C68.2001 36.8005 69.3646 38.3986 69.942 40.3499C70.3697 42.4259 69.8469 44.456 68.7013 46.2203C67.5176 47.7634 65.7578 48.7942 63.8205 49.0555C61.6781 49.2367 59.8729 48.5598 58.2116 47.22C56.843 45.9549 56.1067 44.1764 55.8884 42.3417C55.8211 40.2682 56.6888 38.4015 58.0764 36.8905C59.069 35.9769 60.2414 35.4746 61.5236 35.1101C63.1685 34.5619 64.8935 35.1099 66.407 35.8132Z" fill="#020303"/>
<path d="M66.407 14.8132C68.2001 15.8005 69.3646 17.3986 69.942 19.3499C70.3697 21.4259 69.8469 23.456 68.7013 25.2203C67.5176 26.7634 65.7578 27.7942 63.8205 28.0555C61.6781 28.2367 59.8729 27.5598 58.2116 26.22C56.843 24.9549 56.1067 23.1764 55.8884 21.3417C55.8211 19.2682 56.6888 17.4015 58.0764 15.8905C59.069 14.9769 60.2414 14.4746 61.5236 14.1101C63.1685 13.5619 64.8935 14.1099 66.407 14.8132Z" fill="#020303"/>
<path d="M15.75 36.0938C26.903 36.0938 38.0559 36.0938 49.5469 36.0938C49.5469 37.2848 49.5469 38.4759 49.5469 39.7031C38.3939 39.7031 27.2409 39.7031 15.75 39.7031C15.75 38.512 15.75 37.3209 15.75 36.0938Z" fill="#070707"/>
<path d="M15.75 15.0938C26.903 15.0938 38.0559 15.0938 49.5469 15.0938C49.5469 16.2848 49.5469 17.4759 49.5469 18.7031C38.3939 18.7031 27.2409 18.7031 15.75 18.7031C15.75 17.512 15.75 16.3209 15.75 15.0938Z" fill="#070707"/>
<path d="M15.75 43.1484C26.903 43.1484 38.0559 43.1484 49.5469 43.1484C49.5469 44.2854 49.5469 45.4223 49.5469 46.5938C38.3939 46.5938 27.2409 46.5938 15.75 46.5938C15.75 45.4568 15.75 44.3198 15.75 43.1484Z" fill="#010101"/>
<path d="M15.75 22.1484C26.903 22.1484 38.0559 22.1484 49.5469 22.1484C49.5469 23.2854 49.5469 24.4223 49.5469 25.5938C38.3939 25.5938 27.2409 25.5938 15.75 25.5938C15.75 24.4568 15.75 23.3198 15.75 22.1484Z" fill="#010101"/>
<path d="M64.9685 39.0452C65.8107 39.7917 66.3795 40.4249 66.4784 41.5606C66.5002 42.7139 66.3433 43.5266 65.553 44.4183C64.5583 45.2917 63.9158 45.4964 62.5948 45.4789C61.3622 45.3743 60.6848 44.6898 59.9236 43.7928C59.4232 43.0172 59.4789 42.0685 59.5545 41.178C59.8988 40.0726 60.5566 39.3407 61.5232 38.7171C62.7002 38.3534 63.8973 38.4361 64.9685 39.0452Z" fill="#00B63D"/>
<path d="M64.9685 18.0452C65.8107 18.7917 66.3795 19.4249 66.4784 20.5606C66.5002 21.7139 66.3433 22.5266 65.553 23.4183C64.5583 24.2917 63.9158 24.4964 62.5948 24.4789C61.3622 24.3743 60.6848 23.6898 59.9236 22.7928C59.4232 22.0172 59.4789 21.0685 59.5545 20.178C59.8988 19.0726 60.5566 18.3407 61.5232 17.7171C62.7002 17.3534 63.8973 17.4361 64.9685 18.0452Z" fill="#00B63D"/>
<path d="M77.9811 49.4741C78.8363 49.9676 79.5369 50.757 79.8986 51.6787C80.0074 52.7725 80.0747 53.8742 79.4064 54.7959C78.6937 55.5817 78.0613 56.2204 76.9692 56.3115C75.8461 56.3365 74.8908 56.3533 73.9924 55.6162C73.0482 54.5872 72.7719 53.7619 72.7888 52.3695C72.8907 51.396 73.2361 50.5636 73.9936 49.924C75.1945 49.1485 76.634 48.8655 77.9811 49.4741ZM75.5715 51.935C75.2485 52.3373 75.2485 52.3373 75.3151 52.9297C75.4156 53.5252 75.4156 53.5252 75.9611 53.8115C76.5471 53.7981 76.5471 53.7981 77.1095 53.6474C77.4648 53.1145 77.5282 52.9533 77.4377 52.3349C77.1105 51.8866 76.9188 51.7062 76.3713 51.5967C75.9431 51.6556 75.9431 51.6556 75.5715 51.935Z" fill="#A4AFC1"/>
<path d="M17.7185 59.5547C18.8013 59.5547 19.8841 59.5547 20.9997 59.5547C20.9997 61.8286 20.9997 64.1025 20.9997 66.4453C19.9169 66.4453 18.8341 66.4453 17.7185 66.4453C17.4074 66.1342 17.5333 65.6802 17.5316 65.2663C17.532 65.1241 17.5323 64.9819 17.5326 64.8354C17.5325 64.6904 17.5323 64.5454 17.5322 64.3959C17.5321 64.0886 17.5324 63.7814 17.533 63.4741C17.5339 63.002 17.5331 62.53 17.532 62.0579C17.5321 61.7601 17.5323 61.4623 17.5326 61.1646C17.5323 61.0224 17.532 60.8802 17.5316 60.7337C17.5356 59.7376 17.5356 59.7376 17.7185 59.5547Z" fill="#D4DAE0"/>
<path d="M64.1485 38.7188C65.1083 39.0204 65.7432 39.6894 66.2813 40.5234C66.581 41.4933 66.55 42.4843 66.2505 43.4458C65.802 44.2346 65.2128 44.7632 64.4766 45.2812C63.8571 45.043 63.6533 44.7666 63.3692 44.1738C62.8536 42.9575 62.7589 41.6757 63.1321 40.4004C63.3931 39.7852 63.7079 39.2254 64.1485 38.7188Z" fill="#2DDC53"/>
<path d="M64.1485 17.7188C65.1083 18.0204 65.7432 18.6894 66.2813 19.5234C66.581 20.4933 66.55 21.4843 66.2505 22.4458C65.802 23.2346 65.2128 23.7632 64.4766 24.2812C63.8571 24.043 63.6533 23.7666 63.3692 23.1738C62.8536 21.9575 62.7589 20.6757 63.1321 19.4004C63.3931 18.7852 63.7079 18.2254 64.1485 17.7188Z" fill="#2DDC53"/>
<path d="M79.2422 7.54688C80.8123 7.54688 82.3823 7.54688 84 7.54688C84 8.35898 84 9.17109 84 10.0078C82.4299 10.0078 80.8598 10.0078 79.2422 10.0078C79.2422 9.1957 79.2422 8.38359 79.2422 7.54688Z" fill="#A3AEC0"/>
<path d="M73.9922 0C74.8043 0 75.6164 0 76.4531 0C76.4531 1.57008 76.4531 3.14016 76.4531 4.75781C75.641 4.75781 74.8289 4.75781 73.9922 4.75781C73.9922 3.18773 73.9922 1.61766 73.9922 0Z" fill="#A3AEC0"/>
<path d="M65.7891 7.54688C67.4133 7.54688 69.0375 7.54688 70.7109 7.54688C70.7109 8.35898 70.7109 9.17109 70.7109 10.0078C69.1115 10.0217 67.5469 9.99658 65.9531 9.84375C65.7891 9.35156 65.7891 9.35156 65.7891 7.54688Z" fill="#A4AEC0"/>
<path d="M73.9922 13.2891C74.8043 13.2891 75.6164 13.2891 76.4531 13.2891C76.4531 14.9133 76.4531 16.5375 76.4531 18.2109C75.3162 18.1297 75.3162 18.1297 74.1562 18.0469C74.1021 16.4768 74.048 14.9067 73.9922 13.2891Z" fill="#A4AFC0"/>
</g>
<defs>
<clipPath id="clip0_107_165">
<rect width="84" height="84" fill="white"/>
</clipPath>
</defs>
</svg>
