<svg width="84" height="84" viewBox="0 0 84 84" fill="none" xmlns="http://www.w3.org/2000/svg">
<path d="M7.73169 4.0167C7.94551 4.01556 8.15933 4.01442 8.37963 4.01324C8.96986 4.0102 9.56003 4.01122 10.1503 4.01294C10.7881 4.01409 11.4259 4.01146 12.0637 4.00933C13.3119 4.00579 14.5601 4.0058 15.8083 4.00714C16.8231 4.00817 17.8379 4.00798 18.8527 4.00693C18.9973 4.00678 19.1418 4.00663 19.2908 4.00648C19.5845 4.00618 19.8783 4.00587 20.172 4.00556C22.9248 4.00285 25.6776 4.00427 28.4303 4.00704C30.9472 4.00945 33.4641 4.00705 35.981 4.00232C38.5673 3.99749 41.1535 3.9957 43.7398 3.99726C44.0325 3.99743 44.3252 3.99759 44.6179 3.99775C44.7619 3.99783 44.9059 3.99791 45.0542 3.99799C46.0673 3.99834 47.0804 3.99674 48.0935 3.99434C49.3288 3.99147 50.5641 3.99149 51.7994 3.99522C52.4293 3.99705 53.0591 3.99757 53.689 3.99452C54.3727 3.99124 55.0563 3.99435 55.74 3.99807C55.9379 3.99613 56.1357 3.99419 56.3396 3.99219C57.67 4.00687 58.8171 4.24373 59.8251 5.16974C60.7098 6.18294 60.8845 7.16844 60.8933 8.48698C60.8957 8.76234 60.8957 8.76234 60.8982 9.04326C60.8991 9.24222 60.9001 9.44118 60.901 9.64617C60.9027 9.85754 60.9043 10.0689 60.906 10.2867C60.9104 10.8642 60.9138 11.4417 60.9171 12.0193C60.9207 12.6236 60.9252 13.2279 60.9296 13.8323C60.9378 14.9757 60.9452 16.1192 60.9523 17.2627C60.9604 18.5648 60.9694 19.867 60.9784 21.1692C60.9971 23.847 61.0146 26.5249 61.0314 29.2027C61.088 29.1225 61.1445 29.0423 61.2028 28.9597C61.4615 28.5929 61.7202 28.2262 61.979 27.8594C62.0679 27.7333 62.1569 27.6071 62.2485 27.4772C62.8489 26.6263 63.454 25.7792 64.0666 24.9371C64.6864 24.0825 65.3014 23.2249 65.9079 22.3609C66.153 22.0121 66.3994 21.6644 66.6461 21.3168C66.9359 20.9084 67.2205 20.4972 67.501 20.0825C68.3161 18.9171 68.9655 18.2396 70.3875 17.9875C71.7964 17.887 73.0017 18.7579 74.0539 19.5948C75.0367 20.3548 76.0391 21.0731 77.0685 21.7686C80.947 24.4069 80.947 24.4069 81.3008 25.7766C81.5132 27.0038 81.1409 28.0579 80.4434 29.0688C80.2705 29.3028 80.0957 29.5354 79.9191 29.7667C79.7266 30.026 79.5341 30.2853 79.3417 30.5447C79.2434 30.6757 79.1452 30.8068 79.0439 30.9419C78.58 31.5635 78.1268 32.1929 77.6735 32.8223C77.5413 33.0053 77.5413 33.0053 77.4064 33.192C76.4767 34.4799 75.5621 35.7783 74.6486 37.0777C73.5567 38.6309 72.4577 40.1782 71.3437 41.7156C70.7439 42.5444 70.1511 43.3776 69.5627 44.2144C68.7979 45.302 68.0222 46.3812 67.2421 47.4579C66.5603 48.4 65.8883 49.3487 65.2197 50.3002C64.5288 51.2817 63.8263 52.2545 63.1175 53.2231C62.9529 53.4493 62.7916 53.6779 62.6337 53.9089C62.3439 54.3043 62.3439 54.3043 62.0109 54.6469C60.5091 56.3935 60.8571 58.6643 60.8789 60.8334C60.8793 61.2799 60.8775 61.7264 60.8758 62.1729C60.8729 63.2247 60.8764 64.2764 60.8824 65.3283C60.891 66.8709 60.8912 68.4136 60.8899 69.9562C60.8898 70.0698 60.8897 70.1834 60.8896 70.3004C60.8894 70.527 60.8892 70.7537 60.889 70.9803C60.8885 71.7461 60.8916 72.5119 60.8959 73.2778C60.8969 73.6794 60.8979 74.0809 60.8988 74.4825C60.9014 74.7538 60.9014 74.7538 60.904 75.0306C60.9046 76.4446 60.7951 77.6029 59.883 78.7496C58.6461 79.9521 57.2504 79.9697 55.6216 79.9616C55.3019 79.9629 55.3019 79.9629 54.9758 79.9643C54.3868 79.9667 53.7978 79.966 53.2087 79.9648C52.5725 79.964 51.9362 79.966 51.3 79.9677C50.0545 79.9705 48.8091 79.9707 47.5637 79.9698C46.5512 79.9691 45.5388 79.9694 44.5263 79.9703C44.3821 79.9704 44.2379 79.9705 44.0894 79.9706C43.7964 79.9709 43.5035 79.9711 43.2106 79.9714C40.4646 79.9736 37.7186 79.9727 34.9727 79.9709C32.4615 79.9692 29.9503 79.9714 27.4392 79.9753C24.8594 79.9793 22.2796 79.9809 19.6998 79.9798C18.252 79.9792 16.8041 79.9796 15.3563 79.9824C14.1239 79.9848 12.8915 79.985 11.659 79.9821C11.0305 79.9807 10.402 79.9803 9.77347 79.9829C9.0915 79.9855 8.40964 79.9831 7.72767 79.9802C7.52987 79.9818 7.33207 79.9834 7.12827 79.985C5.87437 79.974 4.79701 79.8285 3.81188 78.9971C2.43315 77.5428 2.55457 75.6956 2.56267 73.8207C2.5621 73.5349 2.56132 73.2491 2.56034 72.9633C2.55829 72.1801 2.5593 71.3969 2.56083 70.6137C2.56194 69.7683 2.56022 68.9228 2.55887 68.0773C2.55668 66.4218 2.55715 64.7664 2.55858 63.1109C2.55969 61.7654 2.55984 60.42 2.55931 59.0745C2.55923 58.883 2.55916 58.6915 2.55908 58.4941C2.55892 58.105 2.55876 57.716 2.5586 57.3269C2.5572 53.6788 2.55881 50.0307 2.56145 46.3826C2.56365 43.2527 2.56327 40.1227 2.561 36.9928C2.55837 33.3577 2.55733 29.7227 2.55884 26.0876C2.559 25.6999 2.55915 25.3123 2.55931 24.9246C2.55942 24.6386 2.55942 24.6386 2.55954 24.3467C2.55996 23.0029 2.55924 21.6591 2.55809 20.3153C2.55671 18.6776 2.55708 17.0399 2.5597 15.4021C2.56099 14.5666 2.5615 13.7311 2.55987 12.8956C2.55841 12.1305 2.55922 11.3655 2.56183 10.6004C2.56238 10.3239 2.5621 10.0473 2.56091 9.77077C2.54721 6.33602 2.54721 6.33602 3.8119 5.00199C4.97044 4.02425 6.27968 4.00679 7.73169 4.0167ZM5.41423 6.8902C5.0012 7.45406 5.04499 8.02095 5.04482 8.7015C5.04434 8.8184 5.04386 8.9353 5.04337 9.05574C5.04217 9.44947 5.04331 9.84316 5.04444 10.2369C5.04406 10.5212 5.04354 10.8055 5.04289 11.0899C5.04152 11.8728 5.0422 12.6556 5.04321 13.4385C5.04395 14.2822 5.04281 15.1259 5.04191 15.9696C5.04045 17.623 5.04076 19.2765 5.04171 20.9299C5.04245 22.2733 5.04256 23.6167 5.0422 24.9601C5.04215 25.151 5.0421 25.342 5.04205 25.5387C5.04194 25.9266 5.04184 26.3145 5.04173 26.7024C5.04079 30.3425 5.04187 33.9826 5.04363 37.6226C5.0451 40.7482 5.04484 43.8738 5.04333 46.9993C5.04157 50.6261 5.04088 54.2528 5.04189 57.8796C5.04199 58.2661 5.0421 58.6526 5.0422 59.0391C5.04225 59.2292 5.0423 59.4194 5.04235 59.6154C5.04264 60.9576 5.04216 62.2999 5.04139 63.6422C5.04047 65.2773 5.04071 66.9123 5.04246 68.5474C5.04333 69.3822 5.04366 70.2169 5.04258 71.0517C5.0416 71.8151 5.04213 72.5785 5.04388 73.3419C5.04425 73.6188 5.04406 73.8957 5.04327 74.1726C5.04228 74.5476 5.04329 74.9226 5.04482 75.2976C5.04487 75.5064 5.04492 75.7151 5.04498 75.9301C5.08449 76.4321 5.11902 76.7059 5.41423 77.1089C5.91871 77.4568 6.3478 77.4784 6.95092 77.4793C7.1306 77.4803 7.31027 77.4814 7.4954 77.4825C7.7914 77.4817 7.7914 77.4817 8.09338 77.4809C8.30306 77.4817 8.51274 77.4824 8.72877 77.4832C9.3112 77.4852 9.89361 77.4852 10.476 77.4848C11.104 77.4847 11.732 77.4865 12.3599 77.4881C13.5903 77.4908 14.8207 77.4917 16.0511 77.4919C17.051 77.492 18.0509 77.4927 19.0507 77.4938C21.8844 77.4966 24.718 77.4982 27.5517 77.4979C27.7045 77.4979 27.8573 77.4979 28.0147 77.4979C28.1677 77.4979 28.3207 77.4978 28.4783 77.4978C30.9586 77.4977 33.439 77.5008 35.9193 77.5055C38.465 77.5102 41.0106 77.5124 43.5563 77.5122C44.986 77.512 46.4156 77.513 47.8453 77.5165C49.0623 77.5195 50.2793 77.5202 51.4964 77.518C52.1175 77.5169 52.7386 77.5169 53.3597 77.5197C54.0326 77.5228 54.7054 77.5207 55.3783 77.5182C55.6738 77.5207 55.6738 77.5207 55.9752 77.5233C57.0098 77.5213 57.0098 77.5213 57.9497 77.1346C58.3633 76.6346 58.4269 76.2341 58.4262 75.6066C58.4264 75.4679 58.4266 75.3292 58.4268 75.1862C58.4262 75.0346 58.4257 74.8829 58.4251 74.7267C58.4251 74.4866 58.4251 74.4866 58.4251 74.2416C58.425 73.7116 58.4237 73.1817 58.4225 72.6517C58.4221 72.2846 58.4219 71.9174 58.4217 71.5503C58.4211 70.5834 58.4195 69.6164 58.4177 68.6495C58.416 67.6631 58.4153 66.6767 58.4144 65.6903C58.4127 63.7543 58.4099 61.8183 58.4064 59.8824C58.0095 60.2744 57.648 60.65 57.3304 61.109C57.2549 61.2175 57.1794 61.3261 57.1016 61.4379C57.0213 61.554 56.9409 61.67 56.8581 61.7896C56.7707 61.9117 56.6834 62.0338 56.5934 62.1596C56.1454 62.7882 55.7233 63.4169 55.3399 64.0871C53.9559 66.3972 51.9737 67.2823 49.6031 68.3301C48.8622 68.6647 48.149 69.0414 47.4347 69.4288C47.1918 69.5575 46.9487 69.6859 46.7054 69.8139C46.5834 69.8783 46.4613 69.9426 46.3355 70.0088C46.2042 70.078 46.0729 70.1471 45.9377 70.2183C45.7848 70.2991 45.632 70.3798 45.4745 70.4631C44.9876 70.719 44.499 70.9714 44.0099 71.2232C43.8594 71.303 43.7088 71.3827 43.5537 71.4649C42.7318 71.8841 42.1258 72.1425 41.1799 72.023C40.5901 71.7848 40.102 71.5423 39.7033 71.0386C39.1946 69.5126 39.6403 67.7118 39.8577 66.1526C39.8744 66.0317 39.8911 65.9107 39.9083 65.786C39.9964 65.1465 40.0861 64.5073 40.1771 63.8682C40.2699 63.214 40.3574 62.5592 40.4438 61.9041C40.512 61.3947 40.584 60.8859 40.6572 60.3772C40.6911 60.1362 40.7236 59.895 40.7546 59.6536C40.9593 58.0708 41.3535 56.9002 42.3283 55.6168C42.4985 55.3756 42.6684 55.1343 42.8378 54.8926C43.0059 54.6619 43.1744 54.4317 43.3434 54.2017C43.5305 53.945 43.7174 53.6883 43.9042 53.4314C43.9973 53.3034 44.0905 53.1754 44.1864 53.0435C44.6114 52.4558 45.0286 51.8626 45.4455 51.2691C46.2102 50.1814 46.9859 49.1023 47.7661 48.0257C48.3658 47.1969 48.9587 46.3637 49.547 45.5269C50.3118 44.4393 51.0875 43.3601 51.8676 42.2835C52.4674 41.4548 53.0602 40.6215 53.6486 39.7847C54.4119 38.6994 55.1845 37.6212 55.9634 36.5471C56.127 36.3214 56.2891 36.0946 56.4496 35.8668C56.6802 35.5534 56.923 35.2487 57.1723 34.95C58.3318 33.5241 58.6435 32.419 58.6005 30.5581C58.6008 30.3085 58.6019 30.059 58.6036 29.8095C58.6062 29.1392 58.5986 28.4695 58.589 27.7993C58.5805 27.0953 58.581 26.3913 58.5804 25.6873C58.5782 24.5072 58.5698 23.3273 58.5572 22.1472C58.5411 20.6334 58.5349 19.1197 58.5319 17.6057C58.5292 16.3009 58.5223 14.9961 58.5145 13.6913C58.5122 13.273 58.5104 12.8548 58.5086 12.4365C58.5056 11.78 58.4999 11.1235 58.4921 10.467C58.4896 10.2264 58.488 9.98569 58.4872 9.74502C58.4859 9.41636 58.4814 9.08773 58.4767 8.75911C58.4741 8.48343 58.4741 8.48343 58.4716 8.20218C58.3977 7.64461 58.249 7.33881 57.9142 6.8902C57.3675 6.5257 57.1984 6.521 56.5613 6.52078C56.3819 6.51992 56.2024 6.51907 56.0175 6.51819C55.8196 6.51892 55.6217 6.51965 55.4178 6.52041C55.2081 6.51989 54.9985 6.51938 54.7825 6.51885C54.1993 6.51748 53.6162 6.51816 53.0331 6.51918C52.4047 6.51992 51.7763 6.51877 51.1479 6.51787C49.9163 6.51641 48.6847 6.51673 47.4532 6.51768C46.4524 6.51842 45.4517 6.51852 44.451 6.51816C44.2376 6.51809 44.2376 6.51809 44.0199 6.51801C43.7309 6.51791 43.4419 6.5178 43.1529 6.51769C40.441 6.51676 37.7291 6.51783 35.0172 6.51959C32.689 6.52106 30.3609 6.52081 28.0327 6.51929C25.331 6.51754 22.6292 6.51685 19.9275 6.51785C19.6395 6.51796 19.3515 6.51806 19.0635 6.51816C18.9218 6.51821 18.7801 6.51826 18.6341 6.51832C17.6344 6.5186 16.6347 6.51812 15.6349 6.51735C14.4169 6.51643 13.1988 6.51668 11.9807 6.51843C11.359 6.51929 10.7372 6.51962 10.1154 6.51854C9.44214 6.51739 8.76888 6.51876 8.09559 6.52041C7.79925 6.51931 7.79925 6.51931 7.49693 6.51819C7.22711 6.51947 7.22711 6.51947 6.95183 6.52078C6.71862 6.52086 6.71862 6.52086 6.48069 6.52094C6.03654 6.56547 5.78125 6.63702 5.41423 6.8902ZM65.2971 27.5621C65.0269 27.9103 64.7657 28.2613 64.5075 28.6182C64.3868 28.784 64.3868 28.784 64.2636 28.9532C63.5944 29.8751 62.9371 30.8052 62.2822 31.7373C61.6806 32.5927 61.0709 33.4419 60.4572 34.2886C59.6841 35.3555 58.9205 36.4285 58.1628 37.5062C57.574 38.3425 56.9767 39.1723 56.3762 40.0001C55.6204 41.0421 54.8769 42.092 54.1408 43.148C53.3184 44.328 52.4841 45.4984 51.6395 46.6625C51.045 47.4827 50.4578 48.3076 49.8752 49.1363C49.1986 50.0985 48.5146 51.0549 47.8244 52.0074C47.1044 53.0015 46.3895 53.9989 45.6813 55.0015C45.6012 55.1149 45.521 55.2282 45.4384 55.345C45.2897 55.5561 45.1416 55.7677 44.9942 55.9798C44.8594 56.1727 44.7221 56.364 44.5823 56.5534C44.3722 56.8376 44.3722 56.8376 44.133 57.2574C44.3119 57.7942 44.3815 57.8549 44.8251 58.1591C44.9916 58.2747 44.9916 58.2747 45.1613 58.3927C45.2822 58.4749 45.403 58.557 45.5275 58.6417C45.7835 58.8189 46.0394 58.9963 46.2953 59.1736C46.4268 59.264 46.5583 59.3545 46.6937 59.4477C47.2992 59.8653 47.9003 60.2888 48.5011 60.713C48.6148 60.793 48.7285 60.8731 48.8456 60.9556C50.0204 61.7855 51.1796 62.6366 52.3361 63.4918C52.8528 63.2701 53.1241 63.0526 53.448 62.5952C53.5312 62.4791 53.6143 62.3629 53.6999 62.2433C53.8319 62.0542 53.8319 62.0542 53.9665 61.8614C54.0596 61.7303 54.1528 61.5992 54.2487 61.4641C55.003 60.3979 55.7367 59.3177 56.4694 58.2367C57.1143 57.2899 57.7908 56.373 58.4853 55.4622C59.116 54.6296 59.7084 53.7751 60.2931 52.9097C61.0283 51.8219 61.7908 50.764 62.5868 49.7201C63.2175 48.8875 63.8099 48.0329 64.3947 47.1675C65.1377 46.0682 65.9085 44.9985 66.7118 43.9426C67.3493 43.1011 67.9503 42.239 68.5435 41.3659C69.1977 40.4055 69.876 39.4637 70.5588 38.5235C71.2818 37.5271 71.9939 36.5234 72.7013 35.5159C73.0697 34.9917 73.4392 34.4698 73.8283 33.9605C73.6116 33.4589 73.4129 33.191 72.9619 32.8845C72.8523 32.8088 72.7427 32.733 72.6298 32.655C72.5109 32.5749 72.3921 32.4947 72.2697 32.4122C72.0156 32.237 71.7616 32.0616 71.5077 31.886C71.3763 31.7956 71.2448 31.7051 71.1093 31.612C70.4676 31.1665 69.8359 30.7076 69.2038 30.2486C68.959 30.0715 68.7142 29.8944 68.4694 29.7173C68.3511 29.6317 68.2328 29.5462 68.111 29.458C67.5529 29.0543 66.9945 28.6511 66.4352 28.2491C66.3384 28.1791 66.2416 28.109 66.1419 28.0369C65.7556 27.7054 65.7556 27.7054 65.2971 27.5621Z" fill="#171717"/>
<path d="M48.6311 15.1754C50.2653 16.3525 51.2491 17.8622 51.6028 19.8467C51.8522 22.0378 51.2413 23.5622 50.0801 25.387C48.6446 26.8226 46.9629 27.5798 44.9326 27.6326C42.9291 27.5644 41.2208 26.8625 39.8159 25.4075C38.4723 23.8028 38.0888 21.8889 38.2266 19.8499C38.5218 18.1514 39.4644 16.4638 40.8516 15.4202C43.2667 14.0175 46.1681 13.6395 48.6311 15.1754Z" fill="#171717"/>
<path d="M21.8204 14.9288C23.6097 16.0798 24.6984 17.5252 25.2029 19.6135C25.5028 21.5291 25.1031 23.3077 24.0147 24.9161C22.8885 26.3436 21.4681 27.1946 19.6876 27.5616C17.5218 27.7992 15.742 27.3013 14.0242 25.9652C12.9603 24.9917 12.3249 23.866 11.9766 22.4757C11.9394 22.3403 11.9022 22.205 11.8639 22.0655C11.6151 20.0751 12.0527 18.1704 13.2891 16.5694C15.4113 14.2562 18.9742 13.3476 21.8204 14.9288Z" fill="#171717"/>
<path d="M70.6674 20.3984C71.4426 20.557 71.9376 20.9636 72.5566 21.4411C72.8191 21.6373 73.0817 21.8334 73.3443 22.0294C73.4783 22.1307 73.6123 22.2319 73.7503 22.3363C74.3949 22.8199 75.05 23.2886 75.7046 23.7585C75.9484 23.9344 76.1922 24.1105 76.4358 24.2866C76.5499 24.3691 76.6641 24.4516 76.7817 24.5365C77.4935 25.0516 78.2041 25.5685 78.9141 26.0862C78.87 27.1954 78.409 27.816 77.7451 28.6804C77.5509 28.9407 77.3567 29.2011 77.1626 29.4616C77.0687 29.586 76.9749 29.7105 76.8783 29.8387C76.5455 30.2836 76.2264 30.7361 75.9097 31.1926C75.8223 31.3182 75.735 31.4438 75.645 31.5733C75.5868 31.6574 75.5287 31.7416 75.4688 31.8283C73.9553 30.9116 72.5347 29.8776 71.1065 28.8353C70.4464 28.3543 69.7839 27.8766 69.1216 27.3987C68.942 27.2689 68.942 27.2689 68.7588 27.1365C68.044 26.6199 67.3275 26.1059 66.6094 25.594C67.2527 24.6093 67.9214 23.6434 68.5986 22.6819C68.6831 22.5616 68.7675 22.4414 68.8545 22.3176C69.0162 22.0887 69.1791 21.8607 69.3435 21.6337C69.5317 21.3714 69.7114 21.103 69.8893 20.8336C70.2188 20.508 70.2188 20.508 70.6674 20.3984Z" fill="#6AC03A"/>
<path d="M66.6096 34.9465C67.0198 35.2849 67.0198 35.2849 67.2659 35.7668C67.2603 36.8873 66.737 37.5173 66.0764 38.361C65.8652 38.6388 65.6541 38.9168 65.4432 39.1948C65.2825 39.4047 65.2825 39.4047 65.1186 39.6188C64.647 40.2406 64.1927 40.8744 63.7385 41.509C63.0071 42.5258 62.2681 43.5368 61.5237 44.5441C60.3275 46.1633 59.1486 47.7947 57.9739 49.4296C57.001 50.7835 56.0248 52.1351 55.0329 53.4753C54.9528 53.585 54.8726 53.6947 54.79 53.8077C54.0404 54.8137 54.0404 54.8137 53.4846 55.1262C52.9001 55.1262 52.9001 55.1262 52.3362 54.9621C51.9409 54.5298 51.8394 54.29 51.8574 53.7047C52.0655 52.9486 52.4712 52.4335 52.9411 51.8142C53.0362 51.6858 53.1313 51.5574 53.2292 51.4251C53.4303 51.1539 53.6322 50.8831 53.8348 50.6129C54.2274 50.0888 54.6156 49.5614 55.0037 49.0338C55.1952 48.7736 55.3868 48.5136 55.5787 48.2537C56.5868 46.8883 57.5791 45.5116 58.5705 44.134C59.7505 42.4944 60.936 40.8596 62.1377 39.2359C62.6327 38.5662 63.1235 37.8939 63.6078 37.2164C63.7543 37.0117 63.7543 37.0117 63.9039 36.8028C64.0907 36.5411 64.277 36.279 64.4627 36.0164C64.546 35.8998 64.6293 35.7831 64.7152 35.663C64.7882 35.56 64.8612 35.4569 64.9365 35.3508C65.387 34.8002 65.9472 34.878 66.6096 34.9465Z" fill="#171717"/>
<path d="M47.0384 17.0116C48.0263 17.5815 48.6932 18.38 49.1103 19.4399C49.4322 20.6686 49.3443 21.8503 48.7565 22.9769C48.091 24.0794 47.3346 24.7279 46.1014 25.1033C44.9198 25.2466 43.656 25.3203 42.608 24.6764C41.6139 23.862 40.7743 22.8692 40.6162 21.5618C40.6146 20.0321 40.7328 19.1063 41.7128 17.9358C43.3416 16.566 45.0237 16.097 47.0384 17.0116Z" fill="#6AC03A"/>
<path d="M20.3847 16.8902C21.4802 17.5104 22.4307 18.4693 22.8046 19.6895C22.9641 21.3078 22.8126 22.5513 21.7997 23.832C20.8136 24.8713 19.8769 25.1404 18.4569 25.1958C17.0429 25.1534 16.1603 24.7626 15.1962 23.7398C14.3118 22.5974 14.1252 21.4423 14.2733 20.0176C14.516 18.7867 15.2768 17.8478 16.2844 17.1279C17.6028 16.3754 18.9868 16.2748 20.3847 16.8902Z" fill="#6AC03A"/>
<path d="M43.1486 59.8828C43.9335 60.138 44.4965 60.5822 45.1379 61.0825C46.2859 61.9626 47.4637 62.7887 48.6637 63.5962C49.308 64.031 49.9336 64.4703 50.5314 64.9688C50.3674 65.4609 50.3674 65.4609 50.0367 65.6715C49.8204 65.7757 49.8204 65.7757 49.5996 65.882C49.4384 65.9609 49.2771 66.0398 49.111 66.121C48.9368 66.2044 48.7626 66.2877 48.5832 66.3735C48.2227 66.5495 47.8623 66.7257 47.502 66.9023C47.3214 66.9905 47.1409 67.0787 46.9548 67.1696C46.0772 67.6044 45.2136 68.065 44.3513 68.5291C43.5288 68.9684 42.6917 69.3565 41.8361 69.7266C41.8077 68.5785 41.9145 67.4938 42.0816 66.3588C42.1067 66.1832 42.1318 66.0077 42.1576 65.8268C42.2105 65.4584 42.2639 65.0902 42.3178 64.722C42.4004 64.1566 42.4813 63.591 42.5619 63.0253C42.6136 62.6667 42.6654 62.3082 42.7173 61.9496C42.7416 61.7801 42.7659 61.6106 42.7909 61.4359C42.8138 61.2798 42.8368 61.1236 42.8605 60.9627C42.8906 60.7563 42.8906 60.7563 42.9212 60.5457C42.9845 60.2109 42.9845 60.2109 43.1486 59.8828Z" fill="#53992B"/>
<path d="M17.1886 65.4323C17.383 65.4307 17.5774 65.4291 17.7777 65.4275C17.9879 65.4268 18.1981 65.4261 18.4147 65.4254C18.6305 65.4245 18.8464 65.4235 19.0688 65.4226C19.5258 65.4208 19.9829 65.4199 20.4399 65.4193C21.0245 65.4184 21.609 65.4145 22.1936 65.4098C22.7523 65.406 23.311 65.4057 23.8698 65.4049C24.0793 65.4029 24.2888 65.4008 24.5047 65.3988C24.7002 65.3993 24.8956 65.3997 25.0969 65.4002C25.2685 65.3997 25.4401 65.3991 25.6168 65.3984C26.1592 65.4681 26.4677 65.6294 26.9062 65.9509C27.1392 66.417 27.1219 66.7474 27.0703 67.2634C26.7186 67.7306 26.5225 67.9006 25.9409 68.003C25.6662 68.0038 25.6662 68.0038 25.3861 68.0046C25.178 68.0067 24.97 68.0087 24.7556 68.0109C24.5291 68.0097 24.3026 68.0083 24.0761 68.0068C23.8432 68.0073 23.6103 68.0079 23.3774 68.0087C22.8897 68.0097 22.4021 68.0083 21.9145 68.0052C21.2899 68.0015 20.6655 68.0036 20.041 68.0076C19.5602 68.0099 19.0794 68.0092 18.5986 68.0075C18.3684 68.007 18.1381 68.0076 17.9079 68.0091C17.5859 68.0108 17.2639 68.0078 16.942 68.0046C16.7589 68.0041 16.5758 68.0035 16.3871 68.003C15.8058 67.9006 15.611 67.7288 15.2578 67.2634C15.1752 66.697 15.1896 66.3992 15.4731 65.8996C15.9789 65.3938 16.5107 65.4367 17.1886 65.4323Z" fill="#171717"/>
<path d="M17.1736 58.0566C17.3647 58.0556 17.5558 58.0545 17.7527 58.0534C17.9593 58.0533 18.1659 58.0531 18.3788 58.0529C18.591 58.0523 18.8032 58.0518 19.0219 58.0512C19.4712 58.0503 19.9205 58.0499 20.3698 58.05C20.9445 58.0501 21.5191 58.0478 22.0937 58.045C22.643 58.0427 23.1923 58.0428 23.7416 58.0426C23.9475 58.0415 24.1535 58.0403 24.3657 58.0391C24.6539 58.0398 24.6539 58.0398 24.9479 58.0406C25.1166 58.0404 25.2852 58.0401 25.459 58.0399C25.9543 58.0833 26.3016 58.1794 26.7421 58.4086C27.124 58.9814 27.1528 59.2112 27.0703 59.8851C26.7178 60.3514 26.5224 60.5223 25.9409 60.6247C25.6662 60.6255 25.6662 60.6255 25.3861 60.6263C25.178 60.6284 24.97 60.6304 24.7556 60.6326C24.5291 60.6314 24.3026 60.63 24.0761 60.6285C23.8432 60.629 23.6103 60.6296 23.3774 60.6304C22.8897 60.6314 22.4021 60.63 21.9145 60.6269C21.2899 60.6232 20.6655 60.6254 20.041 60.6293C19.5602 60.6317 19.0794 60.6309 18.5986 60.6292C18.3684 60.6288 18.1381 60.6293 17.9079 60.6308C17.5859 60.6325 17.2639 60.6295 16.942 60.6263C16.7589 60.6258 16.5758 60.6253 16.3871 60.6247C15.8058 60.5223 15.611 60.3505 15.2578 59.8851C15.1752 59.3187 15.1896 59.0209 15.4731 58.5214C15.976 58.0185 16.4997 58.0591 17.1736 58.0566Z" fill="#171717"/>
<path d="M17.341 50.6738C17.5288 50.6728 17.7166 50.6717 17.9101 50.6706C18.1123 50.6704 18.3145 50.6703 18.5228 50.6701C18.7311 50.6695 18.9395 50.669 19.1541 50.6684C19.5948 50.6676 20.0354 50.6671 20.476 50.6672C21.0394 50.6672 21.6028 50.665 22.1662 50.6622C22.7052 50.6599 23.2441 50.66 23.7831 50.6598C23.9849 50.6586 24.1868 50.6575 24.3947 50.6562C24.6772 50.657 24.6772 50.657 24.9654 50.6578C25.2133 50.6574 25.2133 50.6574 25.4662 50.6571C25.9578 50.7009 26.3043 50.7988 26.742 51.0258C27.1238 51.5985 27.1526 51.8284 27.0701 52.5023C26.7177 52.9686 26.5222 53.1395 25.9407 53.2419C25.6661 53.2427 25.6661 53.2427 25.3859 53.2435C25.1778 53.2456 24.9698 53.2476 24.7554 53.2498C24.5289 53.2486 24.3024 53.2472 24.0759 53.2457C23.843 53.2462 23.6101 53.2468 23.3772 53.2476C22.8896 53.2486 22.402 53.2472 21.9143 53.2441C21.2897 53.2404 20.6654 53.2425 20.0408 53.2465C19.56 53.2488 19.0793 53.2481 18.5985 53.2464C18.3682 53.246 18.138 53.2465 17.9077 53.248C17.5857 53.2497 17.2638 53.2467 16.9418 53.2435C16.7587 53.243 16.5756 53.2424 16.387 53.2419C15.8056 53.1395 15.6108 52.9677 15.2576 52.5023C15.1758 51.9415 15.1925 51.6384 15.4627 51.1386C15.9974 50.623 16.6277 50.6765 17.341 50.6738Z" fill="#171717"/>
<path d="M17.3384 43.2835C17.6193 43.2812 17.6193 43.2812 17.9059 43.2788C18.1076 43.2781 18.3093 43.2774 18.517 43.2766C18.829 43.2752 18.829 43.2752 19.1472 43.2738C19.5871 43.2723 20.027 43.2711 20.467 43.2706C21.0289 43.2697 21.5908 43.2657 22.1528 43.261C22.6908 43.2572 23.2289 43.2569 23.767 43.2561C23.968 43.2541 24.1691 43.2521 24.3761 43.25C26.141 43.2546 26.141 43.2546 26.906 43.8022C27.1391 44.2682 27.1217 44.5986 27.0701 45.1147C26.7184 45.5819 26.5223 45.7518 25.9407 45.8542C25.6661 45.855 25.6661 45.855 25.3859 45.8558C25.1778 45.8579 24.9698 45.86 24.7554 45.8621C24.5289 45.8609 24.3024 45.8596 24.0759 45.8581C23.843 45.8585 23.6101 45.8591 23.3772 45.86C22.8896 45.8609 22.402 45.8595 21.9143 45.8565C21.2897 45.8527 20.6654 45.8549 20.0408 45.8588C19.56 45.8612 19.0793 45.8604 18.5985 45.8587C18.3682 45.8583 18.138 45.8588 17.9077 45.8604C17.5857 45.862 17.2638 45.859 16.9418 45.8558C16.7587 45.8553 16.5756 45.8548 16.387 45.8542C15.8056 45.7518 15.6108 45.58 15.2576 45.1147C15.1758 44.5538 15.1925 44.2507 15.4627 43.7509C15.9961 43.2365 16.6265 43.2884 17.3384 43.2835Z" fill="#171717"/>
<path d="M16.7746 36.0102C16.986 36.0081 17.1973 36.006 17.4151 36.0039C17.6461 36.0051 17.877 36.0064 18.108 36.0079C18.3448 36.0075 18.5816 36.0069 18.8184 36.006C19.3148 36.0051 19.8111 36.0065 20.3075 36.0095C20.9433 36.0133 21.5789 36.0111 22.2146 36.0072C22.7038 36.0048 23.1928 36.0056 23.6819 36.0073C23.9163 36.0077 24.1507 36.0072 24.385 36.0056C24.7129 36.004 25.0408 36.007 25.3687 36.0102C25.5552 36.0107 25.7417 36.0112 25.9339 36.0118C26.5205 36.1135 26.7147 36.2817 27.0706 36.7513C27.1526 37.2435 27.1526 37.2435 27.0706 37.7357C26.7168 38.2007 26.5226 38.3729 25.9412 38.4753C25.6665 38.4761 25.6665 38.4761 25.3864 38.4769C25.1783 38.4789 24.9703 38.481 24.7559 38.4831C24.5294 38.482 24.3029 38.4806 24.0764 38.4791C23.8435 38.4796 23.6106 38.4802 23.3777 38.481C22.89 38.482 22.4024 38.4806 21.9148 38.4775C21.2902 38.4738 20.6658 38.4759 20.0413 38.4799C19.5605 38.4822 19.0797 38.4815 18.5989 38.4798C18.3687 38.4793 18.1384 38.4799 17.9082 38.4814C17.5862 38.4831 17.2642 38.4801 16.9423 38.4769C16.7592 38.4764 16.5761 38.4758 16.3874 38.4753C15.8061 38.3729 15.6112 38.2011 15.2581 37.7357C15.1791 37.1942 15.1884 36.8834 15.4446 36.3978C15.8792 35.9674 16.1699 36.0119 16.7746 36.0102Z" fill="#171717"/>
<path d="M43.1913 36.0125C43.5091 36.0102 43.5091 36.0102 43.8333 36.0078C44.0648 36.0095 44.2963 36.0114 44.5278 36.0134C44.765 36.0134 45.0022 36.0131 45.2394 36.0127C45.7365 36.0124 46.2335 36.0145 46.7306 36.0182C47.3678 36.0229 48.0049 36.0225 48.6422 36.0204C49.132 36.0192 49.6217 36.0205 50.1115 36.0225C50.3465 36.0233 50.5814 36.0233 50.8164 36.0227C51.1447 36.0222 51.473 36.0253 51.8014 36.0285C51.9882 36.0294 52.1751 36.0303 52.3676 36.0312C52.8283 36.0948 52.8283 36.0948 53.129 36.3155C53.4269 36.7378 53.4743 37.0575 53.4846 37.5714C53.2225 38.0071 53.2225 38.0071 52.8283 38.3917C52.3479 38.4947 52.3479 38.4947 51.7827 38.4952C51.5709 38.4973 51.359 38.4993 51.1407 38.5014C50.9101 38.4994 50.6794 38.4972 50.4488 38.4948C50.2118 38.495 49.9748 38.4954 49.7379 38.496C49.2418 38.4965 48.7458 38.4941 48.2497 38.4896C47.6137 38.484 46.978 38.485 46.342 38.4881C45.8529 38.4898 45.3638 38.4883 44.8747 38.4859C44.6402 38.485 44.4057 38.4851 44.1712 38.4861C43.8437 38.487 43.5162 38.4832 43.1887 38.4792C43.0023 38.4782 42.8159 38.4771 42.6239 38.4761C42.1643 38.3917 42.1643 38.3917 41.858 38.0888C41.6051 37.608 41.6051 37.2873 41.6721 36.751C42.0527 36.0262 42.4028 36.0126 43.1913 36.0125Z" fill="#171717"/>
<path d="M44.7788 43.2825C44.9568 43.2805 45.1348 43.2785 45.3181 43.2764C45.4902 43.2761 45.6622 43.2758 45.8395 43.2755C45.9959 43.2748 46.1524 43.2741 46.3137 43.2734C46.9795 43.3332 47.4323 43.4956 47.9063 43.9695C47.9994 45.1435 47.9994 45.1435 47.7301 45.5439C47.2467 45.8962 46.8264 45.8409 46.2349 45.8454C46.1202 45.8462 46.0055 45.8471 45.8874 45.848C45.6453 45.849 45.4031 45.8488 45.1609 45.8474C44.7903 45.846 44.4201 45.8507 44.0495 45.8559C43.8141 45.8562 43.5787 45.8561 43.3433 45.8556C43.129 45.8559 42.9148 45.8562 42.6941 45.8565C42.1641 45.7742 42.1641 45.7742 41.8481 45.4718C41.6084 44.9904 41.6055 44.6649 41.6719 44.1336C41.8885 43.7329 42.0176 43.5266 42.4541 43.3797C43.2193 43.2409 44.0035 43.283 44.7788 43.2825Z" fill="#171717"/>
<path d="M12.602 65.5542C12.9608 65.7901 12.9608 65.7901 13.2069 66.3335C13.289 66.9385 13.289 66.9385 13.0736 67.4102C12.7968 67.7588 12.7968 67.7588 12.6327 67.9229C10.9124 68.1051 10.9124 68.1051 10.2025 67.5845C9.94616 66.9503 9.96688 66.605 10.1718 65.9541C10.8958 65.294 11.6868 65.3712 12.602 65.5542Z" fill="#171717"/>
<path d="M11.8945 58.1187C12.0849 58.1352 12.0849 58.1352 12.2791 58.152C12.7005 58.2589 12.8569 58.3967 13.125 58.7339C13.2686 59.1236 13.2686 59.1236 13.2891 59.5542C13.1018 59.9288 12.9297 60.2417 12.6328 60.5386C12.3122 60.5635 11.9905 60.575 11.6689 60.5796C11.4056 60.586 11.4056 60.586 11.137 60.5924C10.6641 60.5386 10.6641 60.5386 10.3648 60.3252C10.0425 59.8594 10.0176 59.4555 10.0078 58.898C10.5293 58.1903 11.0433 58.0336 11.8945 58.1187Z" fill="#171717"/>
<path d="M38.3186 50.7379C38.444 50.7489 38.5694 50.7599 38.6987 50.7712C39.122 50.8804 39.2816 51.0016 39.5388 51.3531C39.6042 51.671 39.6042 51.671 39.6004 52.0094C39.6016 52.1211 39.6029 52.2327 39.6042 52.3478C39.5166 52.7739 39.4047 52.9103 39.0466 53.1578C38.591 53.229 38.591 53.229 38.0725 53.2296C37.9019 53.2328 37.7312 53.236 37.5553 53.2392C36.9693 53.1393 36.7783 52.969 36.4216 52.5016C36.3399 51.9408 36.3565 51.6377 36.6267 51.1378C37.1273 50.6551 37.6514 50.6702 38.3186 50.7379Z" fill="#171717"/>
<path d="M11.8945 50.7359C12.0849 50.7524 12.0849 50.7524 12.2791 50.7692C12.7005 50.8761 12.8569 51.0139 13.125 51.3511C13.2686 51.7407 13.2686 51.7407 13.2891 52.1714C13.1018 52.546 12.9297 52.8589 12.6328 53.1558C12.3122 53.1807 11.9905 53.1922 11.6689 53.1968C11.4056 53.2031 11.4056 53.2031 11.137 53.2096C10.6641 53.1558 10.6641 53.1558 10.3648 52.9424C10.0425 52.4766 10.0176 52.0727 10.0078 51.5152C10.5293 50.8075 11.0433 50.6507 11.8945 50.7359Z" fill="#171717"/>
<path d="M38.3186 43.3551C38.444 43.3661 38.5694 43.3771 38.6987 43.3884C39.122 43.4976 39.2816 43.6188 39.5388 43.9703C39.6042 44.2882 39.6042 44.2882 39.6004 44.6266C39.6016 44.7383 39.6029 44.8499 39.6042 44.965C39.5166 45.3911 39.4047 45.5275 39.0466 45.775C38.591 45.8462 38.591 45.8462 38.0725 45.8468C37.9019 45.85 37.7312 45.8531 37.5553 45.8564C36.9693 45.7565 36.7783 45.5862 36.4216 45.1188C36.3399 44.5579 36.3565 44.2548 36.6267 43.755C37.1273 43.2723 37.6514 43.2874 38.3186 43.3551Z" fill="#171717"/>
<path d="M12.6328 43.4788C12.9836 43.765 13.1107 43.9322 13.2686 44.3607C13.2951 44.9179 13.1185 45.1663 12.7969 45.6116C12.5011 45.9074 12.0678 45.811 11.6689 45.8167C11.4056 45.8231 11.4056 45.8231 11.137 45.8295C10.6641 45.7757 10.6641 45.7757 10.3635 45.5572C10.0758 45.1464 10.0382 44.7948 10.0078 44.2991C10.1383 43.8294 10.2635 43.689 10.6743 43.4276C11.3398 43.2718 11.9728 43.2947 12.6328 43.4788Z" fill="#171717"/>
<path d="M37.4114 36.0117C37.5992 36.0149 37.787 36.0181 37.9805 36.0213C38.2622 36.0216 38.2622 36.0216 38.5496 36.022C39.0469 36.0931 39.0469 36.0931 39.3558 36.3027C39.5758 36.6419 39.6052 36.8393 39.6006 37.2415C39.6019 37.3532 39.6031 37.4649 39.6044 37.5799C39.5168 38.006 39.4049 38.1425 39.0469 38.39C38.5912 38.4611 38.5912 38.4611 38.0728 38.4618C37.9021 38.4649 37.7314 38.4681 37.5556 38.4714C36.9696 38.3715 36.7786 38.2011 36.4219 37.7337C36.3431 37.1933 36.3534 36.8812 36.6058 36.395C36.9141 36.0931 36.9141 36.0931 37.4114 36.0117Z" fill="#171717"/>
<path d="M11.6382 36.0519C11.8993 36.0455 11.8993 36.0455 12.1656 36.0391C12.6328 36.0929 12.6328 36.0929 12.9321 36.3172C13.2002 36.6895 13.2672 36.9465 13.2891 37.4054C13.1018 37.78 12.9297 38.0928 12.6328 38.3898C12.3122 38.4147 11.9905 38.4262 11.6689 38.4308C11.4056 38.4371 11.4056 38.4371 11.137 38.4436C10.6641 38.3898 10.6641 38.3898 10.3635 38.1712C10.0758 37.7604 10.0382 37.4089 10.0078 36.9132C10.3144 36.0407 10.7772 36.0644 11.6382 36.0519Z" fill="#171717"/>
</svg>
