<svg width="84" height="84" viewBox="0 0 84 84" fill="none" xmlns="http://www.w3.org/2000/svg">
<path d="M43.4765 3.11719C46.9318 3.11719 46.9318 3.11719 48.3574 3.31201C48.5229 3.33409 48.6884 3.35616 48.859 3.3789C58.5589 4.74393 68.0191 9.76822 74.1139 17.5547C74.2361 17.7171 74.3584 17.8795 74.4843 18.0469C74.5622 18.1486 74.6401 18.2503 74.7203 18.3551C81.0036 26.5972 83.8564 36.9644 82.5887 47.2628C82.024 51.4089 80.947 55.4726 79.0781 59.2266C79.0097 59.365 78.9414 59.5035 78.871 59.6462C77.917 61.564 76.8903 63.3974 75.6328 65.1328C75.5662 65.2249 75.4996 65.317 75.4311 65.4118C74.5585 66.6064 73.6124 67.713 72.6002 68.7909C72.2629 69.1534 71.9412 69.5215 71.6235 69.9009C65.3853 77.0344 55.4024 80.9631 46.14 81.6269C42.314 81.8464 38.5218 81.5469 34.7812 80.7187C34.6512 80.6902 34.5212 80.6618 34.3872 80.6324C27.9727 79.1846 21.9376 75.9537 17.1605 71.4402C16.8047 71.1053 16.4425 70.7884 16.0678 70.4751C12.1175 67.0206 8.4935 61.5818 6.89058 56.6016C6.89058 56.4391 6.89058 56.2767 6.89058 56.1094C6.65837 56.1804 6.65837 56.1804 6.42146 56.2529C3.29616 57.1719 3.29616 57.1719 2.01421 56.5484C1.47554 56.152 1.3482 55.756 1.14839 55.125C1.1013 54.273 1.22118 53.5098 1.42413 52.6871C1.45348 52.5637 1.48283 52.4403 1.51307 52.3131C1.60976 51.9083 1.70838 51.504 1.80721 51.0997C1.87558 50.8168 1.9439 50.5339 2.01215 50.251C2.15526 49.6593 2.29937 49.0679 2.44415 48.4766C2.62917 47.7204 2.81118 46.9636 2.99239 46.2065C3.13261 45.6225 3.27465 45.039 3.41722 44.4555C3.48507 44.1767 3.55231 43.8977 3.61891 43.6186C3.71237 43.2279 3.80833 42.8379 3.90493 42.4479C3.93172 42.3336 3.95851 42.2193 3.98611 42.1015C4.21005 41.2153 4.57434 40.522 5.24291 39.8935C5.88537 39.5286 6.50683 39.5902 7.21871 39.7031C8.39156 40.2727 9.29015 41.2265 10.1821 42.1538C10.9812 42.9762 11.783 43.7722 12.6536 44.519C13.1347 44.9418 13.5799 45.3975 14.0273 45.8555C14.698 46.5346 15.3782 47.1853 16.1037 47.8063C18.0774 49.5291 18.0774 49.5291 18.2615 50.6851C18.2995 51.2935 18.2239 51.6515 17.9648 52.2129C16.948 53.3314 15.5418 53.5243 14.1093 53.8125C15.7775 57.4531 17.6125 60.7117 20.3745 63.6364C20.6718 63.9844 20.6718 63.9844 20.8359 64.3375C21.0473 64.7281 21.2597 64.7823 21.6562 64.9687C21.8679 65.174 22.0723 65.387 22.2714 65.6045C27.4156 70.8498 35.5266 73.785 42.7654 73.8678C51.2343 73.8877 59.1319 70.9914 65.2968 65.1328C65.4212 65.0152 65.4212 65.0152 65.548 64.8951C66.86 63.6459 68.0239 62.3462 69.0703 60.8672C69.139 60.7703 69.2077 60.6735 69.2785 60.5737C74.0214 53.8212 76.031 45.2932 74.6542 37.1262C73.7253 32.185 71.8409 27.4488 68.7421 23.4609C68.5785 23.2455 68.5785 23.2455 68.4115 23.0258C63.2115 16.3356 55.5467 12.0994 47.1519 11.0343C46.3451 10.9481 45.5356 10.9053 44.7249 10.8757C43.8341 10.8428 43.8341 10.8428 43.4765 10.6641C43.4765 8.17359 43.4765 5.68312 43.4765 3.11719Z" fill="#171717"/>
<path d="M31.6164 25.9459C31.9054 26.1776 32.1801 26.4196 32.4536 26.6693C32.5534 26.7576 32.6532 26.8458 32.756 26.9368C33.0501 27.1977 33.3418 27.4611 33.6328 27.7255C33.7813 27.8596 33.9297 27.9936 34.0827 28.1318C34.3477 28.3714 34.6124 28.6113 34.8767 28.8515C35.2938 29.22 35.722 29.5706 36.1553 29.9198C36.9013 30.523 37.6073 31.157 38.3088 31.8103C39.0012 32.4512 39.7237 33.0485 40.4619 33.6362C40.8516 33.9599 40.8516 33.9599 41.1547 34.329C41.6587 34.7388 42.1125 34.6668 42.728 34.6264C45.1255 34.5538 47.1454 35.1902 48.9316 36.831C50.1823 38.1533 51.0188 39.8468 51.1875 41.6708C51.2046 41.8459 51.2046 41.8459 51.2221 42.0246C51.3204 44.1124 50.5335 46.0763 49.2598 47.7001C47.8758 49.1991 45.981 50.085 43.9534 50.2411C41.6088 50.2922 39.5149 49.6424 37.7754 48.0282C36.6229 46.7862 35.6028 45.0205 35.6012 43.285C35.6135 43.0327 35.6269 42.7805 35.6413 42.5283C35.7245 41.292 35.7245 41.292 35.2907 40.1603C34.8679 39.7063 34.4222 39.2963 33.9609 38.8817C33.7126 38.5891 33.4697 38.2917 33.2329 37.9896C32.6327 37.2455 32.0008 36.5427 31.3501 35.8434C30.7304 35.1735 30.1562 34.4732 29.5844 33.7618C29.1622 33.2545 28.7197 32.7713 28.27 32.2885C26.4797 30.3507 26.4797 30.3507 26.3115 29.5097C26.5509 28.4087 27.4358 27.6328 28.2085 26.8642C28.3082 26.7618 28.4079 26.6594 28.5107 26.554C29.4924 25.5711 30.3 25.0581 31.6164 25.9459Z" fill="#53992B"/>
<path d="M11.6486 16.0778C12.2279 16.4095 12.7318 16.8256 13.2482 17.2467C13.5542 17.4884 13.8603 17.7298 14.1666 17.9709C14.3208 18.0934 14.475 18.2159 14.6339 18.3421C15.3321 18.8895 16.048 19.4114 16.7653 19.9332C19.4067 21.8671 19.4067 21.8671 20.1799 22.6403C20.2676 23.4025 20.2837 23.8925 19.8383 24.5302C19.6922 24.7129 19.5428 24.893 19.3903 25.0705C19.2791 25.208 19.2791 25.208 19.1657 25.3483C18.9617 25.5981 18.7507 25.8421 18.5392 26.0856C18.4676 26.1877 18.3959 26.2899 18.322 26.3951C17.9335 26.6532 17.5686 26.6861 17.1092 26.667C16.3209 26.4792 15.738 25.9139 15.1247 25.4088C14.8201 25.167 14.5152 24.9254 14.2102 24.684C14.057 24.5615 13.9038 24.4389 13.7459 24.3127C13.0536 23.7671 12.3414 23.2502 11.6281 22.7326C8.27362 20.2775 8.27362 20.2775 8.13281 19.4238C8.23591 18.6093 8.66544 18.134 9.16718 17.5031C9.25833 17.3837 9.34948 17.2643 9.44339 17.1413C10.0779 16.321 10.5341 15.8254 11.6486 16.0778Z" fill="#53992B"/>
<path d="M22.4766 7.05479C23.1438 7.59102 23.595 8.26921 24.0557 8.98253C24.1257 9.08925 24.1957 9.19597 24.2678 9.30593C24.4922 9.64859 24.715 9.99222 24.9375 10.336C25.0855 10.5638 25.2336 10.7915 25.3816 11.0192C25.682 11.4817 25.9808 11.9453 26.2788 12.4093C26.5982 12.9053 26.9231 13.3971 27.2517 13.8871C27.3346 14.0119 27.4175 14.1367 27.5029 14.2653C27.6615 14.5037 27.8213 14.7412 27.9825 14.9778C28.3986 15.6071 28.7088 16.1202 28.7109 16.8985C28.4049 17.6523 27.8479 18.0533 27.1934 18.4982C27.1035 18.5635 27.0136 18.6289 26.921 18.6962C26.2673 19.1478 25.7324 19.3485 24.9375 19.3595C24.2898 19.047 23.9555 18.7121 23.5737 18.1091C23.4762 17.9572 23.3787 17.8053 23.2782 17.6488C23.125 17.4043 23.125 17.4043 22.9688 17.1549C22.7502 16.8127 22.5317 16.4704 22.3131 16.1282C22.2036 15.9554 22.0941 15.7825 21.9813 15.6045C21.4107 14.7081 20.8259 13.8209 20.2435 12.9322C20.0012 12.5604 19.7616 12.1871 19.5234 11.8126C19.4315 11.6687 19.3395 11.5248 19.2448 11.3765C19.1547 11.2317 19.0645 11.087 18.9716 10.9378C18.8893 10.8065 18.807 10.6752 18.7222 10.54C18.5391 10.172 18.5391 10.172 18.5186 9.53624C18.8544 8.60325 19.5884 8.18417 20.4053 7.67003C20.6762 7.49619 20.6762 7.49619 20.9526 7.31883C21.54 7.03141 21.8349 6.93372 22.4766 7.05479Z" fill="#53992B"/>
<path d="M6.75361 28.9517C6.94242 29.0082 7.13123 29.0647 7.32576 29.1228C7.72331 29.2421 8.1207 29.362 8.51792 29.4824C9.12467 29.6658 9.73224 29.8464 10.3399 30.0268C10.727 30.1433 11.1141 30.2601 11.5012 30.377C11.6822 30.4305 11.8632 30.484 12.0497 30.5392C12.9423 30.8124 13.7181 31.0593 14.4376 31.6658C14.7597 32.6403 14.48 33.4149 14.1505 34.3421C14.107 34.475 14.0634 34.6079 14.0185 34.7448C13.6827 35.7238 13.6827 35.7238 13.1251 36.0955C11.9114 36.2197 10.857 35.866 9.70353 35.5142C9.50341 35.4542 9.30328 35.3943 9.09709 35.3325C8.67554 35.2056 8.25429 35.0779 7.83335 34.9489C7.29586 34.7844 6.75724 34.624 6.2182 34.4647C5.70102 34.3111 5.18501 34.1537 4.66886 33.9966C4.47625 33.9399 4.28363 33.8831 4.08518 33.8246C2.3847 33.2966 2.3847 33.2966 1.80482 32.4861C1.68915 31.6281 1.89043 30.8848 2.1637 30.0764C2.19596 29.9697 2.22821 29.863 2.26144 29.7531C3.02295 27.4545 4.98467 28.417 6.75361 28.9517Z" fill="#53992B"/>
<path d="M36.0936 2.46144C36.5185 2.80592 36.6629 3.08422 36.7819 3.61284C36.8126 3.74504 36.8433 3.87724 36.8749 4.01345C36.9062 4.15647 36.9375 4.29949 36.9697 4.44685C37.0039 4.59613 37.038 4.7454 37.0732 4.8992C37.1825 5.37824 37.2892 5.85779 37.3959 6.33742C37.4669 6.65148 37.5382 6.96551 37.6096 7.27949C37.7151 7.74369 37.8203 8.20794 37.9243 8.67247C38.0853 9.39157 38.2494 10.1095 38.4245 10.8253C38.4553 10.9517 38.4861 11.0782 38.5178 11.2085C38.5748 11.4412 38.6326 11.6737 38.6916 11.906C38.8475 12.5443 38.9339 13.1251 38.8827 13.7818C38.4073 14.5389 37.8929 14.6852 37.037 14.8994C36.1496 15.0743 35.3537 15.1943 34.453 15.0943C33.8472 14.6245 33.6778 14.1983 33.5062 13.463C33.4592 13.2664 33.4122 13.0698 33.3638 12.8673C33.3153 12.6532 33.2669 12.4392 33.2187 12.2251C33.1675 12.0044 33.1161 11.7837 33.0647 11.563C32.9575 11.101 32.8521 10.6385 32.7479 10.1758C32.6146 9.58468 32.4767 8.99478 32.3373 8.40508C32.2303 7.94964 32.126 7.49362 32.0224 7.03739C31.9726 6.81971 31.922 6.60223 31.8705 6.38496C31.3623 4.23006 31.3623 4.23006 31.828 3.28175C32.2452 3.02217 32.5121 2.91423 32.9764 2.78956C33.1465 2.74219 33.3165 2.69482 33.4917 2.64601C35.1876 2.21237 35.1876 2.21237 36.0936 2.46144Z" fill="#53992B"/>
</svg>
