<svg width="356" height="356" viewBox="0 0 356 356" fill="none" xmlns="http://www.w3.org/2000/svg">
<g clip-path="url(#clip0_121_520)">
<path d="M238.796 -0.259305C239.412 -0.264829 240.028 -0.270354 240.663 -0.276046C256.099 -0.382528 273.811 1.05909 285.686 12.0825C289.907 16.5818 291.545 21.5701 291.442 27.6944C290.791 36.9726 286.146 43.1158 279.475 49.3062C272.071 55.4502 262.7 59.2342 253.896 62.9099C252.377 63.5444 250.863 64.1872 249.348 64.8312C248.366 65.2454 247.384 65.6592 246.401 66.0724C245.957 66.2607 245.513 66.449 245.056 66.643C242.178 67.8395 239.439 68.6661 236.406 69.5327C236.406 76.1868 236.406 82.841 236.406 89.6967C237.781 89.497 239.157 89.2973 240.574 89.0916C245.224 88.4172 249.876 87.7497 254.527 87.0851C257.335 86.6837 260.143 86.2804 262.95 85.8717C274.715 84.1605 286.469 82.564 298.311 81.4915C298.777 81.4488 299.242 81.4061 299.722 81.3622C332.218 78.4277 332.218 78.4277 341.602 85.7666C344.663 88.729 345.719 91.1964 345.918 95.4765C345.996 101.837 342.303 107.51 338.921 112.642C338.177 113.798 337.434 114.954 336.691 116.11C336.13 116.98 336.13 116.98 335.557 117.867C322.078 138.82 312.429 160.706 309.414 185.65C309.349 186.177 309.284 186.704 309.217 187.247C306.886 207.988 311.291 225.729 317.02 245.382C318.636 250.929 320.222 256.485 321.782 262.048C322.077 263.099 322.375 264.149 322.674 265.199C325.309 274.435 327.925 283.876 327.796 293.554C327.79 294.14 327.785 294.726 327.779 295.33C327.407 309.158 319.89 319.322 310.378 328.564C295.417 342.478 274.858 349.764 255.18 353.915C254.675 354.029 254.169 354.143 253.649 354.26C237.393 357.821 216.895 358.211 200.945 353.22C200.443 353.067 199.94 352.915 199.423 352.757C192.619 350.625 185.661 347.929 181.274 342.044C178.538 339.327 175.693 339.508 171.993 339.469C170.649 339.487 170.649 339.487 169.277 339.505C168.316 339.503 167.355 339.499 166.394 339.493C164.331 339.484 162.268 339.488 160.204 339.503C156.94 339.526 153.677 339.52 150.413 339.509C145.25 339.496 140.089 339.502 134.926 339.517C125.681 339.543 116.435 339.546 107.189 339.528C103.945 339.522 100.702 339.528 97.4582 339.543C95.4403 339.551 93.4224 339.55 91.4045 339.548C90.0243 339.548 88.6442 339.56 87.264 339.571C86.4404 339.569 85.6167 339.566 84.7681 339.563C84.0537 339.565 83.3394 339.568 82.6034 339.57C80.3338 339.272 79.029 338.552 77.1796 337.228C75.0636 334.45 75.5199 330.731 75.4562 327.385C75.3421 324.402 75.015 322.758 73.0077 320.54C72.1941 318.1 72.2183 315.912 72.2288 313.373C72.2282 312.852 72.2276 312.33 72.227 311.793C72.2258 310.041 72.2296 308.289 72.2334 306.537C72.2336 305.283 72.2335 304.03 72.2331 302.776C72.2329 299.367 72.237 295.958 72.2419 292.549C72.2462 288.988 72.2466 285.428 72.2475 281.867C72.2496 275.122 72.2553 268.378 72.2623 261.633C72.2701 253.955 72.2739 246.277 72.2774 238.6C72.2847 222.804 72.2969 207.008 72.3124 191.212C71.624 191.442 70.9357 191.671 70.2264 191.908C54.3108 193.255 37.0492 189.833 24.2625 179.78C16.4436 173.118 11.2355 165.18 10.2744 154.766C8.73998 129.329 22.8195 106.464 39.0569 87.9775C40.6268 86.221 42.2148 84.4822 43.8046 82.7436C44.7201 81.7192 44.7201 81.7192 45.6542 80.674C49.6647 76.2019 53.8459 72.0595 58.4061 68.1421C59.0676 67.5586 59.7291 66.9751 60.4106 66.3739C100.177 31.6192 154.852 10.7075 206.508 2.08738C207.171 1.97254 207.834 1.8577 208.517 1.73938C218.582 0.0548973 228.615 -0.211381 238.796 -0.259305Z" fill="#358B1D"/>
<path d="M238.796 -0.259305C239.412 -0.264829 240.028 -0.270354 240.663 -0.276046C256.099 -0.382528 273.811 1.05909 285.686 12.0825C289.907 16.5818 291.545 21.5701 291.442 27.6944C290.791 36.9726 286.146 43.1158 279.475 49.3062C271.661 55.7901 261.728 59.6311 252.442 63.4922C251.431 63.9177 250.42 64.3437 249.409 64.7701C244.873 66.6767 240.326 68.5195 235.711 70.228C235.705 69.6408 235.705 69.6408 235.698 69.0418C235.654 64.9583 235.595 60.8752 235.528 56.792C235.505 55.2692 235.486 53.7464 235.47 52.2235C235.447 50.0313 235.41 47.8396 235.371 45.6476C235.365 44.6305 235.365 44.6305 235.358 43.5928C235.278 39.859 234.889 37.355 232.93 34.0718C232.93 33.6128 232.93 33.1539 232.93 32.6811C229.018 31.0953 225.917 30.4969 221.705 30.5163C221.128 30.5162 220.551 30.5161 219.957 30.5159C218.05 30.5164 216.142 30.5218 214.235 30.5273C212.913 30.5286 211.591 30.5296 210.269 30.5303C206.788 30.5329 203.307 30.5398 199.827 30.5474C196.275 30.5546 192.724 30.5577 189.172 30.5612C182.203 30.5687 175.234 30.5806 168.266 30.5952C168.236 32.2173 168.237 33.8402 168.266 35.4624C169.649 36.8456 172.41 36.2648 174.304 36.2673C174.864 36.2709 175.424 36.2744 176 36.2781C177.22 36.2855 178.439 36.2915 179.658 36.2962C181.587 36.3044 183.515 36.3179 185.443 36.3331C190.927 36.3761 196.412 36.4136 201.896 36.4368C205.246 36.4513 208.597 36.4758 211.947 36.5068C213.226 36.5167 214.506 36.5227 215.785 36.5249C217.573 36.5283 219.36 36.5444 221.148 36.5634C221.679 36.5613 222.21 36.5592 222.758 36.5571C226.338 36.6137 226.338 36.6137 227.851 37.6994C229.049 39.3372 229.015 40.3373 229.009 42.3574C229.011 43.0609 229.014 43.7643 229.017 44.4891C229.01 45.2633 229.002 46.0374 228.995 46.835C228.995 47.6623 228.995 48.4896 228.995 49.342C228.994 52.0263 228.978 54.7103 228.961 57.3946C228.958 59.0493 228.956 60.7039 228.955 62.3586C228.944 68.5018 228.915 74.6449 228.888 80.7881C228.845 94.5122 228.802 108.236 228.758 122.376C194.11 122.376 159.463 122.376 123.766 122.376C123.701 101.79 123.701 101.79 123.635 80.7881C123.607 74.2825 123.607 74.2825 123.578 67.6455C123.568 62.3586 123.568 62.3586 123.566 59.8854C123.563 58.1541 123.556 56.4229 123.545 54.6917C123.53 52.0727 123.528 49.454 123.529 46.835C123.521 46.0609 123.514 45.2867 123.506 44.4891C123.509 43.7856 123.512 43.0822 123.515 42.3574C123.513 41.744 123.511 41.1306 123.509 40.4987C123.766 38.9389 123.766 38.9389 124.658 37.7004C126.762 36.2064 129.319 36.5316 131.811 36.5216C132.392 36.5108 132.974 36.5 133.574 36.4888C135.432 36.4558 137.291 36.4365 139.149 36.4184C141.013 36.3931 142.876 36.3649 144.74 36.3331C145.9 36.3142 147.06 36.2993 148.22 36.289C150.806 36.5007 150.806 36.5007 152.969 35.4624C152.997 34.072 152.998 32.6808 152.969 31.2905C150.689 30.1508 148.163 30.452 145.657 30.4295C145.067 30.4239 144.477 30.4183 143.869 30.4125C142.618 30.4029 141.367 30.3954 140.117 30.39C138.21 30.378 136.305 30.3475 134.399 30.3168C133.183 30.3097 131.967 30.3038 130.751 30.2991C129.9 30.2809 129.9 30.2809 129.032 30.2622C125.326 30.2763 123.178 30.849 120.289 33.3764C117.44 36.8472 117.101 39.3375 117.128 43.6387C117.117 44.5349 117.117 44.5349 117.106 45.4491C117.086 47.413 117.085 49.3764 117.084 51.3405C117.074 52.7064 117.062 54.0723 117.049 55.4381C117.019 59.0251 117.005 62.6119 116.994 66.199C116.981 69.8625 116.952 73.5259 116.924 77.1893C116.871 84.3714 116.836 91.5535 116.812 98.7358C116.136 98.7423 115.46 98.7488 114.764 98.7555C112.219 98.7835 109.676 98.8293 107.132 98.8801C106.038 98.8995 104.944 98.9144 103.849 98.9242C95.0322 99.0083 86.8128 99.7127 80.1184 106.186C75.7925 110.795 72.9524 116.245 72.8977 122.649C72.8909 123.255 72.8841 123.861 72.8771 124.486C72.8731 125.146 72.8691 125.805 72.8649 126.485C72.8581 127.184 72.8512 127.883 72.8441 128.603C72.8221 130.913 72.8049 133.223 72.7877 135.533C72.7734 137.135 72.7588 138.736 72.7439 140.338C72.7055 144.554 72.6712 148.769 72.6376 152.985C72.6027 157.287 72.564 161.589 72.5256 165.891C72.4508 174.331 72.3803 182.772 72.3124 191.212C59.044 195.635 42.0574 189.71 30.2025 183.825C21.4339 178.82 14.7876 171.337 11.516 161.749C6.75613 142.956 14.1356 124.482 23.6405 108.47C29.4699 99.1555 36.4006 90.8406 43.8046 82.7436C44.7201 81.7192 44.7201 81.7192 45.6542 80.674C49.6647 76.2019 53.8459 72.0595 58.4061 68.1421C59.0676 67.5586 59.7291 66.9751 60.4106 66.3739C100.177 31.6192 154.852 10.7075 206.508 2.08738C207.171 1.97254 207.834 1.8577 208.517 1.73938C218.582 0.0548973 228.616 -0.211381 238.796 -0.259305Z" fill="#DFFEE0"/>
<path d="M341.602 85.7667C344.663 88.7291 345.719 91.1965 345.918 95.4767C345.996 101.837 342.303 107.51 338.921 112.642C338.177 113.798 337.434 114.954 336.691 116.111C336.317 116.69 335.943 117.27 335.557 117.867C322.078 138.82 312.429 160.706 309.414 185.65C309.349 186.177 309.284 186.704 309.217 187.247C306.886 207.988 311.291 225.729 317.02 245.382C318.636 250.93 320.222 256.485 321.782 262.048C322.077 263.099 322.375 264.149 322.674 265.199C325.309 274.435 327.925 283.876 327.796 293.554C327.791 294.14 327.785 294.726 327.779 295.33C327.408 309.158 319.89 319.322 310.378 328.564C295.417 342.478 274.859 349.764 255.18 353.916C254.422 354.086 254.422 354.086 253.649 354.261C237.393 357.821 216.895 358.211 200.945 353.22C200.443 353.068 199.941 352.915 199.423 352.758C191.343 350.225 184.308 346.485 178.695 340.009C178.59 339.555 178.484 339.101 178.375 338.632C177.911 336.893 177.194 336.251 175.871 335.055C174.716 334.007 174.716 334.007 173.828 333.056C173.828 332.597 173.828 332.138 173.828 331.666C173.14 331.436 172.451 331.207 171.742 330.97C170.917 328.493 170.917 328.493 170.352 326.103C170.871 326.101 171.39 326.1 171.925 326.098C184.565 326.057 197.204 326.004 209.843 325.939C215.956 325.908 222.068 325.881 228.18 325.862C233.508 325.846 238.836 325.823 244.164 325.791C246.984 325.775 249.805 325.761 252.626 325.757C255.282 325.753 257.938 325.739 260.594 325.718C261.568 325.712 262.541 325.709 263.515 325.71C264.847 325.711 266.179 325.699 267.512 325.685C268.256 325.682 269.001 325.679 269.768 325.675C273.137 325.246 275.383 324.049 277.647 321.54C279.187 319.316 279.603 318.193 279.618 315.53C279.623 314.917 279.628 314.303 279.633 313.672C279.635 312.997 279.637 312.323 279.639 311.628C279.646 310.565 279.646 310.565 279.653 309.48C279.666 307.127 279.674 304.774 279.681 302.422C279.684 301.62 279.687 300.819 279.69 299.993C279.704 295.752 279.714 291.512 279.721 287.272C279.729 282.882 279.753 278.493 279.78 274.103C279.798 270.736 279.804 267.369 279.807 264.002C279.81 262.383 279.818 260.764 279.831 259.146C279.848 256.885 279.847 254.624 279.842 252.364C279.851 251.691 279.86 251.018 279.869 250.324C279.978 246.82 279.978 246.82 278.124 244.062C277.666 243.831 277.207 243.599 276.734 243.361C276.419 241.911 276.419 241.911 276.463 240.267C276.472 239.678 276.481 239.089 276.49 238.482C276.525 237.563 276.525 237.563 276.561 236.625C276.573 236.004 276.586 235.384 276.599 234.744C276.631 233.212 276.677 231.681 276.734 230.15C277.652 229.921 278.57 229.691 279.516 229.455C279.564 215.251 279.601 201.047 279.624 186.843C279.634 180.248 279.649 173.652 279.673 167.057C279.694 161.306 279.707 155.556 279.712 149.805C279.715 146.762 279.721 143.719 279.736 140.676C279.75 137.808 279.755 134.939 279.752 132.071C279.752 131.022 279.756 129.973 279.764 128.925C279.833 119.541 278.712 112.854 272.15 105.906C266.954 101.005 260.316 99.3769 253.365 99.2112C252.86 99.1968 252.355 99.1823 251.834 99.1675C250.226 99.1221 248.618 99.0811 247.01 99.0401C245.917 99.0101 244.824 98.9798 243.731 98.9491C241.058 98.8749 238.385 98.8044 235.711 98.7359C235.692 97.3598 235.679 95.9837 235.667 94.6075C235.659 93.8412 235.651 93.0748 235.643 92.2853C235.711 90.3922 235.711 90.3922 236.406 89.6969C237.816 89.4361 239.234 89.2164 240.653 89.0128C241.098 88.9482 241.542 88.8836 242.001 88.8171C243.489 88.602 244.978 88.3914 246.467 88.1813C247.517 88.0315 248.568 87.8816 249.619 87.7316C251.843 87.4151 254.066 87.101 256.29 86.7883C258.524 86.474 260.756 86.1559 262.989 85.8336C274.739 84.1378 286.482 82.5673 298.308 81.4944C298.774 81.4516 299.24 81.4088 299.72 81.3647C332.213 78.4245 332.213 78.4245 341.602 85.7667Z" fill="#DFFEE0"/>
<path d="M211.576 161.242C225.016 171.661 234.744 185.893 237.102 203.031C238.592 220.415 234.229 236.658 223.195 250.312C213.059 262.182 198.541 270.471 182.867 271.867C164.587 273.157 148.841 267.915 134.891 255.875C134.183 255.269 134.183 255.269 133.462 254.65C122.042 244.079 115.795 228.267 115.108 212.942C114.783 196.896 120.571 181.321 131.539 169.553C152.859 147.704 186.357 143.347 211.576 161.242Z" fill="#DFFEE0"/>
<path d="M130.455 29.7839C131.05 29.7815 131.645 29.7792 132.258 29.7768C133.518 29.7733 134.777 29.7717 136.037 29.7718C137.966 29.7703 139.894 29.7577 141.823 29.7445C143.046 29.7424 144.269 29.741 145.491 29.7404C146.358 29.7329 146.358 29.7329 147.243 29.7253C149.973 29.7361 151.341 29.7427 153.664 31.2913C153.881 33.3772 153.881 33.3772 153.664 35.4631C151.573 37.5542 149.212 37.0746 146.407 37.0928C145.825 37.1029 145.244 37.1131 144.645 37.1236C142.153 37.167 139.661 37.1944 137.169 37.2235C135.352 37.2469 133.535 37.2783 131.718 37.3101C130.869 37.3156 130.869 37.3156 130.002 37.3212C126.904 37.2496 126.904 37.2496 124.461 38.9397C124.242 40.4741 124.242 40.4741 124.267 42.2745C124.26 42.977 124.252 43.6795 124.244 44.4033C124.242 45.18 124.241 45.9567 124.239 46.7569C124.232 47.5841 124.225 48.4113 124.218 49.2636C124.196 51.9515 124.185 54.6394 124.173 57.3275C124.161 58.9829 124.149 60.6382 124.136 62.2936C124.092 68.4441 124.06 74.5948 124.026 80.7454C123.94 94.4839 123.854 108.222 123.766 122.377C158.413 122.377 193.06 122.377 228.758 122.377C228.672 108.639 228.586 94.9002 228.497 80.7454C228.473 76.402 228.45 72.0586 228.425 67.5837C228.398 63.7017 228.398 63.7017 228.368 59.8198C228.356 58.0862 228.346 56.3526 228.339 54.619C228.327 51.9982 228.307 49.3776 228.284 46.7569C228.282 45.5919 228.282 45.5919 228.28 44.4033C228.268 43.3496 228.268 43.3496 228.256 42.2745C228.252 41.6605 228.248 41.0465 228.244 40.4139C228.197 38.7895 228.197 38.7895 226.672 37.5491C224.837 37.4052 223.074 37.3471 221.238 37.3494C220.397 37.3423 220.397 37.3423 219.539 37.3351C218.319 37.3256 217.099 37.3193 215.879 37.3158C213.951 37.31 212.023 37.2958 210.095 37.2793C206.002 37.2457 201.909 37.2228 197.816 37.2014C193.075 37.1767 188.334 37.1476 183.592 37.1069C181.689 37.0929 179.785 37.0872 177.882 37.0817C176.719 37.0726 175.557 37.0632 174.394 37.0534C173.862 37.0541 173.329 37.0548 172.781 37.0555C169.119 37.0121 169.119 37.0121 167.57 35.4631C167.744 32.9861 167.744 32.9861 168.266 30.596C170.41 29.5239 172.67 29.7859 175.023 29.7776C175.578 29.773 176.132 29.7684 176.703 29.7637C178.542 29.75 180.381 29.7419 182.221 29.735C182.849 29.7321 183.478 29.7293 184.125 29.7264C187.454 29.7119 190.783 29.7019 194.112 29.6954C197.545 29.6877 200.976 29.6638 204.409 29.6362C207.052 29.618 209.696 29.6122 212.34 29.6097C213.604 29.6063 214.869 29.5983 216.134 29.5853C217.909 29.5683 219.684 29.569 221.46 29.5739C222.236 29.5605 222.236 29.5605 223.028 29.5469C226.774 29.5837 229.856 30.4772 232.93 32.6819C235.851 36.4813 236.128 40.4212 236.135 45.0753C236.146 45.7233 236.158 46.3713 236.17 47.0389C236.204 49.134 236.218 51.2287 236.232 53.324C236.251 54.7697 236.271 56.2155 236.292 57.6612C236.339 61.2084 236.37 64.7555 236.393 68.303C236.405 70.0566 236.421 71.8102 236.438 73.5638C236.465 76.3053 236.482 79.0467 236.493 81.7883C236.496 82.5553 236.5 83.3222 236.503 84.1124C236.493 89.0173 236.189 93.8556 235.711 98.7366C236.688 98.7147 236.688 98.7147 237.685 98.6924C240.142 98.6446 242.598 98.6099 245.056 98.5838C246.112 98.57 247.168 98.5511 248.223 98.5268C258.058 98.3061 266.1 99.5847 273.649 106.472C278.511 111.474 280.291 117.282 280.309 124.118C280.313 125.032 280.316 125.947 280.321 126.889C280.321 127.897 280.322 128.906 280.323 129.915C280.326 130.98 280.33 132.046 280.333 133.112C280.342 136.002 280.347 138.892 280.35 141.783C280.352 143.588 280.355 145.393 280.358 147.198C280.368 152.846 280.374 158.493 280.377 164.14C280.38 170.661 280.392 177.183 280.412 183.705C280.427 188.746 280.434 193.787 280.435 198.828C280.436 201.84 280.44 204.851 280.453 207.862C280.464 210.692 280.466 213.522 280.46 216.351C280.459 217.391 280.462 218.43 280.469 219.47C280.478 220.886 280.472 222.303 280.466 223.719C280.467 224.513 280.468 225.306 280.469 226.124C280.211 228.065 280.211 228.065 279.263 229.366C277.657 230.473 276.554 230.395 274.648 230.151C273.258 228.76 273.258 228.76 273.086 226.903C273.086 226.109 273.087 225.314 273.088 224.495C273.085 223.585 273.082 222.675 273.079 221.737C273.083 220.722 273.087 219.707 273.091 218.692C273.09 217.627 273.089 216.563 273.087 215.498C273.084 213.202 273.084 210.905 273.088 208.609C273.094 204.973 273.086 201.338 273.076 197.702C273.05 187.363 273.037 177.024 273.045 166.684C273.05 160.977 273.042 155.27 273.02 149.562C273.007 145.953 273.009 142.344 273.023 138.735C273.028 136.481 273.018 134.227 273.004 131.972C273.001 130.932 273.003 129.892 273.012 128.853C273.065 122.164 272.522 116.526 267.918 111.323C263.78 107.267 258.634 106.461 253.094 105.69C253.101 106.356 253.108 107.023 253.116 107.71C253.141 110.18 253.157 112.65 253.17 115.12C253.177 116.189 253.187 117.259 253.199 118.329C253.215 119.865 253.223 121.401 253.23 122.937C253.237 123.416 253.244 123.896 253.251 124.39C253.252 125.574 253.178 126.758 253.094 127.94C251.287 129.746 250.042 129.501 247.581 129.52C246.708 129.516 246.708 129.516 245.817 129.512C245.201 129.514 244.584 129.517 243.949 129.52C241.872 129.527 239.794 129.524 237.717 129.521C236.232 129.524 234.748 129.528 233.263 129.532C229.222 129.541 225.181 129.542 221.14 129.54C217.772 129.539 214.404 129.543 211.036 129.546C203.094 129.554 195.152 129.554 187.21 129.55C179.004 129.546 170.797 129.554 162.591 129.569C155.556 129.581 148.522 129.585 141.487 129.583C137.281 129.582 133.074 129.584 128.868 129.593C124.914 129.602 120.96 129.601 117.006 129.592C115.551 129.59 114.097 129.592 112.642 129.598C110.663 129.605 108.685 129.599 106.706 129.591C105.833 129.598 105.833 129.598 104.942 129.606C103.344 129.591 103.344 129.591 100.82 129.33C99.0934 126.74 99.2686 125.415 99.2938 122.326C99.2958 121.85 99.2978 121.375 99.2998 120.885C99.3076 119.369 99.325 117.853 99.3427 116.337C99.3497 115.308 99.356 114.279 99.3617 113.25C99.3771 110.73 99.401 108.21 99.4296 105.69C98.3246 105.9 97.2202 106.113 96.116 106.328C95.5009 106.446 94.8859 106.565 94.2521 106.687C89.2002 107.806 85.2459 110.124 82.2206 114.338C79.9257 119.042 79.763 123.071 79.7843 128.223C79.7821 129.026 79.78 129.828 79.7777 130.655C79.7731 132.878 79.7748 135.1 79.7791 137.322C79.7822 139.721 79.7774 142.119 79.7736 144.518C79.7674 149.214 79.7687 153.91 79.7727 158.607C79.7759 162.422 79.7763 166.238 79.7748 170.053C79.7746 170.596 79.7744 171.139 79.7741 171.699C79.7737 172.802 79.7733 173.905 79.7728 175.008C79.7688 185.35 79.7734 195.691 79.7809 206.033C79.7871 214.911 79.786 223.789 79.7796 232.668C79.7721 242.976 79.7692 253.283 79.7735 263.591C79.7739 264.69 79.7744 265.788 79.7748 266.887C79.7751 267.697 79.7751 267.697 79.7754 268.524C79.7766 272.337 79.7746 276.15 79.7713 279.964C79.7675 284.607 79.7685 289.251 79.7759 293.894C79.7796 296.265 79.781 298.635 79.7764 301.005C79.7726 303.571 79.7773 306.137 79.7843 308.703C79.7812 309.457 79.7781 310.211 79.7749 310.988C79.7785 311.672 79.7822 312.357 79.7859 313.062C79.7861 313.655 79.7863 314.247 79.7866 314.858C79.8681 316.573 79.8681 316.573 81.3515 318.455C82.7899 318.77 82.7899 318.77 84.4832 318.716C85.1464 318.721 85.8095 318.726 86.4927 318.731C87.2263 318.726 87.9599 318.721 88.7157 318.716C89.491 318.718 90.2664 318.721 91.0652 318.724C93.681 318.731 96.2965 318.722 98.9122 318.714C100.78 318.716 102.648 318.718 104.516 318.722C109.074 318.729 113.632 318.724 118.19 318.715C123.493 318.706 128.797 318.707 134.1 318.709C143.56 318.711 153.02 318.703 162.48 318.689C171.668 318.676 180.856 318.671 190.043 318.675C200.039 318.679 210.034 318.679 220.03 318.671C221.095 318.67 222.16 318.669 223.225 318.668C223.749 318.668 224.273 318.668 224.813 318.667C228.513 318.665 232.213 318.665 235.913 318.666C240.42 318.668 244.927 318.664 249.434 318.654C251.735 318.649 254.036 318.647 256.337 318.649C258.827 318.651 261.318 318.645 263.808 318.637C264.541 318.639 265.275 318.642 266.031 318.645C266.694 318.641 267.357 318.636 268.04 318.632C268.615 318.632 269.191 318.631 269.784 318.63C271.332 318.579 271.332 318.579 272.562 317.065C272.776 315.733 272.776 315.733 272.747 314.188C272.752 313.585 272.758 312.983 272.764 312.362C272.763 311.7 272.763 311.037 272.762 310.355C272.767 309.658 272.772 308.962 272.776 308.244C272.786 306.728 272.792 305.213 272.796 303.697C272.801 301.301 272.816 298.906 272.832 296.51C272.866 291.426 272.889 286.341 272.91 281.256C272.935 275.366 272.964 269.476 273.005 263.586C273.019 261.22 273.024 258.854 273.03 256.489C273.039 255.045 273.048 253.601 273.058 252.158C273.057 251.495 273.057 250.833 273.056 250.15C273.062 249.548 273.068 248.945 273.074 248.324C273.076 247.799 273.078 247.274 273.08 246.733C273.258 245.448 273.258 245.448 274.648 244.057C276.734 243.883 276.734 243.883 278.82 244.057C280.487 245.724 280.387 246.086 280.397 248.358C280.406 249.274 280.406 249.274 280.415 250.207C280.414 250.878 280.414 251.55 280.413 252.241C280.418 252.947 280.422 253.652 280.427 254.379C280.44 256.722 280.443 259.064 280.444 261.407C280.449 263.032 280.454 264.657 280.458 266.282C280.467 269.693 280.469 273.104 280.469 276.516C280.468 280.886 280.487 285.257 280.511 289.628C280.527 292.986 280.53 296.344 280.529 299.702C280.531 301.314 280.537 302.925 280.547 304.536C280.561 306.792 280.557 309.046 280.549 311.302C280.557 311.967 280.564 312.633 280.572 313.319C280.535 317.243 280.071 319.525 277.43 322.627C274.215 325.528 272.036 326.191 267.762 326.187C266.905 326.188 266.048 326.189 265.165 326.19C264.214 326.188 263.263 326.185 262.312 326.183C261.311 326.182 260.311 326.183 259.31 326.183C256.592 326.183 253.875 326.179 251.157 326.174C248.317 326.17 245.477 326.169 242.638 326.169C237.26 326.167 231.882 326.161 226.504 326.154C220.381 326.146 214.259 326.142 208.136 326.139C195.541 326.132 182.946 326.119 170.352 326.104C170.662 326.87 170.972 327.636 171.291 328.426C171.466 328.857 171.64 329.288 171.82 329.732C172.797 331.692 174.322 332.969 175.914 334.448C177.107 335.813 178.246 337.213 179.391 338.619C178.186 339.824 176.554 339.408 174.913 339.412C173.682 339.418 173.682 339.418 172.426 339.424C171.517 339.425 170.608 339.426 169.672 339.427C168.711 339.43 167.751 339.433 166.791 339.437C164.175 339.446 161.558 339.451 158.942 339.454C157.309 339.456 155.675 339.459 154.041 339.462C148.931 339.471 143.822 339.478 138.712 339.481C132.81 339.484 126.909 339.496 121.007 339.516C116.448 339.531 111.889 339.538 107.331 339.539C104.607 339.54 101.883 339.544 99.159 339.556C96.5953 339.568 94.0319 339.569 91.4682 339.563C90.0797 339.563 88.6912 339.572 87.3027 339.582C86.474 339.578 85.6453 339.574 84.7915 339.57C84.0727 339.571 83.3538 339.572 82.6132 339.573C80.3392 339.273 79.0325 338.556 77.1796 337.229C75.0637 334.45 75.5199 330.732 75.4563 327.386C75.3422 324.403 75.0151 322.759 73.0078 320.541C72.3321 318.514 72.2235 317.224 72.2191 315.114C72.216 314.422 72.2129 313.73 72.2097 313.017C72.2099 312.255 72.21 311.492 72.2101 310.706C72.2076 309.898 72.205 309.09 72.2024 308.257C72.196 306.009 72.1928 303.761 72.191 301.513C72.1883 299.09 72.1816 296.667 72.1755 294.244C72.1618 288.389 72.1548 282.535 72.1486 276.68C72.1456 273.922 72.1418 271.164 72.1382 268.406C72.1263 259.236 72.1163 250.066 72.1112 240.896C72.1099 238.516 72.1086 236.136 72.1072 233.756C72.1069 233.165 72.1065 232.573 72.1062 231.964C72.1004 222.387 72.0828 212.811 72.0602 203.235C72.0372 193.4 72.0247 183.565 72.0225 173.73C72.021 168.21 72.0149 162.689 71.9971 157.169C71.982 152.466 71.9765 147.763 71.9832 143.06C71.9864 140.662 71.9851 138.264 71.9715 135.866C71.9592 133.261 71.9642 130.656 71.9733 128.051C71.9657 127.301 71.9581 126.551 71.9502 125.778C72.0179 117.757 74.641 111.262 80.0043 105.299C85.1306 100.294 91.6772 98.6192 98.6148 98.6687C99.1356 98.6697 99.6564 98.6706 100.193 98.6717C101.851 98.6755 103.508 98.6843 105.166 98.6931C106.292 98.6966 107.418 98.6998 108.545 98.7026C111.301 98.7103 114.057 98.7223 116.812 98.7366C116.806 97.9793 116.8 97.222 116.794 96.4417C116.737 89.3009 116.696 82.1601 116.668 75.0192C116.654 71.348 116.634 67.677 116.603 64.0059C116.572 60.4624 116.556 56.919 116.549 53.3753C116.543 52.0241 116.533 50.6729 116.518 49.3218C116.498 47.4275 116.495 45.5339 116.497 43.6395C116.482 42.8038 116.482 42.8038 116.466 41.9512C116.493 38.3075 117.206 36.2804 119.594 33.3772C123.307 30.1063 125.61 29.7903 130.455 29.7839Z" fill="#223C12"/>
<path d="M155.712 33.0126C156.462 33.0079 156.462 33.0079 157.228 33.0031C157.776 32.9995 158.325 32.9959 158.89 32.9922C159.46 33.0029 160.03 33.0137 160.617 33.0248C161.188 33.014 161.758 33.0033 162.345 32.9922C162.893 32.9958 163.442 32.9994 164.007 33.0031C164.507 33.0062 165.007 33.0093 165.523 33.0126C166.192 33.1907 166.192 33.1907 166.875 33.3724C167.134 33.8316 167.392 34.2908 167.659 34.7639C168.926 36.4071 168.926 36.4071 171.389 36.5005C172.413 36.5146 173.438 36.5133 174.463 36.5002C175.022 36.504 175.582 36.5078 176.159 36.5118C177.375 36.5183 178.59 36.5183 179.806 36.5128C181.729 36.504 183.651 36.5118 185.574 36.5239C188.961 36.5425 192.348 36.5464 195.735 36.5454C201.158 36.5438 206.58 36.5536 212.002 36.584C213.898 36.5909 215.794 36.5848 217.69 36.578C218.851 36.5823 220.011 36.5871 221.171 36.5925C221.964 36.5844 221.964 36.5844 222.773 36.5762C226.34 36.6108 226.34 36.6108 227.851 37.6945C229.049 39.3329 229.015 40.3326 229.009 42.3534C229.012 43.0568 229.015 43.7603 229.018 44.4851C229.01 45.2593 229.003 46.0334 228.995 46.831C228.995 47.6583 228.995 48.4856 228.996 49.338C228.994 52.0223 228.978 54.7063 228.962 57.3906C228.959 59.0453 228.957 60.6999 228.955 62.3546C228.944 68.4978 228.915 74.6409 228.888 80.7841C228.845 94.5082 228.802 108.232 228.758 122.372C194.111 122.372 159.463 122.372 123.766 122.372C123.723 108.648 123.68 94.9241 123.636 80.7841C123.607 74.2785 123.607 74.2785 123.578 67.6415C123.569 62.3546 123.569 62.3546 123.567 59.8814C123.564 58.1501 123.556 56.4189 123.546 54.6877C123.53 52.0687 123.528 49.45 123.529 46.831C123.522 46.0569 123.514 45.2827 123.506 44.4851C123.509 43.7816 123.512 43.0782 123.515 42.3534C123.513 41.74 123.511 41.1266 123.509 40.4947C123.766 38.9349 123.766 38.9349 124.66 37.6943C126.754 36.2091 129.286 36.5721 131.762 36.591C132.95 36.5789 134.138 36.5667 135.325 36.5543C137.198 36.5473 139.07 36.5448 140.942 36.546C142.75 36.5435 144.556 36.5245 146.364 36.5041C147.205 36.5126 147.205 36.5126 148.062 36.5213C149.825 36.5287 149.825 36.5287 152.274 36.1537C154.86 33.2393 154.86 33.2393 155.712 33.0126Z" fill="#FDFDFE"/>
<path d="M102.906 130.023C151.321 130.023 199.736 130.023 249.617 130.023C249.675 150.603 249.732 171.182 249.791 192.384C249.816 198.887 249.842 205.389 249.868 212.088C249.88 220.017 249.88 220.017 249.883 223.727C249.885 226.323 249.896 228.918 249.911 231.514C249.93 234.823 249.936 238.133 249.932 241.442C249.933 242.658 249.938 243.873 249.949 245.089C249.963 246.73 249.959 248.369 249.952 250.01C249.964 250.725 249.964 250.725 249.976 251.455C249.935 254.722 249.132 256.358 246.836 258.656C245.185 259.482 244.192 259.436 242.352 259.43C241.711 259.43 241.071 259.43 240.411 259.43C239.373 259.425 239.373 259.425 238.313 259.419C237.605 259.418 236.897 259.417 236.168 259.416C233.901 259.413 231.633 259.404 229.366 259.395C227.832 259.392 226.297 259.388 224.763 259.386C220.995 259.378 217.228 259.366 213.461 259.352C216.752 256.046 216.752 256.046 218.426 254.509C228.905 244.709 236.042 229.601 236.64 215.237C236.917 197.691 231.94 183.073 220.414 169.656C220.061 169.236 219.708 168.816 219.344 168.382C208.968 157.022 193.008 151.336 177.965 150.569C162.174 150.203 146.378 156.104 134.836 166.908C122.841 178.775 115.966 194.237 115.813 211.158C116.072 228.25 122.888 243.111 134.891 255.18C136.249 256.39 137.638 257.524 139.063 258.656C139.063 258.886 139.063 259.115 139.063 259.352C134.571 259.422 130.08 259.471 125.588 259.504C124.061 259.518 122.533 259.537 121.006 259.561C118.808 259.595 116.612 259.611 114.414 259.623C113.392 259.645 113.392 259.645 112.349 259.667C109.298 259.668 107.572 259.655 104.925 258.031C102.648 255.518 102.809 253.502 102.823 250.261C102.822 249.75 102.822 249.239 102.821 248.712C102.82 246.986 102.824 245.259 102.827 243.533C102.828 242.28 102.828 241.026 102.827 239.773C102.827 236.408 102.831 233.043 102.836 229.678C102.84 226.523 102.84 223.369 102.841 220.215C102.844 210.981 102.854 201.748 102.863 192.515C102.877 171.893 102.892 151.27 102.906 130.023Z" fill="#286516"/>
<path d="M276.734 323.32C276.887 327.929 277.02 332.189 275.344 336.531C271.523 340.208 267.269 339.688 262.209 339.628C261.307 339.629 260.404 339.629 259.474 339.629C257.008 339.63 254.542 339.614 252.075 339.595C249.494 339.577 246.914 339.575 244.333 339.572C239.45 339.564 234.567 339.541 229.684 339.513C224.123 339.482 218.562 339.466 213.002 339.452C201.566 339.423 190.131 339.375 178.695 339.313C178.504 338.891 178.312 338.47 178.114 338.036C177.302 336.354 177.302 336.354 175.479 334.706C174.935 334.161 174.39 333.616 173.828 333.055C173.828 332.596 173.828 332.137 173.828 331.664C173.14 331.435 172.451 331.205 171.742 330.969C170.917 328.492 170.917 328.492 170.352 326.102C170.871 326.1 171.39 326.098 171.925 326.097C184.565 326.055 197.204 326.003 209.843 325.938C215.956 325.906 222.068 325.879 228.18 325.861C233.508 325.845 238.836 325.821 244.164 325.79C246.984 325.773 249.805 325.76 252.626 325.756C255.282 325.751 257.938 325.737 260.594 325.716C261.568 325.71 262.541 325.707 263.515 325.709C264.847 325.71 266.179 325.697 267.512 325.683C268.629 325.679 268.629 325.679 269.768 325.674C272.2 325.364 274.488 323.32 276.734 323.32Z" fill="#358B1D"/>
<path d="M103.945 274.45C104.727 274.441 105.51 274.432 106.315 274.423C107.161 274.421 108.006 274.42 108.877 274.418C110.179 274.411 110.179 274.411 111.509 274.404C113.347 274.397 115.186 274.393 117.025 274.394C119.376 274.394 121.727 274.375 124.078 274.351C126.326 274.332 128.574 274.333 130.823 274.331C131.665 274.321 132.507 274.311 133.375 274.301C134.162 274.305 134.948 274.309 135.759 274.314C136.794 274.311 136.794 274.311 137.85 274.308C140.288 274.747 141.458 275.743 143.235 277.433C144.775 280.513 144.09 284.698 144.104 288.08C144.118 288.94 144.133 289.8 144.148 290.686C144.153 291.93 144.153 291.93 144.158 293.2C144.165 293.959 144.171 294.718 144.178 295.501C143.894 297.905 143.323 299.167 141.844 301.073C139.637 302.472 137.879 302.645 135.292 302.666C134.538 302.675 133.784 302.684 133.007 302.693C132.195 302.694 131.384 302.696 130.548 302.698C129.712 302.702 128.875 302.707 128.013 302.712C126.244 302.719 124.475 302.722 122.705 302.722C119.998 302.725 117.292 302.75 114.585 302.776C112.866 302.78 111.147 302.783 109.428 302.785C108.213 302.8 108.213 302.8 106.974 302.815C101.386 302.783 101.386 302.783 98.6316 301.227C95.2529 297.174 95.7219 293.36 95.7364 288.254C95.7252 287.466 95.714 286.679 95.7025 285.868C95.702 285.107 95.7016 284.347 95.7011 283.563C95.699 282.871 95.697 282.178 95.6948 281.465C95.9993 279.176 96.6767 277.894 98.0396 276.042C100.384 274.479 101.199 274.471 103.945 274.45Z" fill="#D6D6FF"/>
<path d="M11.1248 138.367C14.5492 141.238 17.77 144.223 20.9156 147.395C21.3809 147.861 21.8462 148.327 22.3256 148.808C23.3272 149.812 24.3279 150.817 25.328 151.823C26.9103 153.414 28.4948 155.003 30.08 156.592C33.44 159.959 36.7973 163.33 40.1541 166.701C44.0548 170.618 47.9566 174.534 51.8614 178.447C53.4231 180.014 54.9828 181.582 56.5423 183.15C57.4964 184.107 58.4506 185.063 59.4049 186.02C60.0551 186.675 60.0551 186.675 60.7185 187.344C61.118 187.744 61.5175 188.143 61.9291 188.555C62.2747 188.902 62.6202 189.249 62.9763 189.607C64.0902 190.673 64.0902 190.673 66.0545 191.906C50.4846 192.661 33.9161 188.462 22.076 177.87C14.7249 170.973 10.5968 162.816 10.2394 152.7C10.09 142.414 10.09 142.414 11.1248 138.367Z" fill="#FBFBFF"/>
<path d="M178.695 339.31C183.557 339.169 188.418 339.072 193.281 339.005C194.935 338.977 196.588 338.939 198.24 338.891C200.621 338.823 202.999 338.791 205.381 338.767C206.116 338.738 206.851 338.71 207.609 338.68C212.661 338.677 212.661 338.677 214.947 340.487C216.179 341.895 217.259 343.339 218.328 344.873C219.234 345.819 220.15 346.756 221.085 347.673C221.54 348.122 221.995 348.572 222.463 349.035C222.92 349.483 223.377 349.93 223.847 350.392C224.782 351.309 225.716 352.228 226.647 353.148C227.256 353.745 227.256 353.745 227.878 354.354C228.758 355.302 228.758 355.302 228.758 355.998C213.43 356.585 194.834 355.024 182.867 344.177C182.131 343.345 181.404 342.504 180.685 341.657C180.312 341.217 179.939 340.778 179.554 340.326C179.271 339.991 178.987 339.655 178.695 339.31Z" fill="#FCFCFF"/>
<path d="M170.352 326.101C173.827 325.963 177.301 325.862 180.779 325.795C181.96 325.767 183.141 325.729 184.321 325.681C194.129 325.29 194.129 325.29 197.149 327.243C198.371 328.653 199.305 330.059 200.25 331.663C201.381 332.821 202.523 333.968 203.683 335.096C204.637 336.025 205.583 336.963 206.508 337.921C206.508 338.151 206.508 338.38 206.508 338.616C203.031 339.188 199.672 339.406 196.146 339.38C195.644 339.379 195.141 339.378 194.624 339.377C193.037 339.373 191.45 339.364 189.864 339.355C188.781 339.352 187.697 339.348 186.614 339.346C183.974 339.338 181.335 339.326 178.695 339.312C178.504 338.89 178.312 338.469 178.114 338.035C177.302 336.353 177.302 336.353 175.479 334.705C174.935 334.16 174.39 333.615 173.828 333.054C173.828 332.595 173.828 332.136 173.828 331.663C173.14 331.434 172.451 331.204 171.742 330.968C170.917 328.491 170.917 328.491 170.352 326.101Z" fill="#358B1D"/>
<path d="M178.695 204.417C181.703 206.033 181.703 206.033 182.867 207.894C182.987 209.388 182.987 209.388 182.954 211.153C183.112 217.239 187.55 222.057 190.993 226.794C192.973 229.536 193.586 230.915 193.297 234.316C191.906 235.707 191.906 235.707 190.255 236.011C187.611 235.57 187.218 234.414 185.648 232.23C184.941 231.124 184.241 230.012 183.546 228.897C183.166 228.287 182.786 227.678 182.395 227.049C181.607 225.777 180.826 224.501 180.053 223.219C177.837 219.565 177.837 219.565 174.339 217.297C173.711 217.177 173.084 217.057 172.438 216.933C170.312 214.975 169.719 213.898 169.309 211.023C169.71 208.216 170.453 207.097 172.438 205.113C174.627 204.018 176.276 204.176 178.695 204.417Z" fill="#FE4F50"/>
<path d="M141.694 61.7047C142.731 61.6981 142.731 61.6981 143.79 61.6914C144.538 61.6942 145.287 61.697 146.059 61.6999C146.825 61.6986 147.592 61.6973 148.381 61.6959C150.004 61.695 151.627 61.6975 153.249 61.7033C155.74 61.7108 158.23 61.7034 160.72 61.6945C162.294 61.6954 163.867 61.6972 165.441 61.6999C166.564 61.6957 166.564 61.6957 167.71 61.6914C168.402 61.6958 169.093 61.7002 169.806 61.7047C170.416 61.7058 171.026 61.7069 171.655 61.708C173.133 61.8846 173.133 61.8846 174.523 63.2753C174.697 65.3612 174.697 65.3612 174.523 67.4471C172.794 69.1766 172.266 69.0159 169.88 69.0287C168.867 69.0387 168.867 69.0387 167.834 69.0488C167.103 69.0482 166.371 69.0475 165.617 69.0469C164.868 69.0499 164.119 69.0529 163.347 69.0559C161.76 69.0599 160.173 69.0603 158.586 69.0572C156.153 69.0551 153.721 69.0713 151.289 69.089C149.749 69.0906 148.21 69.0911 146.67 69.0903C145.94 69.0968 145.21 69.1032 144.458 69.1098C143.78 69.1054 143.103 69.1011 142.405 69.0966C141.51 69.0973 141.51 69.0973 140.597 69.098C138.721 68.7798 138.103 68.2639 136.976 66.7518C136.759 64.9701 136.759 64.9701 136.976 63.2753C138.721 61.5304 139.283 61.7091 141.694 61.7047Z" fill="#358B1D"/>
<path d="M142.326 91.6759C143.342 91.6693 143.342 91.6693 144.379 91.6625C145.113 91.6617 145.846 91.661 146.602 91.6602C147.353 91.6578 148.104 91.6555 148.878 91.6531C150.468 91.6496 152.058 91.648 153.647 91.6481C156.088 91.6466 158.527 91.634 160.968 91.6208C162.509 91.6187 164.051 91.6174 165.593 91.6167C166.327 91.6117 167.06 91.6067 167.816 91.6016C168.833 91.6048 168.833 91.6048 169.869 91.608C170.467 91.6071 171.065 91.6061 171.681 91.605C173.133 91.777 173.133 91.777 174.523 93.1676C174.697 95.2535 174.697 95.2535 174.523 97.3394C172.794 99.0689 172.266 98.9082 169.88 98.921C168.868 98.931 168.868 98.931 167.834 98.9411C167.103 98.9405 166.371 98.9399 165.617 98.9392C164.868 98.9422 164.119 98.9452 163.347 98.9482C161.76 98.9522 160.173 98.9526 158.586 98.9496C156.153 98.9474 153.721 98.9637 151.289 98.9813C149.749 98.9829 148.21 98.9834 146.67 98.9827C145.94 98.9891 145.21 98.9955 144.458 99.0021C143.78 98.9977 143.103 98.9934 142.405 98.9889C141.51 98.9896 141.51 98.9896 140.597 98.9903C138.715 98.6712 138.075 98.1906 136.977 96.6441C137.107 94.4713 137.107 94.4713 137.672 92.4723C139.358 91.6292 140.442 91.6843 142.326 91.6759Z" fill="#358B1D"/>
<path d="M178.695 171.743C180.086 173.134 180.086 173.134 180.253 174.515C180.25 175.08 180.247 175.645 180.244 176.227C180.244 177.188 180.244 177.188 180.243 178.168C180.236 178.86 180.229 179.552 180.222 180.266C180.22 180.974 180.218 181.682 180.216 182.411C180.208 184.678 180.19 186.945 180.173 189.213C180.166 190.747 180.159 192.282 180.154 193.816C180.138 197.584 180.114 201.351 180.086 205.118C177.791 205.118 175.497 205.118 173.133 205.118C173.081 200.7 173.043 196.282 173.018 191.864C173.008 190.361 172.993 188.858 172.975 187.354C172.95 185.195 172.938 183.036 172.929 180.877C172.918 180.203 172.907 179.53 172.896 178.836C172.896 178.209 172.896 177.583 172.896 176.938C172.891 176.387 172.887 175.835 172.882 175.268C173.461 171.948 175.625 171.349 178.695 171.743Z" fill="#358B1D"/>
<path d="M111.122 284.887C111.674 284.89 112.225 284.892 112.793 284.895C113.641 284.893 113.641 284.893 114.507 284.891C115.704 284.89 116.901 284.893 118.098 284.899C119.934 284.906 121.77 284.899 123.605 284.89C124.767 284.891 125.929 284.893 127.09 284.895C127.641 284.892 128.192 284.89 128.76 284.887C132.645 284.92 132.645 284.92 134.195 286.471C134.435 288.343 134.499 289.471 133.469 291.084C131.397 292.531 129.27 292.331 126.832 292.31C126.317 292.312 125.802 292.314 125.271 292.316C124.182 292.318 123.093 292.314 122.004 292.305C120.341 292.294 118.678 292.305 117.015 292.318C115.956 292.317 114.897 292.314 113.838 292.31C113.094 292.316 113.094 292.316 112.335 292.323C110.168 292.292 108.669 292.144 106.759 291.084C105.688 289.947 105.688 289.947 105.427 288.165C105.968 284.647 108.019 284.913 111.122 284.887Z" fill="#358B1D"/>
<path d="M51.8685 248.848C55.7645 250.118 58.0532 252.66 60.492 255.877C61.3323 257.791 61.3589 258.599 61.1873 260.744C60.4051 262.091 60.4051 262.091 59.1013 262.83C57.45 263.178 57.45 263.178 55.6248 262.83C53.6692 261.092 53.6692 261.092 52.1482 259.353C50.5938 260.075 49.3392 260.767 48.0198 261.874C46.2138 263.078 45.2407 263.158 43.1092 262.83C41.8489 262.004 41.8489 262.004 41.0232 260.744C40.7299 259.204 40.7299 259.204 41.0232 257.267C42.2699 255.618 43.437 254.273 44.8909 252.835C45.2481 252.447 45.6053 252.059 45.9733 251.659C48.026 249.593 48.8604 248.939 51.8685 248.848Z" fill="#FF6B6B"/>
<path d="M235.711 105.688C239.153 105.688 242.595 105.688 246.141 105.688C246.141 111.424 246.141 117.16 246.141 123.07C242.699 123.07 239.257 123.07 235.711 123.07C235.711 117.334 235.711 111.598 235.711 105.688Z" fill="#358B1D"/>
<path d="M142.199 79.0742C142.98 79.0784 142.98 79.0784 143.777 79.0827C144.312 79.0814 144.847 79.0801 145.398 79.0787C146.53 79.0778 147.661 79.0803 148.793 79.0861C150.528 79.0936 152.263 79.0862 153.998 79.0773C155.096 79.0782 156.194 79.08 157.292 79.0827C157.813 79.0799 158.334 79.0771 158.87 79.0742C162.543 79.1076 162.543 79.1076 164.093 80.6581C164.334 82.5351 164.4 83.6598 163.359 85.2716C161.322 86.7021 159.258 86.5185 156.858 86.4976C156.356 86.4996 155.855 86.5016 155.338 86.5037C154.279 86.5051 153.22 86.5012 152.161 86.4925C150.541 86.4813 148.921 86.4924 147.3 86.5058C146.271 86.5044 145.241 86.5017 144.212 86.4976C143.727 86.5018 143.243 86.506 142.743 86.5104C140.735 86.4812 139.381 86.4445 137.711 85.2716C136.669 83.6598 136.736 82.5351 136.976 80.6581C138.726 78.9079 139.811 79.0959 142.199 79.0742Z" fill="#358B1D"/>
<path d="M272.475 64.8367C275.8 66.6986 279.175 69.5438 280.906 73.0066C281.036 75.0926 281.036 75.0926 280.906 77.1785C279.516 78.5691 279.516 78.5691 277.56 78.8733C274.664 78.4759 273.721 77.2732 271.867 75.0926C270.317 75.7874 269.238 76.3036 268.13 77.6131C267 78.5691 267 78.5691 264.87 78.7864C262.828 78.5691 262.828 78.5691 261.437 77.1785C261.046 75.3533 261.046 75.3533 261.437 73.0066C263.869 69.3626 267.736 64.4246 272.475 64.8367Z" fill="#FF9E30"/>
<path d="M142.199 49.1758C142.98 49.18 142.98 49.18 143.777 49.1843C144.312 49.183 144.847 49.1817 145.398 49.1803C146.53 49.1793 147.661 49.1819 148.793 49.1877C150.528 49.1951 152.263 49.1878 153.998 49.1789C155.096 49.1798 156.194 49.1816 157.292 49.1843C157.813 49.1815 158.334 49.1787 158.87 49.1758C162.543 49.2091 162.543 49.2091 164.093 50.7596C164.334 52.6367 164.4 53.7614 163.359 55.3732C161.322 56.8037 159.258 56.6201 156.858 56.5992C156.356 56.6012 155.855 56.6032 155.338 56.6052C154.279 56.6066 153.22 56.6028 152.161 56.5941C150.541 56.5829 148.921 56.594 147.3 56.6073C146.271 56.6059 145.241 56.6033 144.212 56.5992C143.727 56.6034 143.243 56.6076 142.743 56.612C140.735 56.5828 139.381 56.5461 137.711 55.3732C136.669 53.7614 136.736 52.6367 136.976 50.7596C138.726 49.0095 139.811 49.1975 142.199 49.1758Z" fill="#358B1D"/>
<path d="M106.383 105.688C109.825 105.688 113.266 105.688 116.812 105.688C116.812 111.194 116.812 116.701 116.812 122.375C113.371 122.375 109.929 122.375 106.383 122.375C106.383 116.868 106.383 111.361 106.383 105.688Z" fill="#358B1D"/>
<path d="M293.816 322.574C297.727 323.798 300.04 326.348 302.461 329.579C303.127 331.386 303.198 332.496 303.157 334.446C301.436 335.479 301.436 335.479 299.68 336.532C297.554 335.325 295.763 334.179 294.117 332.36C292.563 333.082 291.308 333.774 289.989 334.881C288.203 336.071 287.186 336.114 285.078 335.837C283.688 334.446 283.688 334.446 283.381 332.531C283.782 329.581 285.153 328.142 287.208 326.146C287.532 325.794 287.856 325.442 288.19 325.08C290.1 323.174 291.096 322.631 293.816 322.574Z" fill="#FE9F3A"/>
<path d="M170.352 326.102C173.671 325.298 176.841 324.903 180.086 326.102C184.616 329.344 188.296 333.713 191.906 337.923C189.27 339.68 187.172 339.469 184.127 339.4C183.606 339.394 183.085 339.388 182.548 339.381C181.264 339.365 179.979 339.34 178.695 339.313C178.504 338.892 178.312 338.471 178.114 338.037C177.302 336.355 177.302 336.355 175.479 334.707C174.935 334.162 174.39 333.617 173.828 333.055C173.828 332.597 173.828 332.138 173.828 331.665C173.14 331.435 172.451 331.206 171.742 330.97C170.917 328.492 170.917 328.492 170.352 326.102Z" fill="#358B1D"/>
<path d="M211.418 82.4104C213.888 83.018 214.859 84.1437 216.242 86.2184C216.768 88.2088 216.806 89.7961 216.242 91.7809C214.238 94.0714 212.945 95.0967 209.941 95.6485C207.269 95.1369 206.198 94.5572 204.422 92.4762C203.699 90.3372 203.467 88.4634 203.726 86.2184C205.741 83.0346 207.779 82.1485 211.418 82.4104Z" fill="#FF6F6F"/>
<path d="M211.418 52.512C213.888 53.1196 214.859 54.2452 216.242 56.3199C216.768 58.3104 216.806 59.8977 216.242 61.8824C214.238 64.1729 212.945 65.1983 209.941 65.7501C207.269 65.2385 206.198 64.6587 204.422 62.5777C203.699 60.4387 203.467 58.5649 203.726 56.3199C205.741 53.1361 207.779 52.2501 211.418 52.512Z" fill="#FF6F6F"/>
<path d="M253.094 289.944C255.006 291.166 255.426 292.019 256.57 294.116C256.618 296.876 256.302 298.359 254.745 300.635C252.469 302.192 250.986 302.507 248.226 302.46C245.232 300.827 245.232 300.827 244.055 298.983C243.36 295.997 243.553 293.62 245.054 290.944C247.73 289.443 250.107 289.249 253.094 289.944Z" fill="#FB6C6F"/>
<path d="M229.453 289.944C231.365 291.166 231.785 292.019 232.93 294.116C232.977 296.876 232.662 298.359 231.104 300.635C228.828 302.192 227.345 302.507 224.586 302.46C221.592 300.827 221.592 300.827 220.414 298.983C219.719 295.997 219.912 293.62 221.413 290.944C224.09 289.443 226.466 289.249 229.453 289.944Z" fill="#FA6C70"/>
<path d="M189.125 326.101C191.3 325.745 193.215 325.659 195.383 326.101C196.845 327.265 197.842 328.524 198.971 330.012C200.865 332.457 203.097 334.526 205.31 336.68C206.508 337.921 206.508 337.921 206.508 338.616C202.318 339.361 198.241 339.381 193.992 339.312C193.992 339.082 193.992 338.853 193.992 338.616C196.057 338.387 198.122 338.157 200.25 337.921C199.744 337.421 199.744 337.421 199.229 336.911C197.713 335.41 196.2 333.906 194.688 332.402C194.157 331.877 193.626 331.352 193.08 330.812C192.578 330.312 192.076 329.812 191.559 329.297C191.093 328.835 190.626 328.373 190.146 327.896C189.125 326.796 189.125 326.796 189.125 326.101Z" fill="#358B1D"/>
<path d="M131.631 181.562C134.031 182.343 135.718 183.353 137.672 184.951C138.411 186.733 138.411 186.733 138.367 188.428C137.585 189.688 137.585 189.688 136.281 190.514C133.766 191.073 132.259 190.355 130.154 189.036C128.256 187.585 127.984 187.277 127.503 184.821C128.065 182.294 128.977 181.418 131.631 181.562Z" fill="#FD5456"/>
<path d="M202.423 162.355C204.422 162.703 204.422 162.703 205.812 164.094C205.731 168.334 204.442 170.187 201.641 173.133C198.338 172.611 198.338 172.611 196.773 171.047C196.953 167.097 198.155 163.038 202.423 162.355Z" fill="#FD5456"/>
<path d="M176.218 255.656C178 255.874 178 255.874 179.135 256.737C180.633 258.663 180.415 260.348 180.33 262.71C180.086 264.217 180.086 264.217 178.912 266.042C177.304 266.999 177.304 266.999 175.436 266.912C173.828 266.303 173.828 266.303 173.132 264.913C173.048 263.64 173.01 262.364 173.002 261.088C172.992 260.407 172.982 259.726 172.972 259.024C173.192 256.608 173.81 255.965 176.218 255.656Z" fill="#FC5456"/>
<path d="M226.281 207.68C226.954 207.668 227.627 207.657 228.32 207.645C230.148 207.897 230.148 207.897 231.438 208.842C232.234 209.983 232.234 209.983 232.147 211.765C231.539 213.46 231.539 213.46 229.453 214.85C227.954 215.059 227.954 215.059 226.324 215.068C225.517 215.085 225.517 215.085 224.694 215.103C222.838 214.79 222.232 214.252 221.109 212.764C220.892 210.983 220.892 210.983 221.109 209.288C222.918 207.479 223.768 207.69 226.281 207.68Z" fill="#FC5456"/>
<path d="M152.404 249.227C154.359 249.618 154.359 249.618 155.75 251.008C155.647 253.746 155.25 255.536 153.881 257.918C152.274 259.352 152.274 259.352 150.101 259.656C148.102 259.352 148.102 259.352 146.711 257.961C146.207 255.444 146.867 253.934 148.189 251.834C149.644 249.926 149.928 249.664 152.404 249.227Z" fill="#FD5355"/>
<path d="M223.195 181.478C224.586 182.868 224.586 182.868 224.977 184.824C224.54 187.3 224.277 187.583 222.37 189.039C220.27 190.361 218.76 191.02 216.242 190.517C214.852 189.126 214.852 189.126 214.46 187.17C214.897 184.694 215.16 184.411 217.068 182.955C219.168 181.633 220.678 180.974 223.195 181.478Z" fill="#FD9F3C"/>
<path d="M200.076 249.27C202.607 249.659 202.861 249.893 204.335 251.833C205.657 253.933 206.316 255.443 205.812 257.961C204.422 259.352 204.422 259.352 202.466 259.743C200.013 259.31 199.684 259.048 198.207 257.179C196.944 255.193 196.769 254.589 196.86 252.138C197.67 249.707 197.67 249.707 200.076 249.27Z" fill="#FD5254"/>
<path d="M218.545 231.625C220.976 232.416 222.644 233.344 224.586 235.015C224.934 237.188 224.934 237.188 224.586 239.187C224.127 239.645 223.668 240.104 223.195 240.577C220.458 240.474 218.668 240.077 216.286 238.709C214.852 237.101 214.852 237.101 214.504 234.928C214.619 234.268 214.733 233.608 214.852 232.929C216.938 231.538 216.938 231.538 218.545 231.625Z" fill="#FD5254"/>
<path d="M136.977 232.236C137.672 232.932 137.672 232.932 137.933 234.887C137.672 237.104 137.672 237.104 136.238 238.712C133.855 240.08 132.065 240.477 129.328 240.58C127.938 239.19 127.938 239.19 127.503 237.234C128.011 234.645 128.394 234.396 130.501 232.975C132.882 231.654 134.354 231.124 136.977 232.236Z" fill="#FD5354"/>
<path d="M150.013 162.355C152.545 162.745 152.799 162.979 154.272 164.919C155.594 167.019 156.253 168.529 155.75 171.047C154.359 172.438 154.359 172.438 152.404 172.829C149.951 172.396 149.622 172.134 148.145 170.265C146.881 168.279 146.707 167.675 146.798 165.224C147.608 162.793 147.608 162.793 150.013 162.355Z" fill="#FD5253"/>
<path d="M124.135 207.715C124.816 207.718 125.497 207.722 126.199 207.726C126.88 207.722 127.561 207.719 128.263 207.715C130.023 207.9 130.023 207.9 131.414 209.29C131.664 211.24 131.76 212.309 130.553 213.905C129.008 215.101 128.136 215.133 126.199 215.113C125.661 215.119 125.124 215.124 124.569 215.13C122.725 214.789 122.105 214.248 120.984 212.767C120.767 210.985 120.767 210.985 120.984 209.29C122.375 207.9 122.375 207.9 124.135 207.715Z" fill="#FD5153"/>
<path d="M174.524 155.75C177.001 155.924 177.001 155.924 179.391 156.445C180.2 158.063 180.224 159.12 180.26 160.921C180.287 161.737 180.287 161.737 180.314 162.57C180.032 164.457 179.509 165.047 178 166.18C176.218 166.397 176.218 166.397 174.524 166.18C173.133 164.789 173.133 164.789 172.948 163.029C172.952 162.348 172.955 161.667 172.959 160.965C172.956 160.284 172.952 159.602 172.948 158.901C173.133 157.141 173.133 157.141 174.524 155.75Z" fill="#FD5253"/>
<path d="M228.453 138.494C230.148 139.058 230.148 139.058 231.539 140.449C231.723 142.057 231.723 142.057 231.713 143.926C231.716 144.542 231.72 145.159 231.723 145.794C231.539 147.402 231.539 147.402 230.148 148.793C228.062 148.967 228.062 148.967 225.976 148.793C224.231 147.048 224.379 146.381 224.368 143.969C224.357 143.361 224.345 142.752 224.333 142.125C224.586 140.449 224.586 140.449 225.531 139.178C226.672 138.363 226.672 138.363 228.453 138.494Z" fill="#358B1D"/>
<path d="M124.852 138.494C126.547 139.058 126.547 139.058 127.937 140.449C128.122 142.057 128.122 142.057 128.111 143.926C128.115 144.542 128.118 145.159 128.122 145.794C127.937 147.402 127.937 147.402 126.547 148.793C124.461 148.967 124.461 148.967 122.375 148.793C120.629 147.048 120.777 146.381 120.767 143.969C120.755 143.361 120.743 142.752 120.731 142.125C120.984 140.449 120.984 140.449 121.929 139.178C123.07 138.363 123.07 138.363 124.852 138.494Z" fill="#358B1D"/>
<path d="M113.727 138.494C115.422 139.058 115.422 139.058 116.812 140.449C116.997 142.057 116.997 142.057 116.986 143.926C116.99 144.542 116.993 145.159 116.997 145.794C116.812 147.402 116.812 147.402 115.422 148.793C113.336 148.967 113.336 148.967 111.25 148.793C109.504 147.048 109.652 146.381 109.642 143.969C109.63 143.361 109.618 142.752 109.606 142.125C109.859 140.449 109.859 140.449 110.804 139.178C111.945 138.363 111.945 138.363 113.727 138.494Z" fill="#358B1D"/>
<path d="M239.578 138.494C241.273 139.059 241.273 139.059 242.664 140.45C242.848 142.057 242.848 142.057 242.838 143.926C242.841 144.543 242.845 145.159 242.848 145.795C242.664 147.403 242.664 147.403 241.273 148.793C239.187 149.011 239.187 149.011 237.101 148.793C235.665 146.639 235.506 146.044 235.493 143.578C235.482 143.041 235.47 142.503 235.458 141.949C235.89 139.382 236.979 138.304 239.578 138.494Z" fill="#358B1D"/>
<path d="M170.352 326.102C172.899 326.501 174.056 327.473 175.838 329.298C176.331 329.798 176.824 330.298 177.332 330.813C177.839 331.337 178.346 331.862 178.869 332.403C179.387 332.93 179.905 333.458 180.439 334.001C181.717 335.304 182.989 336.61 184.258 337.922C182.013 339.418 181.279 339.452 178.695 339.312C178.538 338.925 178.38 338.538 178.217 338.139C177.31 336.375 177.31 336.375 175.479 334.706C174.935 334.161 174.39 333.616 173.828 333.055C173.828 332.596 173.828 332.137 173.828 331.664C173.14 331.435 172.451 331.205 171.742 330.969C170.917 328.492 170.917 328.492 170.352 326.102Z" fill="#358B1D"/>
<path d="M52.844 292.726C54.1042 293.508 54.1042 293.508 54.9299 294.812C55.1472 296.942 55.1472 296.942 54.9299 298.984C53.5393 300.375 53.5393 300.375 51.4968 300.592C49.3674 300.375 49.3674 300.375 48.0637 299.549C46.9988 297.833 46.9837 296.797 47.2815 294.812C48.7722 292.537 50.2238 292.333 52.844 292.726Z" fill="#FF9D32"/>
<path d="M53.5391 282.991C54.9297 284.381 54.9297 284.381 55.147 286.424C54.9297 288.553 54.9297 288.553 54.104 289.857C52.3883 290.922 51.3522 290.937 49.3672 290.639C48.0635 289.9 48.0635 289.9 47.2812 288.553C47.4116 286.033 47.4116 286.033 47.9766 283.686C49.8974 282.726 51.4165 282.858 53.5391 282.991Z" fill="#FF9F31"/>
<path d="M36.1562 282.991C37.5469 284.381 37.5469 284.381 37.7642 286.424C37.5469 288.553 37.5469 288.553 36.7646 289.9C35.4609 290.639 35.4609 290.639 33.3315 290.509C31.2891 289.944 31.2891 289.944 29.8984 288.553C30.0723 286.076 30.0723 286.076 30.5938 283.686C32.5146 282.726 34.0337 282.858 36.1562 282.991Z" fill="#FF9E31"/>
<path d="M34.8527 292.9C35.8422 293.158 35.8422 293.158 36.8517 293.421C37.8121 295.342 37.6797 296.861 37.547 298.984C36.1564 300.374 36.1564 300.374 34.1139 300.592C31.9845 300.374 31.9845 300.374 30.6374 299.592C29.8986 298.288 29.8986 298.288 29.9855 296.159C30.8506 293.255 31.8501 292.659 34.8527 292.9Z" fill="#FF9D32"/>
<path d="M42.3707 277.863C44.5001 278.124 44.5001 278.124 45.8472 279.297C46.7874 281.344 46.663 282.286 45.8907 284.382C43.8048 285.772 43.8048 285.772 41.6319 285.599C40.6424 285.34 40.6424 285.34 39.6329 285.077C38.6725 283.156 38.8049 281.637 38.9376 279.515C40.3282 278.124 40.3282 278.124 42.3707 277.863Z" fill="#FF9D32"/>
<path d="M45.1953 298.289C46.5859 300.375 46.5859 300.375 46.4121 302.548C46.24 303.207 46.0679 303.867 45.8906 304.547C43.9698 305.507 42.4507 305.375 40.3281 305.242C38.9375 303.851 38.9375 303.851 38.6768 301.809C38.9375 299.679 38.9375 299.679 40.1108 298.332C42.1572 297.392 43.0991 297.517 45.1953 298.289Z" fill="#FF9E33"/>
<path d="M245.054 15.1211C245.872 15.1785 246.689 15.2358 247.531 15.2949C248.922 17.3809 248.922 17.3809 248.748 19.1626C248.227 20.8574 248.227 20.8574 246.836 22.248C245.141 22.5088 245.141 22.5088 243.359 22.248C242.056 21.0747 242.056 21.0747 241.273 19.4668C241.578 16.1941 241.674 15.3669 245.054 15.1211Z" fill="#358B1D"/>
<path d="M262.437 15.1211C263.254 15.1785 264.072 15.2358 264.914 15.2949C266.305 17.3809 266.305 17.3809 266.174 19.1626C265.609 20.8574 265.609 20.8574 263.523 22.248C261.213 22.0227 260.32 21.8255 258.656 20.1621C259.146 15.3604 259.146 15.3604 262.437 15.1211Z" fill="#358B1D"/>
<path d="M262.437 24.8125C264.219 25.0298 264.219 25.0298 265.523 25.8555C266.305 27.1157 266.305 27.1157 266.174 28.8975C265.61 30.5923 265.61 30.5923 264.219 31.9829C262.223 32.2388 261.154 32.2437 259.439 31.1572C258.656 29.897 258.656 29.897 258.787 28.1152C259.53 25.8855 260.063 25.1169 262.437 24.8125Z" fill="#358B1D"/>
<path d="M245.054 24.8125C246.836 25.0298 246.836 25.0298 248.14 25.8555C248.922 27.1157 248.922 27.1157 248.792 28.8975C248.227 30.5923 248.227 30.5923 246.836 31.9829C244.84 32.2388 243.771 32.2437 242.056 31.1572C241.274 29.897 241.274 29.897 241.404 28.1152C242.147 25.8855 242.68 25.1169 245.054 24.8125Z" fill="#358B1D"/>
<path d="M254.18 30.0256C255.875 30.5905 255.875 30.5905 257.266 31.9811C257.439 33.7194 257.439 33.7194 257.266 35.4577C255.875 36.8483 255.875 36.8483 253.789 37.0222C251.703 36.8483 251.703 36.8483 250.313 35.4577C250.057 33.4621 250.052 32.3929 251.138 30.6774C252.398 29.8952 252.398 29.8952 254.18 30.0256Z" fill="#358B1D"/>
<path d="M253.789 10.2539C255.875 10.4277 255.875 10.4277 257.266 11.8184C257.439 13.5566 257.439 13.5566 257.266 15.2949C255.875 16.6855 255.875 16.6855 253.789 16.8594C251.703 16.6855 251.703 16.6855 250.312 15.2949C250.139 13.5566 250.139 13.5566 250.312 11.8184C251.703 10.4277 251.703 10.4277 253.789 10.2539Z" fill="#358B1D"/>
<path d="M177.305 326.102C180.206 326.456 181.532 327.211 183.554 329.298C184.045 329.798 184.536 330.298 185.041 330.813C185.543 331.337 186.044 331.862 186.561 332.403C187.076 332.93 187.591 333.458 188.121 334.001C189.39 335.302 190.651 336.609 191.906 337.922C189.662 339.418 188.928 339.452 186.344 339.312C187.032 338.854 187.72 338.395 188.43 337.922C187.924 337.422 187.924 337.422 187.408 336.912C185.893 335.411 184.38 333.907 182.867 332.403C182.337 331.878 181.806 331.353 181.259 330.813C180.757 330.313 180.255 329.813 179.738 329.298C179.272 328.836 178.806 328.373 178.326 327.897C177.305 326.797 177.305 326.797 177.305 326.102Z" fill="#358B1D" fill-opacity="0.176471"/>
<path d="M172.438 326.102C174.963 326.503 176.138 327.455 177.924 329.249C178.417 329.743 178.91 330.236 179.418 330.745C179.925 331.263 180.432 331.782 180.955 332.316C181.473 332.832 181.991 333.348 182.525 333.879C186.344 337.736 186.344 337.736 186.344 339.312C184.967 339.312 183.59 339.312 182.172 339.312C182.631 338.854 183.09 338.395 183.562 337.922C183.057 337.422 183.057 337.422 182.541 336.912C181.026 335.411 179.513 333.907 178 332.403C177.469 331.878 176.939 331.353 176.392 330.813C175.89 330.313 175.388 329.813 174.871 329.298C174.405 328.836 173.939 328.373 173.459 327.897C172.438 326.797 172.438 326.797 172.438 326.102Z" fill="#358B1D"/>
<path d="M171.047 328.883C173.879 330.002 175.751 332.038 177.826 334.185C178.178 334.543 178.531 334.902 178.894 335.271C179.758 336.151 180.618 337.036 181.477 337.922C181.247 338.381 181.018 338.84 180.781 339.312C178.534 338.563 178.001 338.031 176.522 336.271C176.162 335.849 175.802 335.428 175.431 334.994C174.523 333.75 174.523 333.75 173.828 331.664C173.14 331.435 172.451 331.205 171.742 330.969C171.513 330.28 171.283 329.592 171.047 328.883Z" fill="#358B1D"/>
<path d="M172.438 331.664C173.828 331.664 173.828 331.664 175.029 332.808C175.464 333.305 175.9 333.802 176.349 334.315C176.788 334.807 177.227 335.299 177.68 335.806C178.695 337.227 178.695 337.227 178.695 339.312C173.364 335.164 173.364 335.164 172.438 331.664Z" fill="#358B1D"/>
</g>
<defs>
<clipPath id="clip0_121_520">
<rect width="356" height="356" fill="white"/>
</clipPath>
</defs>
</svg>
