<svg width="329" height="329" viewBox="0 0 329 329" fill="none" xmlns="http://www.w3.org/2000/svg">
<path d="M30.0385 15.0957C30.873 15.0917 31.7076 15.0877 32.5674 15.0835C34.8799 15.0728 37.1922 15.0781 39.5046 15.0861C42.0001 15.0919 44.4955 15.0829 46.991 15.0758C51.8782 15.0644 56.7653 15.0669 61.6525 15.0743C65.6247 15.0801 69.5969 15.0809 73.5691 15.0781C74.1344 15.0777 74.6997 15.0773 75.2821 15.0769C76.4305 15.0761 77.5789 15.0753 78.7273 15.0744C89.497 15.0671 100.267 15.0755 111.036 15.0893C120.276 15.1008 129.516 15.0988 138.756 15.087C149.487 15.0732 160.217 15.0678 170.947 15.0757C172.091 15.0765 173.236 15.0773 174.38 15.0781C174.943 15.0785 175.506 15.0789 176.086 15.0793C180.053 15.0815 184.02 15.0778 187.987 15.0717C192.822 15.0645 197.657 15.0665 202.492 15.0802C204.959 15.0869 207.425 15.0896 209.892 15.0811C212.567 15.072 215.241 15.0828 217.915 15.0957C219.084 15.0871 219.084 15.0871 220.277 15.0783C224.496 15.1177 227.39 15.2309 230.686 17.9924C233.234 21.411 233.625 24.7694 233.565 28.9229C233.567 29.4836 233.569 30.0442 233.572 30.6219C233.576 32.4888 233.562 34.355 233.548 36.2218C233.547 37.5646 233.547 38.9075 233.549 40.2504C233.549 43.8878 233.534 47.525 233.516 51.1623C233.5 54.9666 233.499 58.7709 233.496 62.5752C233.488 69.7756 233.467 76.9759 233.441 84.1762C233.412 92.375 233.398 100.574 233.385 108.773C233.358 125.635 233.313 142.497 233.256 159.36C233.632 159.355 234.009 159.349 234.397 159.344C236.138 159.324 237.878 159.312 239.619 159.299C240.507 159.287 240.507 159.287 241.413 159.275C259.641 159.179 276.606 167.854 289.803 179.922C290.316 180.383 290.83 180.843 291.359 181.318C298.637 188.183 303.76 196.547 307.795 205.625C308.26 206.653 308.26 206.653 308.734 207.701C316.326 225.854 315.669 247.378 308.638 265.546C304.838 274.789 299.741 282.448 293.016 289.803C292.555 290.316 292.094 290.83 291.62 291.359C284.751 298.641 276.39 303.751 267.312 307.795C266.296 308.26 266.296 308.26 265.259 308.734C252.529 314.106 239.255 313.958 225.713 313.914C222.978 313.908 220.243 313.918 217.508 313.925C212.17 313.936 206.833 313.934 201.495 313.926C197.158 313.92 192.821 313.919 188.484 313.922C187.864 313.923 187.245 313.923 186.606 313.923C185.348 313.924 184.089 313.925 182.83 313.926C171.063 313.933 159.295 313.925 147.528 313.911C137.434 313.9 127.341 313.902 117.247 313.913C105.505 313.927 93.7628 313.933 82.0209 313.925C80.7697 313.924 79.5185 313.923 78.2672 313.922C77.6517 313.922 77.0362 313.921 76.402 313.921C72.0661 313.919 67.7303 313.923 63.3944 313.929C58.1169 313.936 52.8395 313.934 47.562 313.92C44.8701 313.913 42.1783 313.911 39.4864 313.919C37.0229 313.927 34.5597 313.923 32.0963 313.909C31.2049 313.906 30.3136 313.908 29.4223 313.914C21.0054 313.968 21.0054 313.968 17.9921 311.008C15.6745 308.088 15.0492 305.882 15.0984 302.233C15.0928 301.506 15.0928 301.506 15.087 300.763C15.0777 299.137 15.0866 297.51 15.0954 295.884C15.0925 294.706 15.0884 293.529 15.0833 292.351C15.0725 289.115 15.0779 285.878 15.0858 282.641C15.0916 279.151 15.0827 275.661 15.0756 272.17C15.0641 265.333 15.0666 258.495 15.0741 251.657C15.0799 246.101 15.0807 240.544 15.0779 234.988C15.0775 234.198 15.0771 233.408 15.0767 232.594C15.0759 230.988 15.075 229.383 15.0742 227.778C15.0671 213.149 15.0744 198.52 15.0879 183.891C15.1001 170.534 15.099 157.178 15.0867 143.822C15.073 128.818 15.0675 113.814 15.0754 98.8102C15.0763 97.2109 15.0771 95.6115 15.0779 94.0122C15.0785 92.8318 15.0785 92.8318 15.0791 91.6276C15.0813 86.0767 15.0775 80.5258 15.0715 74.9749C15.0643 68.2121 15.0662 61.4493 15.0799 54.6865C15.0867 51.2347 15.0893 47.783 15.0808 44.3311C15.0732 41.1729 15.0774 38.0149 15.0911 34.8567C15.0939 33.7126 15.0924 32.5684 15.0862 31.4243C15.0784 29.8716 15.0864 28.3198 15.0984 26.7672C15.0923 26.3207 15.0863 25.8742 15.0801 25.4142C15.1292 22.2343 16.0319 20.4571 17.9921 17.9924C21.526 14.617 25.4314 15.0619 30.0385 15.0957Z" fill="#E0E5E8"/>
<path d="M30.0385 15.0957C30.873 15.0917 31.7076 15.0877 32.5674 15.0835C34.8799 15.0728 37.1922 15.0781 39.5046 15.0861C42.0001 15.0919 44.4955 15.0829 46.991 15.0758C51.8782 15.0644 56.7653 15.0669 61.6525 15.0743C65.6247 15.0801 69.5969 15.0809 73.5691 15.0781C74.1344 15.0777 74.6997 15.0773 75.2821 15.0769C76.4305 15.0761 77.5789 15.0753 78.7273 15.0744C89.497 15.0671 100.267 15.0755 111.036 15.0893C120.276 15.1008 129.516 15.0988 138.756 15.087C149.487 15.0732 160.217 15.0678 170.947 15.0757C172.091 15.0765 173.236 15.0773 174.38 15.0781C174.943 15.0785 175.506 15.0789 176.086 15.0793C180.053 15.0815 184.02 15.0778 187.987 15.0717C192.822 15.0645 197.657 15.0665 202.492 15.0802C204.959 15.0869 207.425 15.0896 209.892 15.0811C212.567 15.072 215.241 15.0828 217.915 15.0957C219.084 15.0871 219.084 15.0871 220.277 15.0783C224.526 15.118 227.247 15.4151 230.686 17.9924C231.687 19.2775 231.687 19.2775 232.252 20.5627C232.45 20.9868 232.648 21.4109 232.852 21.8479C233.256 23.133 233.256 23.133 233.256 25.7033C232.526 25.7415 231.797 25.7797 231.046 25.8191C201.118 27.4347 174.122 32.8993 146.508 44.9807C165.168 45.1927 183.829 45.4048 203.055 45.6232C203.055 59.1945 203.055 72.7657 203.055 86.7482C199.536 86.7206 196.018 86.6929 192.393 86.6645C180.759 86.5796 169.125 86.5439 157.491 86.5335C150.438 86.5259 143.386 86.5017 136.334 86.4376C130.184 86.3818 124.035 86.3578 117.885 86.3715C114.63 86.3777 111.378 86.3683 108.124 86.3207C105.055 86.2763 101.989 86.2748 98.9196 86.3049C97.7988 86.3086 96.6778 86.2971 95.5573 86.2687C90.8187 86.1557 86.6877 86.068 82.9839 89.3444C81.1433 91.205 79.5069 93.1886 77.9398 95.2826C76.7536 96.86 75.4626 98.3436 74.1776 99.8408C73.2191 101.039 72.2693 102.245 71.3261 103.455C71.0357 103.828 70.7452 104.2 70.446 104.584C62.9943 114.187 56.5783 124.274 50.7636 134.942C56.4645 141.872 56.4645 141.872 63.6152 147.151C68.5429 139.795 73.4475 132.428 78.2243 124.973C82.8447 117.805 82.8447 117.805 85.744 116.909C88.0331 116.949 88.0331 116.949 89.9207 117.873C91.4205 119.736 91.5725 120.852 91.5054 123.212C91.0039 126.013 89.3733 128.17 87.7922 130.484C87.44 131.019 87.0879 131.554 86.7251 132.106C85.6723 133.701 84.6048 135.285 83.5351 136.869C82.9918 137.689 82.4495 138.51 81.9086 139.332C80.9 140.86 79.883 142.382 78.8588 143.9C77.4824 145.943 76.1279 148 74.7775 150.06C74.3727 150.674 73.968 151.289 73.551 151.923C72.7493 153.14 71.9504 154.36 71.1545 155.582C70.7878 156.137 70.4212 156.692 70.0435 157.264C69.7176 157.761 69.3917 158.258 69.0559 158.77C68.1132 160.002 68.1132 160.002 66.1855 161.287C63.8659 161.582 62.7379 161.56 60.7738 160.248C60.2801 159.769 59.7864 159.291 59.2778 158.797C58.4515 158.01 58.4515 158.01 57.6086 157.206C55.4195 155.02 53.2389 152.827 51.0975 150.594C49.174 148.793 47.1499 147.359 44.9804 145.865C38.9803 159.907 33.9563 173.981 30.6117 188.911C30.3415 190.115 30.0612 191.316 29.78 192.517C28.4783 198.646 27.8285 204.831 27.2681 211.065C27.2254 211.54 27.1827 212.015 27.1388 212.504C26.2306 222.834 26.0379 233.121 26.0204 243.486C26.0142 245.966 25.9974 248.447 25.9819 250.928C25.9543 255.586 25.9356 260.244 25.9206 264.901C25.903 270.221 25.8748 275.541 25.8459 280.861C25.7869 291.767 25.7405 302.672 25.7031 313.578C22.2428 313.704 20.707 313.251 17.9921 311.008C15.6556 308.104 15.0493 305.877 15.0984 302.233C15.0928 301.506 15.0928 301.506 15.087 300.763C15.0777 299.137 15.0866 297.51 15.0954 295.884C15.0925 294.706 15.0884 293.529 15.0833 292.351C15.0725 289.115 15.0779 285.878 15.0858 282.641C15.0916 279.151 15.0827 275.661 15.0756 272.17C15.0641 265.333 15.0666 258.495 15.0741 251.657C15.0799 246.101 15.0807 240.544 15.0779 234.988C15.0775 234.198 15.0771 233.408 15.0767 232.594C15.0759 230.988 15.075 229.383 15.0742 227.778C15.0671 213.149 15.0744 198.52 15.0879 183.891C15.1001 170.534 15.099 157.178 15.0867 143.822C15.073 128.818 15.0675 113.814 15.0754 98.8102C15.0763 97.2109 15.0771 95.6115 15.0779 94.0122C15.0785 92.8318 15.0785 92.8318 15.0791 91.6276C15.0813 86.0767 15.0775 80.5258 15.0715 74.9749C15.0643 68.2121 15.0662 61.4493 15.0799 54.6865C15.0867 51.2347 15.0893 47.783 15.0808 44.3311C15.0732 41.1729 15.0774 38.0149 15.0911 34.8567C15.0939 33.7126 15.0924 32.5684 15.0862 31.4243C15.0784 29.8716 15.0864 28.3198 15.0984 26.7672C15.0923 26.3207 15.0863 25.8742 15.0801 25.4142C15.1292 22.2343 16.0319 20.4571 17.9921 17.9924C21.526 14.617 25.4314 15.0619 30.0385 15.0957Z" fill="#CBCBCB"/>
<path d="M283.696 174.591C285.795 176.303 287.804 178.097 289.803 179.925C290.573 180.616 290.573 180.616 291.359 181.32C298.638 188.186 303.76 196.55 307.795 205.628C308.26 206.656 308.26 206.656 308.734 207.704C316.326 225.857 315.669 247.381 308.638 265.548C304.838 274.792 299.741 282.451 293.016 289.806C292.555 290.319 292.095 290.833 291.62 291.362C284.751 298.644 276.39 303.753 267.313 307.798C266.635 308.108 265.957 308.417 265.259 308.737C247.215 316.351 226.239 315.547 208.195 308.521C198.15 304.222 189.781 298.571 181.85 291.091C181.415 290.697 180.98 290.304 180.532 289.899C171.797 281.689 166.461 270.965 162.653 259.765C162.469 259.226 162.285 258.687 162.095 258.132C155.931 239.106 158.795 217.985 167.777 200.388C176.413 184.355 189.806 172.559 206.268 165.146C207.285 164.68 207.285 164.68 208.323 164.204C232.652 153.956 263.016 158.292 283.696 174.591Z" fill="#4CBD2D"/>
<path d="M45.623 46.2656C97.5755 46.2656 149.528 46.2656 203.055 46.2656C203.055 59.4128 203.055 72.5599 203.055 86.1055C151.102 86.1055 99.1498 86.1055 45.623 86.1055C45.623 72.9583 45.623 59.8112 45.623 46.2656Z" fill="#358B1D"/>
<path d="M283.696 174.591C287.912 178.032 291.827 181.774 295.586 185.708C295.374 186.132 295.162 186.556 294.943 186.993C294.391 186.548 294.391 186.548 293.826 186.095C285.061 179.364 275.475 174.768 264.742 172.214C264.121 172.065 263.5 171.916 262.86 171.762C242.433 167.308 221.015 171.883 203.5 183.039C200.113 185.348 197.073 188.081 194.059 190.849C193.537 191.318 193.015 191.786 192.477 192.269C178.5 205.462 170.867 224.945 170.203 243.907C169.932 261.208 174.193 278.552 185.063 292.376C184.851 292.8 184.638 293.224 184.42 293.661C174.036 283.919 167.24 273.258 162.653 259.765C162.469 259.226 162.285 258.687 162.095 258.132C155.931 239.106 158.795 217.985 167.777 200.388C176.413 184.355 189.806 172.559 206.268 165.146C207.285 164.68 207.285 164.68 208.323 164.204C232.652 153.956 263.016 158.292 283.696 174.591Z" fill="#358B1D"/>
<path d="M278.236 206.911C279.843 207.915 279.843 207.915 280.807 209.481C281.249 211.57 281.249 211.57 280.807 213.979C279.946 215.17 279.946 215.17 278.826 216.399C278.213 217.074 278.213 217.074 277.587 217.762C275.615 219.857 273.608 221.91 271.571 223.94C271.122 224.391 270.672 224.842 270.208 225.307C268.738 226.779 267.266 228.25 265.794 229.72C264.766 230.748 263.738 231.777 262.711 232.805C260.566 234.951 258.42 237.095 256.273 239.239C253.517 241.991 250.764 244.746 248.012 247.502C245.895 249.622 243.776 251.74 241.657 253.857C240.641 254.873 239.625 255.89 238.61 256.906C237.196 258.322 235.781 259.735 234.365 261.147C233.944 261.569 233.523 261.991 233.089 262.427C232.705 262.809 232.32 263.192 231.924 263.586C231.59 263.92 231.255 264.254 230.911 264.598C229.225 266.127 227.425 266.503 225.163 266.462C221.536 265.444 218.942 261.977 216.391 259.326C215.709 258.637 215.027 257.948 214.343 257.261C212.551 255.453 210.776 253.631 209.004 251.805C207.552 250.314 206.088 248.834 204.625 247.354C201.604 244.301 198.59 241.241 195.596 238.162C195.065 237.616 194.534 237.071 193.987 236.51C192.377 234.751 192.154 234.149 191.93 231.73C192.131 229.401 192.131 229.401 193.135 227.835C195.474 226.336 196.447 226.254 199.199 226.831C205.465 231.466 210.827 237.743 216.308 243.257C217.269 244.221 218.231 245.185 219.192 246.15C221.526 248.49 223.857 250.833 226.188 253.176C229.295 250.595 232.192 247.885 235.008 244.99C235.848 244.133 236.689 243.275 237.53 242.418C237.968 241.97 238.407 241.521 238.858 241.059C241.2 238.668 243.554 236.288 245.905 233.907C248.889 230.884 251.869 227.858 254.836 224.819C257.242 222.353 259.661 219.9 262.088 217.456C263.009 216.524 263.925 215.588 264.836 214.647C266.109 213.334 267.397 212.037 268.69 210.743C269.062 210.352 269.433 209.962 269.815 209.559C272.606 206.817 274.342 206.419 278.236 206.911Z" fill="#E8EDED"/>
<path d="M122.43 137.097C123.317 137.093 124.204 137.087 125.091 137.08C127.493 137.065 129.894 137.071 132.296 137.081C134.813 137.089 137.33 137.082 139.847 137.077C144.073 137.071 148.299 137.079 152.525 137.094C157.407 137.111 162.288 137.106 167.17 137.088C171.366 137.073 175.562 137.071 179.758 137.08C182.263 137.085 184.766 137.086 187.271 137.075C189.625 137.066 191.979 137.072 194.334 137.091C195.607 137.097 196.88 137.087 198.153 137.077C204.393 137.152 204.393 137.152 206.783 139.025C208.195 140.726 208.195 140.726 208.637 142.653C208.191 144.601 207.684 145.744 206.222 147.119C203.234 148.746 199.483 148.236 196.164 148.21C195.256 148.214 194.348 148.22 193.441 148.227C190.979 148.241 188.518 148.236 186.056 148.226C183.48 148.217 180.903 148.225 178.326 148.23C174 148.236 169.674 148.228 165.348 148.213C160.346 148.195 155.344 148.201 150.342 148.219C146.047 148.233 141.752 148.235 137.456 148.227C134.891 148.222 132.326 148.221 129.761 148.232C127.35 148.241 124.94 148.235 122.529 148.216C121.644 148.212 120.759 148.213 119.874 148.22C118.666 148.229 117.459 148.216 116.251 148.202C115.576 148.201 114.9 148.2 114.204 148.198C111.822 147.649 111.16 146.61 109.881 144.581C109.479 142.653 109.479 142.653 109.881 140.726C113.333 136.559 117.317 137.057 122.43 137.097Z" fill="#333434"/>
<path d="M89.3186 117.592C90.5636 118.275 90.5636 118.275 91.2463 119.52C91.7772 124.21 90.4008 126.666 87.7925 130.484C87.4403 131.019 87.0882 131.554 86.7254 132.106C85.6726 133.701 84.6051 135.286 83.5354 136.87C82.9921 137.69 82.4498 138.51 81.9089 139.332C80.9003 140.86 79.8833 142.382 78.8591 143.9C77.4827 145.943 76.1282 148 74.7778 150.06C74.373 150.675 73.9683 151.289 73.5513 151.923C72.7496 153.141 71.9507 154.36 71.1548 155.582C70.7882 156.137 70.4215 156.692 70.0438 157.264C69.5549 158.01 69.5549 158.01 69.0562 158.771C68.1135 160.002 68.1135 160.002 66.1858 161.287C63.8662 161.582 62.7383 161.56 60.7741 160.248C60.2804 159.77 59.7867 159.291 59.2781 158.797C58.7264 158.271 58.1747 157.744 57.6064 157.201C57.0448 156.641 56.4832 156.081 55.9045 155.504C55.3562 154.958 54.8078 154.411 54.2429 153.848C53.1623 152.764 52.0846 151.677 51.0099 150.587C49.632 149.23 48.221 147.961 46.7478 146.709C40.719 141.477 40.719 141.477 40.0811 137.713C40.4827 135.584 40.4827 135.584 41.4867 134.018C43.8254 132.519 44.7992 132.437 47.551 133.014C49.9199 134.714 51.9307 136.727 53.9768 138.797C54.8316 139.662 54.8316 139.662 55.7037 140.544C56.7797 141.633 57.8489 142.728 58.9091 143.832C60.3892 145.211 61.8473 146.181 63.6155 147.151C68.5432 139.795 73.4478 132.428 78.2246 124.974C83.7396 116.418 83.7396 116.418 89.3186 117.592Z" fill="#358B1D"/>
<path d="M87.0695 180.687C89.3185 181.209 89.3185 181.209 90.5635 181.892C91.7143 183.991 91.6723 185.988 91.2462 188.278C90.0819 190.707 88.5696 192.86 87.0293 195.065C86.1454 196.373 85.2619 197.68 84.3787 198.988C83.9214 199.657 83.4642 200.326 82.9931 201.015C80.7548 204.314 78.5941 207.663 76.4268 211.009C75.2963 212.747 74.1643 214.483 73.0278 216.217C72.3142 217.308 71.6058 218.403 70.9024 219.501C70.566 220.02 70.2296 220.54 69.883 221.074C69.5878 221.535 69.2925 221.995 68.9883 222.469C68.1134 223.62 68.1134 223.62 66.1857 224.905C63.1199 224.969 61.4222 224.245 59.1801 222.272C58.3063 221.432 57.4423 220.582 56.5872 219.724C56.1341 219.284 55.681 218.844 55.2141 218.391C53.9348 217.145 52.6682 215.887 51.4064 214.624C50.8688 214.088 50.3312 213.552 49.7773 213C48.9778 212.197 48.1809 211.391 47.3877 210.582C45.7105 208.939 43.9278 207.425 42.1317 205.914C40.5567 204.46 40.4838 203.713 40.2817 201.531C40.4825 199.202 40.4825 199.202 41.4866 197.635C43.7562 196.181 44.8915 196.144 47.5509 196.631C48.7187 197.479 48.7187 197.479 49.9305 198.589C50.3784 198.996 50.8263 199.403 51.2878 199.822C51.751 200.254 52.2143 200.685 52.6915 201.129C53.1465 201.549 53.6014 201.97 54.0702 202.402C55.4372 203.672 56.7965 204.95 58.1534 206.23C58.6206 206.669 59.0878 207.109 59.5691 207.561C60.7044 208.63 61.839 209.698 62.9728 210.768C65.3584 208.617 66.8745 206.221 68.515 203.499C71.6833 198.337 74.996 193.29 78.3947 188.278C78.8353 187.623 79.276 186.967 79.73 186.292C80.1243 185.715 80.5186 185.138 80.9248 184.543C81.2619 184.048 81.5991 183.554 81.9464 183.044C83.5671 181.002 84.4553 180.547 87.0695 180.687Z" fill="#358B1D"/>
<path d="M86.5073 243.738C88.676 244.18 88.676 244.18 90.2423 245.144C91.6253 247.357 91.6166 249.374 91.2463 251.891C90.4077 253.519 89.6339 254.785 88.5555 256.228C87.9611 257.07 87.3679 257.913 86.7759 258.756C86.4581 259.202 86.1403 259.649 85.8129 260.109C84.0464 262.638 82.3933 265.241 80.7241 267.835C77.9042 272.184 75.0714 276.525 72.2099 280.847C71.8907 281.333 71.5715 281.818 71.2426 282.319C70.9439 282.768 70.6452 283.218 70.3374 283.681C70.0776 284.074 69.8179 284.466 69.5502 284.871C68.0531 286.901 67.3238 287.778 64.7801 288.277C61.2286 287.695 59.7031 285.845 57.1897 283.377C56.2184 282.492 55.247 281.608 54.2725 280.727C52.8239 279.408 51.3957 278.068 49.9688 276.727C49.1976 276.005 48.4222 275.287 47.6432 274.574C46.4633 273.49 45.2993 272.392 44.1373 271.289C43.5885 270.793 43.5885 270.793 43.0286 270.287C41.1815 268.501 40.5089 267.514 40.1714 264.936C40.4826 262.815 40.4826 262.815 41.808 260.887C43.6955 259.602 43.6955 259.602 45.8642 259.441C48.5344 260.362 49.6602 261.439 51.5269 263.485C52.6933 264.744 53.9144 265.841 55.2218 266.951C57.9431 269.295 60.4648 271.813 62.9729 274.381C64.9357 272 66.6971 269.525 68.3946 266.951C68.6661 266.543 68.9376 266.135 69.2173 265.714C70.8688 263.222 72.4958 260.715 74.1101 258.199C74.4746 257.632 74.8391 257.066 75.2146 256.482C75.9259 255.375 76.6342 254.266 77.3391 253.155C82.9565 244.412 82.9565 244.412 86.5073 243.738Z" fill="#358B1D"/>
<path d="M119.783 260.527C120.429 260.528 121.074 260.53 121.739 260.531C123.101 260.538 124.462 260.552 125.824 260.573C127.908 260.605 129.992 260.612 132.076 260.616C133.4 260.625 134.725 260.635 136.049 260.647C136.672 260.651 137.295 260.654 137.937 260.658C138.518 260.668 139.1 260.678 139.698 260.689C140.208 260.696 140.718 260.703 141.243 260.71C142.847 260.91 143.86 261.305 145.223 262.171C146.73 264.432 146.881 265.292 146.508 267.954C145.196 269.821 144.15 270.988 141.859 271.468C140.061 271.593 138.29 271.612 136.488 271.594C135.83 271.597 135.171 271.6 134.493 271.603C133.104 271.605 131.715 271.599 130.326 271.586C128.202 271.569 126.079 271.586 123.955 271.606C122.604 271.604 121.253 271.6 119.901 271.594C118.95 271.603 118.95 271.603 117.98 271.613C114.974 271.562 113.546 271.508 111.087 269.654C109.881 267.954 109.881 267.954 109.479 266.026C110.655 260.383 114.995 260.43 119.783 260.527Z" fill="#323232"/>
<path d="M120.303 196.844C120.93 196.841 121.557 196.838 122.203 196.835C123.525 196.832 124.848 196.838 126.17 196.852C128.188 196.869 130.204 196.852 132.223 196.831C133.511 196.833 134.798 196.838 136.086 196.844C136.686 196.837 137.287 196.831 137.906 196.824C140.722 196.875 142.703 197.003 144.963 198.783C146.508 200.484 146.508 200.484 146.95 202.411C146.336 205.087 145.496 205.899 143.295 207.552C140.972 208.03 138.689 208.002 136.324 207.979C135.65 207.982 134.977 207.985 134.282 207.988C132.86 207.99 131.438 207.984 130.016 207.971C127.838 207.954 125.662 207.971 123.484 207.991C122.102 207.989 120.719 207.985 119.336 207.979C118.359 207.988 118.359 207.988 117.363 207.998C112.866 207.923 112.866 207.923 110.761 206.039C109.66 203.913 109.39 202.841 109.881 200.484C113.072 196.966 115.696 196.794 120.303 196.844Z" fill="#353535"/>
</svg>
